<svg xmlns="http://www.w3.org/2000/svg" width="32" height="32" id="chat"><g color="#000" font-family="sans-serif" font-weight="400"><path style="line-height:normal;text-indent:0;text-align:start;text-decoration-line:none;text-decoration-style:solid;text-decoration-color:#000;text-transform:none;block-progression:tb;isolation:auto;mix-blend-mode:normal" fill="#f05542" d="M24.092 1028.361v1H29v14h-4.5a.5.5 0 0 0-.5.5v3.723l-3.756-4.063a.5.5 0 0 0-.367-.16H6.328v1h13.33l4.475 4.838a.5.5 0 0 0 .867-.336v-4.5h4.5a.5.5 0 0 0 .5-.5v-15a.5.5 0 0 0-.5-.5h-5.408zm-15.592 2.5c-.822 0-1.5.678-1.5 1.5 0 .823.678 1.5 1.5 1.5s1.5-.677 1.5-1.5c0-.822-.678-1.5-1.5-1.5zm4 0c-.822 0-1.5.678-1.5 1.5 0 .823.678 1.5 1.5 1.5s1.5-.677 1.5-1.5c0-.822-.678-1.5-1.5-1.5zm4 0c-.822 0-1.5.678-1.5 1.5 0 .823.678 1.5 1.5 1.5s1.5-.677 1.5-1.5c0-.822-.678-1.5-1.5-1.5zm-8 1c.282 0 .5.218.5.5 0 .282-.218.5-.5.5a.493.493 0 0 1-.5-.5c0-.282.218-.5.5-.5zm4 0c.282 0 .5.218.5.5 0 .282-.218.5-.5.5a.493.493 0 0 1-.5-.5c0-.282.218-.5.5-.5zm4 0c.282 0 .5.218.5.5 0 .282-.218.5-.5.5a.493.493 0 0 1-.5-.5c0-.282.218-.5.5-.5z" overflow="visible" transform="translate(0 -1020.362)"></path><path style="line-height:normal;text-indent:0;text-align:start;text-decoration-line:none;text-decoration-style:solid;text-decoration-color:#000;text-transform:none;block-progression:tb;isolation:auto;mix-blend-mode:normal" fill="#2b4255" d="M.5 1024.361a.5.5 0 0 0-.5.5v15a.5.5 0 0 0 .5.5H5v4.5a.5.5 0 0 0 .867.34l4.475-4.84H24.5a.5.5 0 0 0 .5-.5v-15a.5.5 0 0 0-.5-.5H.5zm.5 1h23v14H10.123a.5.5 0 0 0-.367.162L6 1043.586v-3.725a.5.5 0 0 0-.5-.5H1v-14z" overflow="visible" transform="translate(0 -1020.362)"></path></g></svg>