<?xml version="1.0" encoding="utf-8"?>
<!-- Designed by Vexels.com - 2020 All Rights Reserved - https://vexels.com/terms-and-conditions/  -->
<svg version="1.1" id="Capa_1" xmlns="http://www.w3.org/2000/svg" xmlns:xlink="http://www.w3.org/1999/xlink" x="0px" y="0px"
	 viewBox="0 0 1200 1200" enable-background="new 0 0 1200 1200" xml:space="preserve">
<path d="M853.761,589.709c-0.045,0.04-0.094,0.074-0.14,0.113c0.075-0.003,0.151-0.005,0.226-0.008L853.761,589.709z
	 M1137.831,161.44c-0.878-3.221-2.113-6.616-4.116-9.211c-6.45-8.355-10.401-18.349-17.507-26.232
	c-3.474-3.854-4.916-8.336-4.454-13.503c0.167-1.867-0.085-3.769,0.058-5.639c0.69-9.07-3.261-16.113-9.928-21.668
	c-4.313-3.594-9.102-6.633-13.772-9.781c-7.796-5.254-16.297-7.308-25.728-5.954c-7.261,1.042-14.348-0.483-20.789-3.809
	c-6.803-3.513-13.766-5.13-21.441-5.859c-27.297-2.595-54.433-6.571-81.87-8.16c-14.278-0.826-28.524-1.531-42.807-1.523
	c-30.096,0.015-60.212,0.945-90.282,0.112c-38.461-1.066-76.686,2.05-114.906,4.975c-25.456,1.948-50.736,6.059-75.853,10.879
	c-14.789,2.837-28.196,8.235-37.904,20.366c-3.447,4.307-8.202,5.15-13.032,5.686c-10.825,1.202-21.677,2.781-32.531,2.885
	c-8.794,0.084-14.042,3.816-17.749,11.216c-2.91,5.809-4.35,12.025-5.565,18.289c-0.734,3.781-2.281,5.774-6.289,6.734
	c-6.233,1.493-9.343,5.926-8.877,12.538c0.053,0.748,0.15,1.535-0.016,2.247c-0.368,1.573-1.343,2.662-3.035,2.84
	c-1.492,0.157-2.995,0.216-4.494,0.298c-14.642,0.797-29.293,1.467-43.924,2.448c-5.237,0.351-10.486,1.158-15.617,2.273
	c-7.098,1.541-12.41,5.264-13.578,13.144c-0.274,1.853-0.747,3.689-1.275,5.49c-1.277,4.363-2.483,5.524-7.193,5.564
	c-5.63,0.047-11.266-0.369-16.896-0.644c-4.127-0.202-8.248-0.702-12.374-0.722c-56.057-0.265-112.114-0.49-168.172-0.68
	c-31.601-0.107-63.202-0.118-94.804-0.221c-2.75-0.009-5.414,0.347-7.291,2.37c-5.649,6.09-13.531,7.91-20.671,11.146
	c-6.503,2.947-13.049,5.8-19.571,8.705c-1.03,0.459-2.107,0.867-3.036,1.488c-4.322,2.894-5.332,8.719,0.134,11.798
	c9.492,5.348,19.178,10.294,28.835,15.322c9.618,5.008,19.206,8.521,30.194,6.835c1.843-0.283,3.756-0.155,5.636-0.138
	c39.86,0.344,79.716,0.988,119.583,0.602c39.125-0.378,78.253-0.368,117.381-0.474c15.801-0.043,31.603,0.081,47.404,0.076
	c3.955-0.001,7.483,0.723,9.724,4.417c2.183,3.599,5.611,4.525,9.577,4.9c15.363,1.453,30.732,2.37,46.177,1.96
	c6.011-0.16,12.036,0.154,18.054,0.294c2.308,0.054,4.934,0.329,5.947,2.528c3.55,7.704,9.46,14.574,8.739,23.864
	c-0.54,6.97,1.25,13.401,4.61,19.48c3.489,6.313,8.664,11.312,13.041,16.93c2.026,2.601,5.006,3.055,8.167,2.863
	c5.23-0.319,9.314,2.151,13.276,5.277c7.394,5.834,12.269,13.055,13.903,22.452c0.835,4.805,1.772,9.647,3.288,14.268
	c4.284,13.059,12.03,23.286,24.985,28.949c10.375,4.535,21.008,8.393,32.359,9.24c19.674,1.469,15.48,2.474,24.872,16.76
	c0.413,0.629,0.802,1.272,1.204,1.909c3.294,5.222,4.934,10.951,5.052,17.093c0.216,11.268,0.384,22.537,0.508,33.806
	c0.062,5.643-0.128,11.29,0.009,16.93c0.082,3.371,0.254,6.799,0.941,10.086c3.34,15.979,14.149,24.238,30.551,23.789
	c5.636-0.154,11.288,0.263,16.924,0.104c4.886-0.137,8.113,1.316,11.162,5.709c5.417,7.805,13.721,10.801,22.811,7.495
	c6.691-2.434,11.764-0.691,16.604,3.349c3.753,3.132,7.352,6.586,9.407,11.132c5.92,13.093,10.638,26.527,10.616,41.165
	c-0.021,14.293,0.468,28.519,1.95,42.787c1.466,14.12,5.516,27.229,11.569,39.83c8.631,17.969,16.692,36.161,22.854,55.14
	c2.442,7.523,4.374,15.169,4.537,23.175c0.069,3.373,0.69,6.732,0.901,10.106c0.728,11.631,1.578,23.259,1.967,34.902
	c0.136,4.078-0.474,8.318-1.54,12.269c-1.859,6.89-4.311,13.621-6.562,20.402c-1.241,3.737-3.675,6.597-7.104,8.433
	c-3.301,1.767-6.65,3.595-10.19,4.741c-16.703,5.4-33.994,7.061-51.268,5.004c-14.759-1.758-28.495,0.389-41.609,6.652
	c-6.287,3.002-12.717,4.598-19.482,5.044c-6.748,0.444-13.529,0.434-20.297,0.535c-26.387,0.396-49.35,9.342-68.029,28.093
	c-19.366,19.441-39.107,38.538-56.301,60.049c-8.953,11.201-17.26,22.747-23.714,35.581c-8.998,17.891-15.265,36.673-20.265,56.084
	c-3.445,13.373-4.214,26.617-3.787,40.177c0.178,5.66,0.553,11.273,1.891,16.785c0.897,3.694,2.263,7.123,5.187,9.805
	c7.482,6.862,14.754,13.96,22.356,20.685c11.769,10.41,25.789,16.889,40.578,21.531c8.213,2.577,16.806,4.03,25.297,5.616
	c21.155,3.953,42.521,5.09,64.013,4.432c5.253-0.161,10.609-0.444,15.761,0.347c11.249,1.727,22.512,1.124,33.781,1.169
	c8.262,0.033,16.536-0.21,24.784,0.146c15.451,0.667,30.788-0.641,46.186-1.55c30.772-1.816,61.634-0.297,92.449-2.227
	c18.761-1.175,37.577,0.702,56.252,3.314c4.43,0.62,9.101,0.889,13.48,0.189c7.112-1.137,14.234-1.093,21.358-1.496
	c4.502-0.255,9.02-0.551,13.477-1.203c12.295-1.799,24.612-3.255,37.057-3.248c5.685,0.004,11.205-0.951,16.737-2.183
	c11.833-2.636,22.626-7.981,33.55-12.887c4.378-1.966,8.537-4.959,12.008-8.303c11.589-11.166,20.034-24.473,24.118-40.113
	c2.968-11.367,4.22-22.903-0.131-34.412c-5.452-14.422-13.677-26.711-26.33-35.787c-3.061-2.196-6.229-4.127-9.849-5.393
	c-10.645-3.722-9.497-3.427-12.094-15.253c-0.32-1.46-0.394-2.984-0.479-4.485c-0.33-5.808,0.219-6.529,6.265-8.796
	c3.521-1.319,7.09-2.545,10.513-4.088c6.993-3.152,12.711-7.893,17.309-14.082c8.667-11.664,8.243-23.769,1.794-36.065
	c-3.425-6.529-11.58-10.475-18.024-8.677c-6.222,1.736-11.96,4.486-15.379,10.55c-2.377,4.214-4.968,8.308-7.464,12.456
	c-0.565-0.186-1.13-0.372-1.695-0.558c0.92-2.366,1.676-4.813,2.792-7.083c2.323-4.725,4.775-9.391,7.283-14.022
	c10.924-20.176,11.717-38.366-7.229-57.437c-6.081-6.121-11.489-12.924-17.037-19.556c-5.493-6.567-8.116-14.332-8.698-22.81
	c-0.18-2.625-0.266-5.261-0.269-7.893c-0.025-22.962,1.089-45.859,3.819-68.673c0.399-3.331,0.478-6.798,0.037-10.114
	c-1.147-8.621-0.987-17.272-1.069-25.918c-0.12-12.791-0.791-25.512-2.093-38.27c-2.654-26.001-8.747-51.143-17.916-75.477
	c-8.781-23.301-15.211-47.221-21.006-71.359c-0.786-3.274-1.413-6.635-1.633-9.987c-1.985-30.249,0.882-60.075,8.063-89.505
	c1.43-5.86,3.421-11.513,5.863-17.043c3.297-7.463,8.399-13.16,15.118-17.776c10.932-7.508,23.12-12.326,35.116-17.69
	c13.962-6.243,26.616-14.413,31.52-30.169c1.53-4.917,4.32-7.719,9.169-8.77c8.06-1.745,14.133-6.742,20.031-12.094
	c6.148-5.578,9.84-12.352,10.034-20.703c0.093-3.976,1.424-7.154,3.769-10.313c7.844-10.562,15.423-21.321,23.166-31.959
	c4.266-5.86,7.215-12.358,9.147-19.269C1145.136,208.185,1144.188,184.752,1137.831,161.44z M398.957,187.738
	c-11.215,2.708-11.446,2.7-21.078-0.712C391.456,185.451,392.355,185.482,398.957,187.738z M359.187,186.349
	c2.564,0.186,5.167-0.673,7.58,0.631c0.24,0.129,0.431,0.529,0.458,0.82c0.029,0.313-0.061,0.802-0.276,0.942
	c-0.597,0.389-1.266,0.833-1.943,0.901c-1.814,0.182-3.71,0.512-5.457,0.177c-3.259-0.625-7.352,2.043-9.707-2.312
	C352.74,185.217,356.114,186.849,359.187,186.349z M89.643,209.259c-1.101-0.48-1.442-1.622-0.742-2.809
	c1.228-2.084,3.274-3.349,5.431-3.68c6.293-0.965,12.642-1.582,18.981-2.213c1.069-0.107,2.236,0.283,3.292,0.638
	c2.156,0.725,4.705,1.616,4.759,4.157c0.07,3.321-3.013,2.817-5.002,2.679c-7.592-0.53-14.856,2.15-23.4,2.044
	C92.491,209.969,90.97,209.837,89.643,209.259z M127.834,217.741c-0.054,0.311-0.281,0.799-0.504,0.843
	c-8.513,1.65-16.92,1.827-25.001-3.305c7.461,0,14.922-0.052,22.382,0.062c1.001,0.015,2.014,0.824,2.964,1.367
	C127.87,216.819,127.892,217.402,127.834,217.741z M127.161,191.884c-1.41-0.044-3.303-0.104-3.177-2.166
	c0.036-0.583,1.599-1.516,2.478-1.534c7.893-0.158,15.79-0.2,23.684-0.113c0.897,0.01,2.426,0.905,2.557,1.598
	c0.427,2.262-1.651,2.129-2.978,2.179c-3.756,0.141-7.52,0.05-11.281,0.05c0,0.009,0,0.017,0,0.026
	C134.682,191.924,130.919,192,127.161,191.884z M138.712,207.156c-1.387-0.608-2.454-1.706-2.102-3.448
	c0.246-1.217,1.212-1.925,2.354-1.933c7.028-0.051,14.056-0.028,21.083,0.032c0.704,0.006,1.445,0.342,2.098,0.665
	c1.391,0.688,2.448,1.692,2.139,3.422c-0.226,1.264-1.24,1.797-2.389,1.872c-3.694,0.242-7.395,0.4-10.489,0.559
	C146.759,207.934,142.598,208.86,138.712,207.156z M169.305,219.161c-6.315,0.581-12.644,0.832-18.937-0.218
	c-0.594-0.099-1.371-0.774-1.552-1.344c-0.478-1.507,0.814-2.051,1.863-2.103c2.972-0.149,5.956-0.052,8.936-0.052
	c0.007-0.118,0.015-0.235,0.022-0.353c3.327,0.281,6.662,0.503,9.972,0.917c0.419,0.053,1.021,1.136,0.976,1.697
	C170.541,218.242,169.801,219.116,169.305,219.161z M165.988,191.362c-0.497-0.05-1.211-0.947-1.263-1.504
	c-0.043-0.466,0.685-1.398,1.158-1.459c6.338-0.82,12.694-0.676,19.034,0.011c0.516,0.056,1.335,0.875,1.322,1.319
	c-0.016,0.523-0.738,1.411-1.235,1.471c-2.968,0.357-5.96,0.521-9.731,0.811C172.686,191.848,169.327,191.698,165.988,191.362z
	 M177.683,205.061c-0.489-0.382-0.927-1.433-0.741-1.944c0.339-0.933,1.052-2.292,1.797-2.426
	c5.839-1.054,11.748-1.383,17.646-0.536c1.922,0.276,3.201,1.701,4.133,3.398c0.686,1.25-0.072,3.449-1.415,3.589
	c-2.935,0.305-5.887,0.447-8.255,0.615c-3.545-0.176-6.529-0.123-9.439-0.559C180.08,206.999,178.813,205.942,177.683,205.061z
	 M209.383,217.473c-0.109,0.579-0.798,1.428-1.311,1.488c-2.923,0.343-5.87,0.485-8.809,0.695c-0.003-0.11-0.005-0.22-0.008-0.329
	c-2.583,0-5.178,0.136-7.745-0.072c-0.941-0.076-2.375-0.786-2.616-1.524c-0.725-2.216,1.324-2.25,2.639-2.419
	c4.382-0.562,8.779-1.107,13.186-1.316c1.312-0.062,2.746,0.885,3.983,1.612C209.163,215.879,209.492,216.892,209.383,217.473z
	 M218.019,206.342c-3.603-0.087-6.143-3.02-7.32-6.207c-1.489-4.032-3.274-7.416-7.571-8.952c-0.33-0.118-0.601-1.374-0.37-1.837
	c0.266-0.534,1.11-1.069,1.722-1.092c2.973-0.111,5.953-0.05,8.93-0.05c14.634-0.066,15.292,0.294,23.464,12.666
	c0.205,0.31,0.424,0.633,0.528,0.983c0.484,1.63,0.036,3.371-1.579,3.525C229.906,205.942,223.945,206.485,218.019,206.342z
	 M247.737,217.58c-0.238,0.569-0.956,1.061-1.569,1.316c-0.667,0.277-1.463,0.311-2.205,0.323c-2.245,0.037-4.49,0.014-8.839,0.014
	c-1.6-0.08-5.454,0.86-8.917-1.029c-0.787-0.43-1.259-1.746-1.495-2.745c-0.112-0.477,0.596-1.614,1.057-1.689
	c6.996-1.135,14.023-2.044,20.801,1.004C247.596,215.235,248.233,216.391,247.737,217.58z M251.195,202.561
	c-1.669-1.511-3.337-3.051-4.802-4.752c-2.297-2.668-7.636-4.578-5.575-8.54c1.64-3.152,6.763-2.087,10.47-2.176
	c0.748-0.018,1.498,0.083,2.248,0.129c-0.002,0.04-0.005,0.081-0.007,0.121c2.998,0.167,5.996,0.349,8.995,0.498
	c3.571,0.178,6.717,1.308,8.566,4.537c1.77,3.088,6.568,5.415,4.525,9.465c-1.633,3.239-6.139,1.718-9.356,2.326
	c-2.575,0.486-5.207,0.707-7.824,0.918C255.682,205.31,253.231,204.405,251.195,202.561z M284.763,218.858
	c-2.573,0.323-5.172,0.432-6.807,0.558c-4.65-0.293-8.431,0.422-11.974-1.116c-1.401-0.608-2.531-1.664-2.686-3.268
	c-0.183-1.905,1.321-2.485,2.771-2.846c5.131-1.275,10.338-1.01,15.526-0.515c1.892,0.18,3.44,1.133,4.605,2.778
	C287.336,216.059,286.661,218.619,284.763,218.858z M295.651,203.313c-8.808,0.505-13.614-4.726-17.085-11.861
	c-0.835-1.715,0.302-4.002,2.311-4.221c7.764-0.845,15.549-1.09,23.291,0.229c2.731,0.466,4.668,2.184,5.965,4.614
	c1.223,2.292,2.538,4.541,3.628,6.895c0.866,1.869-0.35,3.826-2.498,3.922c-3.338,0.149-6.687,0.039-10.031,0.039
	c0,0.122-0.001,0.245-0.001,0.367C299.371,203.298,297.505,203.207,295.651,203.313z M322.386,218.989
	c-2.958,0.101-5.922,0.034-8.884,0.034c-0.001,0.01-0.001,0.021-0.001,0.031c-2.963,0-5.929,0.069-8.888-0.024
	c-1.921-0.061-3.645-0.887-4.877-2.34c-0.676-0.798-1.371-2.004-1.256-2.925c0.107-0.859,1.182-1.714,2.013-2.322
	c0.546-0.399,1.415-0.495,2.139-0.49c5.185,0.031,10.371,0.056,15.552,0.226c2.287,0.075,4.425,0.912,5.769,2.862
	c0.568,0.825,0.801,2.043,0.779,3.073C324.703,218.429,323.502,218.951,322.386,218.989z M350.48,219.305
	c-0.744,0.025-1.49,0.004-2.332,0.004c-3.847,0.163-7.379-0.768-9.626-4.297c-5.432-8.529-12.208-15.97-18.792-23.578
	c-1.891-2.186-0.893-4.398,1.959-4.677c2.222-0.217,4.475-0.126,6.693-0.371c7.141-0.787,11.795,1.514,14.686,8.766
	c2.588,6.493,6.998,12.254,10.546,18.372C355.735,217.181,354.624,219.165,350.48,219.305z M365.087,212.446
	c-3.082-4.232-6.307-8.362-9.302-12.653c-1.526-2.186-0.275-4.556,2.444-4.827c2.229-0.222,4.484-0.28,6.725-0.248
	c5.212,0.074,8.483,1.425,7.195,2.776c-2.292,2.404-4.883,0.609-7.365,0.414c-1.077-0.085-2.166-0.015-3.25-0.015
	c3.413,3.762,7.874,4.04,12.256,4.517c3.102,0.337,5.887,1.256,7.798,3.855c0.638,0.868,1.254,1.969,1.316,2.997
	c0.11,1.842-1.482,2.26-2.925,2.738c-1.624,0.538-2.922,1.368-0.756,2.88c1.781,1.244,4.405,1.009,5.714,3.17
	C374.703,221.272,370.672,220.114,365.087,212.446z M394.669,209.563c-1.738-1.948-3.489-4.066-4.516-6.421
	c-1.175-2.693-4.243-4.196-4.552-7.937c3.712-0.712,7.337-1.665,11.023-2.047c4.498-0.466,8.105,1.2,10.019,5.62
	c0.448,1.034,1.057,2.016,1.38,3.086c1.022,3.391,4.551,6.93,1.023,10.299C406.159,214.921,397.851,213.13,394.669,209.563z
	 M410.667,219.434c-1.107,0.081-2.24,0.046-3.339-0.104c-0.961-0.131-1.316-0.793-0.823-1.434c0.796-1.034,4.459-0.895,5.178,0.123
	C411.939,218.78,411.608,219.365,410.667,219.434z M415.038,189.367c-0.948,0.001-2.243-0.084-2.765-0.688
	c-0.858-0.993-0.121-1.891,1.103-2.064c1.071-0.151,2.082,0.079,2.602,1.234C415.669,188.375,415.355,189.366,415.038,189.367z
	 M501.484,199.324c-0.078,0-0.157,0-0.235,0c0,8.27,0.305,16.554-0.094,24.804c-0.338,6.981-2.168,8.376-9.125,8.615
	c-2.25,0.077-4.524-0.272-6.76-0.09c-3.395,0.276-5.181-3.322-7.993-3.407c-2.905-0.088-4.416,4.004-7.769,3.863
	c-1.467-0.062-3.016,0.059-4.378-0.375c-2.05-0.653-1.808-4.945-4.68-3.819c-1.774,0.695-2.647,3.417-4.318,4.726
	c-1.48,1.159-3.556,1.148-5.382,0.334c-1.976-0.88-2.596-2.634-2.44-4.62c0.117-1.486,0.612-2.94,0.792-4.426
	c0.229-1.891,0.309-3.844-1.891-4.748c-1.34-0.551-2.688,1.382-2.715,3.96c-0.011,1.122,0.208,2.245,0.282,3.37
	c0.462,7.061-3.753,7.744-8.466,7.124c-2.115-0.278-3.24-1.717-3.359-3.85c-0.041-0.743-0.046-1.527,0.138-2.238
	c5.224-20.122,3.433-40.245,0.061-60.374c-0.184-1.101-0.269-2.232-0.258-3.347c0.012-1.225,0.676-2.138,1.866-2.469
	c1.149-0.319,2.168,0.003,2.99,0.95c1.844,2.128,2.032,4.768,2.395,7.373c0.827,5.954,1.615,11.916,2.599,17.844
	c0.232,1.399,1.062,2.755,1.852,3.979c0.335,0.518,1.375,1.018,1.919,0.871c0.999-0.269,2.291-0.813,2.692-1.623
	c0.632-1.278,0.837-2.868,0.858-4.33c0.086-6.07-1.157-11.935-2.808-17.754c-0.604-2.128-0.723-4.41-0.867-6.634
	c-0.022-0.346,0.98-0.833,1.577-1.103c0.217-0.099,0.712,0.165,0.949,0.397c2.026,1.988,2.297,4.633,2.636,7.243
	c1.45,11.182,2.649,22.38,2.697,33.68c0.011,2.587,0.46,5.218,1.1,7.728c0.193,0.756,1.716,1.632,2.618,1.62
	c0.912-0.012,2.068-0.876,2.643-1.699c0.604-0.864,0.879-2.117,0.897-3.206c0.227-13.878,1.571-27.884-4.379-41.109
	c-0.306-0.681-0.517-1.418-0.675-2.15c-0.319-1.483-0.659-3.113,0.952-4.021c1.765-0.994,3.628-0.754,5.278,0.422
	c2.41,1.719,2.961,4.38,2.873,7.015c-0.42,12.544,3.541,24.528,4.577,36.881c0.121,1.445,0.792,2.852,1.282,4.25
	c0.097,0.277,0.505,0.505,0.82,0.634c0.902,0.369,1.553,0.055,1.746-0.892c1.447-7.098,0.986-14.234-0.006-21.303
	c-0.782-5.573-2.174-11.06-3.227-16.598c-0.49-2.576-0.957-5.172-1.167-7.78c-0.131-1.633,0.903-2.927,2.538-3.216
	c1.835-0.324,3.73-0.323,5.601-0.416c7.822-0.388,10.135,1.051,10.815,9.113c0.914,10.849,2.472,21.645,3.821,32.455
	c0.23,1.844,0.579,3.744,1.314,5.425c0.348,0.795,1.774,1.611,2.647,1.546c0.898-0.067,2.054-1.018,2.51-1.889
	c1.458-2.782,1.214-5.913,0.84-8.856c-1.275-10.04-1.904-20.2-5.084-29.923c-0.674-2.063-2.045-4.207,0.006-6.262
	c1.385-1.388,3.713,0.862,4.975,4.64c1.575,4.715,1.767,9.61,1.883,14.488C501.598,186.538,501.484,192.933,501.484,199.324z
	 M1096.025,113.14c-2.096,0.407-2.404-1.177-2.728-2.57c-0.907-3.907-1.729-7.833-2.584-11.751c0,0.002,0.001,0.003,0.001,0.005
	c0.939,1.019,1.874,2.553,3.333,2.077c1.526-0.498,1.228-2.277,1.263-3.648C1100.533,102.322,1099.124,107.691,1096.025,113.14z
	 M1086.196,89.367c1.242-1.474,2.712-0.347,3.812,0.535c1.152,0.924,2.067,2.142,3.086,3.231c-1.464,0.35-2.709,1.007-3.397,2.431
	c-1.023-1.051-2.235-1.982-3.003-3.195C1086.172,91.545,1085.756,89.889,1086.196,89.367z M815.837,60.681
	c10.853-1.151,21.752-1.285,32.639-0.473c3.04,0.227,4.592,2.359,4.943,5.27c0.538,4.464,0.917,8.948,1.493,13.406
	c0.072,0.561,0.848,1.332,1.426,1.469c1.454,0.346,1.943-0.826,2.018-1.95c0.347-5.231,0.52-10.474,0.955-15.696
	c0.091-1.089,1.2-2.02,2.509-1.501c0.562,0.223,1.156,1.017,1.262,1.634c0.7,4.052-0.983,8.294,0.87,12.236
	c0.431,0.917,1.368,2.015,2.252,2.208c1.694,0.37,2.814-0.862,2.997-2.489c0.417-3.715,0.538-7.465,1.01-11.172
	c0.201-1.575,1.378-2.63,3.14-2.531c1.239,0.069,2.037,0.844,2.441,1.983c1.001,2.823,1.896,5.687,2.997,8.471
	c0.418,1.057,1.442,1.928,2.682,1.493c0.98-0.345,2.027-0.999,2.615-1.823c0.619-0.866,0.919-2.077,1.028-3.17
	c0.762-7.634,2.892-8.378,10.513-8.377c19.167,0.003,38.336,0.059,57.501,0.305c3.716,0.048,7.467,0.846,11.119,1.668
	c5.416,1.218,6.12,2.185,6.488,7.564c0.231,3.371,0.224,6.764,0.593,10.117c0.156,1.42,0.892,2.821,1.563,4.129
	c0.826,1.611,3.811,1.515,4.79,0.046c1.312-1.97,1.628-4.183,1.782-6.425c0.18-2.623,0.162-5.258,0.278-7.886
	c0.085-1.923,0.348-3.809,2.663-4.36c2.621-0.625,5.766,0.957,6.227,3.506c0.461,2.546,0.567,5.212,0.41,7.8
	c-0.228,3.741-0.941,7.452-1.226,11.193c-0.119,1.553,0.689,3.034,2.482,3.113c1.784,0.079,2.667-1.372,2.906-2.866
	c0.412-2.581,0.549-5.208,0.736-7.82c0.188-2.618,0.124-5.266,0.479-7.858c0.532-3.897,1.72-4.46,6.101-4.822
	c7.936-0.656,15.682,0.927,23.506,1.583c1.12,0.094,2.311,0.131,3.327,0.544c14.677,5.955,29.143,12.284,39.909,24.577
	c2.193,2.504,4.388,5.066,4.977,9.389c-5.457-0.49-10.625-0.568-15.647-1.469c-25.936-4.651-52.281-5.348-78.395-8.256
	c-7.817-0.871-15.768-0.596-23.66-0.722c-10.513-0.167-20.985-0.216-31.501-1.396c-11.176-1.254-22.614-1.389-33.756,0.278
	c-17.758,2.658-35.266,0.623-52.784-1.486c-11.231-1.352-22.33-12.094-25.058-23.186C810.555,63.339,811.874,61.101,815.837,60.681z
	 M703.337,147.732c1.185-5.141,2.234-10.241,4.949-14.848c1.739-2.951,3.859-5.549,6.694-7.481
	c9.29-6.332,20.299-2.617,22.788,8.131c1.426,6.157,2.352,12.467,2.932,18.847c1.87,20.548,1.856,41.167,3.013,61.726
	c0.568,10.091,1.241,20.171,1.356,30.281c0.034,2.996-0.102,5.999-0.295,8.989c-0.209,3.24-1.945,5.515-4.678,7.229
	c-11.91,7.471-32.051,2.72-35.257-13.305c-1.992-9.955-3.432-19.937-3.806-30.048c-0.291-7.86-0.058-15.739-0.058-23.61
	C700.439,178.283,699.843,162.898,703.337,147.732z M722.484,112.096c-1.682,0.611-3.497,0.856-4.972,1.192
	c-0.981-0.438-1.943-0.574-2.182-1.063c-0.212-0.434,0.192-1.589,0.652-1.853c1.555-0.893,3.214-1.663,4.918-2.221
	c1.08-0.354,2.273,0.098,2.73,1.226C724.089,110.509,723.558,111.705,722.484,112.096z M572.198,178.72
	c0.348,0.128,0.721,0.197,1.087,0.269c13.866,2.749,13.775,4.577,13.333,18.383c-0.083,2.593-0.289,5.182-0.47,8.337
	c-9.272,1.992-17.466,2.564-25.693,2.713c-1.464,0.027-3.102-0.348-3.356-2.264c-0.292-2.202,0.942-3.835,2.916-4.041
	c4.072-0.426,8.195-0.386,12.298-0.498c6.815-0.186,9.844-1.527,8.867-4.038c-1.663-4.271-5.647-2.697-8.729-2.634
	c-3.717,0.076-7.409,1.011-11.132,1.254c-2.541,0.166-4.397-1.358-4.661-3.898c-0.81-7.805-1.521-15.625-2.021-23.455
	c-0.205-3.215,1.348-4.887,4.354-5.624c3.306-0.812,6.662-1.007,10.033-0.496c4.83,0.732,9.642,0.896,14.019-0.679
	c2.4,2.208,1.771,4.553,1.658,6.727c-0.132,2.531-1.595,4.204-4.055,4.705c-2.562,0.521-5.206,0.648-7.76,1.198
	c-0.937,0.202-2.152,0.954-2.469,1.759C569.951,177.619,571.118,178.322,572.198,178.72z M542.79,103.03
	c7.818-0.799,15.65-1.478,23.482-2.127c1.049-0.087,2.372,0.261,2.237,1.647c-0.128,1.312-1.486,1.469-2.556,1.525
	c-3.737,0.197-7.502,0.116-11.211,0.539c-1.763,0.201-3.479,1.197-5.098,2.055c-0.456,0.242-0.746,1.306-0.654,1.925
	c0.091,0.615,0.714,1.596,1.179,1.641c3.697,0.363,7.411,0.571,11.122,0.769c14.193,0.758,13.31-0.087,16.998,14.053
	c2.084,7.992,3.438,16.114,4.12,24.331c0.331,3.983-1.448,6-5.16,5.512c-6.064-0.797-11.943-0.426-17.797,1.197
	c-0.713,0.198-1.478,0.225-2.222,0.28c-2.029,0.15-3.686-1.362-3.662-3.293c0.022-1.824,1.173-2.768,2.747-2.96
	c1.841-0.225,3.728-0.075,5.596-0.099c2.995-0.038,5.994,0.006,8.983-0.156c2.625-0.143,5.46-0.301,6.321-3.503
	c0.549-2.042-2.681-3.654-7.175-3.428c-2.605,0.13-5.186,0.685-7.788,0.957c-2.221,0.232-4.461,0.503-6.685,0.452
	c-3.227-0.074-3.682-0.849-4.339-6.189l0.098,0.151c0.069-0.036,0.14-0.066,0.209-0.101c-0.093-0.018-0.187-0.026-0.281-0.045
	c-1.106-2.305-2.645-4.517-3.167-6.947c-1.739-8.095-4.178-15.895-7.872-23.325C538.94,105.325,540.078,103.307,542.79,103.03z
	 M544.317,197.068c0.268,0.001,0.652,0.448,0.769,0.766c0.116,0.317-0.035,0.734-0.089,1.331c-2.716,2.548-5.915,4.225-9.925,3.891
	c-0.305-0.025-0.691-0.383-0.832-0.684c-0.136-0.289-0.147-0.904,0.033-1.033C537.298,199.167,540.375,197.061,544.317,197.068z
	 M540.748,189.534c0.854-1.362,2.102-2.017,3.719-1.665c0.246,0.054,0.397,0.547,0.583,0.825c-0.162,1.302-1.154,1.831-2.202,2.092
	c-0.609,0.152-1.348-0.094-1.991-0.288C540.726,190.459,540.606,189.761,540.748,189.534z M540.446,184.96
	c-0.55-0.364-1.553-0.765-1.522-1.051c0.201-1.835,3.571-4.422,5.72-4.496c0.272-0.01,0.655,0.359,0.812,0.648
	c0.162,0.297,0.238,0.752,0.132,1.065C544.761,183.585,542.499,184.145,540.446,184.96z M517.311,142.618
	c-4.176-3.567-5.015-7.943-2.057-11.847c1.347-1.777,3.021-3.323,4.648-4.868c1.355-1.288,2.964-2.316,4.268-3.648
	c1.733-1.77,4.907-2.519,4.569-5.836c-0.219-2.15-4.548-1.188-8.819,1.691c-2.065,1.392-2.984,4.414-6.62,4.348
	c1.39-5.202,3.139-9.982,6.559-14.028c3.423-4.05,7.131-4.054,10.249,0.053c3.463,4.561,5.207,9.843,6.442,15.259
	c-11.074,6.7-11.509,7.11-16.264,15.65c4.808-3.013,8.778-5.629,12.89-7.998c1.203-0.693,2.85-1.022,4.219-0.865
	c0.757,0.087,1.608,1.432,1.965,2.38c0.401,1.065-0.125,2.591-1.383,2.33c-5.609-1.164-9.109,2.232-12.881,5.366
	C521.09,143.934,519.257,144.281,517.311,142.618z M524.281,167.937c-1.082-6.064-2.092-8.573,5.808-12.639
	c3.042-1.566,5.231-4.226,6.661-7.411c0.834-1.859,0.298-5.348,3.543-4.609c2.425,0.552,2.19,3.683,2.56,5.816
	c0.83,4.797,1.421,9.635,2.109,14.456c0.648,9.97,1.714,8.32-8.131,13.394c-1.335,0.688-2.676,1.373-4.053,1.968
	c-4.772,2.062-7.031,0.857-7.818-4.256C524.617,172.434,524.675,170.146,524.281,167.937z M531.835,291.835
	c-1.01-0.354-2.185-0.781-1.883-2.071c0.433-1.853,3.292-3.525,5.101-3.027c0.493,0.136,1.103,1.038,1.098,1.583
	C536.13,290.674,534.204,292.161,531.835,291.835z M537.994,280.906c-0.636,0.955-2.599,1.054-3.974,1.467
	c-0.293,0.088-0.904-0.079-0.997-0.292c-0.242-0.554-0.542-1.319-0.332-1.778c0.28-0.614,1.081-0.966,1.55-1.522
	c1.879-2.226,1.863-2.24-2.425-4.068c3.011-2.855,6.676-4.95,7.959-8.94c0.062-0.194,0.689-0.353,0.995-0.281
	c0.309,0.073,0.758,0.436,0.783,0.704C542.032,271.498,540.93,276.5,537.994,280.906z M544.817,244.422
	c-0.77,1.932-2.285,2.788-4.365,2.425c-1.046-0.183-2.067-0.508-4.415-1.101c2.109-1.397,2.954-2.119,3.926-2.564
	c1.529-0.7,2.991-2.525,4.831-0.793C545.146,242.72,545.058,243.819,544.817,244.422z M545.928,233.099
	c-1.453,5.409-5.818,2.685-9.064,3.233c2.494-2.392,4.399-5.911,8.776-4.258C545.844,232.151,546.01,232.792,545.928,233.099z
	 M538.248,228.724c-3.117,1.163-6.27,2.282-9.489,3.098c-1.558,0.395-2.958-0.648-3.191-2.331
	c-0.708-5.118,0.332-9.483,5.209-12.401c4.057-2.429,9.027-3.578,11.576-8.26c0.648-1.19,3.017-0.345,3.372,1.174
	c0.502,2.146,0.839,4.331,1.014,5.262C546.86,224.44,545.905,225.869,538.248,228.724z M560.027,302.228
	c-0.978-1.995,1.065-2.379,1.816-3.478c1.316-1.927,0.643-3.862-1.232-4.262c-3.446-0.736-6.699,0.444-10.038,0.792
	c-2.773,0.289-4.168-1.337-3.606-4.134c0.296-1.471,0.687-2.927,1.133-4.359c2.602-8.335,4.115-9.26,13.105-8.111
	c3.476,0.444,7.334,2.859,9.811-1.888c-2.328-4.343-6.416-2.654-9.947-2.927c-1.862-0.144-3.737-0.312-5.562-0.689
	c-1.617-0.333-2.508-1.583-2.662-3.191c-0.155-1.621,0.597-3.151,1.928-3.802c1.632-0.798,3.539-1.106,5.362-1.428
	c2.56-0.451,5.164-0.655,7.715-1.145c0.347-0.067,0.578-1.164,0.686-1.813c0.038-0.233-0.393-0.687-0.702-0.813
	c-3.609-1.463-7.376,0.344-11.046-0.408c-0.586-2.412,1.274-2.151,2.518-2.37c1.101-0.193,2.253-0.074,3.37-0.2
	c0.734-0.083,1.531-0.217,2.143-0.588c0.559-0.338,1.232-1.012,1.255-1.562c0.023-0.55-0.573-1.394-1.115-1.654
	c-3.206-1.54-7.925,0.478-9.862-3.966c-1.445-3.314,0.124-6.65,0.457-9.976c0.336-3.362,0.402-6.756,0.828-10.105
	c0.485-3.818,1.913-5.262,5.865-5.526c4.49-0.299,9.008-0.146,13.513-0.266c1.865-0.05,3.895-0.029,5.211-1.588
	c0.624-0.739,0.887-1.942,0.928-2.952c0.023-0.561-0.626-1.336-1.179-1.702c-1.974-1.306-4.281-1.226-6.521-1.233
	c-4.133-0.012-8.265,0.103-12.397,0.071c-1.493-0.012-2.983-0.33-3.432-2.118c-0.349-1.393,2.135-2.697,4.387-2.319
	c0.37,0.062,0.755,0.092,1.103,0.22c5.764,2.105,11.623,2.712,17.731,1.705c2.7-0.445,4.39,1.411,4.191,3.947
	c-0.118,1.491-0.646,2.964-0.648,4.445c-0.008,4.912-2.233,7.735-7.213,8.324c-1.483,0.176-2.96,0.563-4.384,1.026
	c-1.692,0.55-4.357,0.488-4.443,2.615c-0.099,2.435,2.54,2.244,4.319,2.522c2.225,0.347,4.482,0.497,6.704,0.858
	c1.497,0.244,3.099,0.742,3.344,2.488c0.244,1.73-1.006,2.639-2.544,3.113c-1.785,0.551-3.619,0.982-5.336,1.696
	c-0.511,0.212-0.986,1.219-0.949,1.83c0.034,0.57,0.729,1.14,1.217,1.626c0.245,0.245,0.686,0.283,1.021,0.45
	c6.042,3.015,6.617,3.542,5.613,9.064c-1.208,6.641-2.926,13.191-4.468,19.769c-0.579,2.469-2.375,3.694-4.718,4.279
	c-2.551,0.637-5.109,1.249-7.64,1.96c-1.056,0.297-2.242,0.824-2.197,2.103c0.046,1.298,1.231,1.776,2.354,1.761
	c1.868-0.025,3.738-0.423,5.599-0.369c3.932,0.113,6.068,2.442,6.985,6.08c-0.238,0.227-0.509,0.437-0.646,0.714
	C573.996,302.337,567.968,304.527,560.027,302.228z M567.831,320.256c-1.162,0.043-2.359-0.428-2.315-1.702
	c0.045-1.328,1.38-1.487,2.46-1.468c1.037,0.019,2.189,0.052,2.413,1.474C569.932,319.719,568.97,320.213,567.831,320.256z
	 M576.668,343.883c-0.914-0.292-1.707-0.961-2.55-1.474c0.59-0.178,1.199-0.552,1.767-0.498c1.744,0.166,2.626,0.732,2.553,1.406
	C577.843,343.53,577.15,344.037,576.668,343.883z M578.957,300.659c-0.345-2.183-0.314-4.426-0.441-6.644
	c0.856-0.675,1.844-1.243,2.5-2.072c2.861-3.618,6.495-4.776,10.99-4.061c19.26,3.062,38.186-0.798,57.194-2.893
	c0.716-0.079,1.421-0.413,2.086-0.727c0.308-0.146,0.761-0.597,0.708-0.788c-0.187-0.674-0.398-1.566-0.905-1.877
	c-0.922-0.565-2.051-1.033-3.115-1.082c-4.126-0.189-8.279-0.486-12.389-0.221c-14.239,0.918-28.485,1.812-42.612,3.968
	c-1.475,0.225-3.012,0.325-4.49,0.178c-2.159-0.216-3.386-1.586-3.265-3.781c0.123-2.244,0.257-4.531,0.785-6.702
	c3.378-13.87,7.09-27.663,8.689-41.906c0.337-3,2.378-4.464,5.28-5.013c4.798-0.909,9.57-1.949,14.353-2.936
	c2.523-0.52,5.221-0.618,7.059-2.875c-0.186-2.194-1.971-1.873-3.284-1.946c-4.504-0.25-9.025-0.237-13.522-0.564
	c-1.814-0.132-3.725-0.603-5.334-1.424c-1.827-0.932-2.197-2.881-1.974-4.874c0.199-1.781,1.401-2.546,2.968-2.871
	c4.776-0.991,9.564-1.923,14.337-2.93c1.46-0.308,2.93-0.671,4.304-1.232c0.583-0.239,1.162-0.987,1.338-1.617
	c0.361-1.296-0.548-2.024-1.604-2.562c-2.743-1.397-5.695-1.965-8.728-1.963c-13.787,0.009-12.635-2.32-12.803-13.91
	c-0.327-22.625-3.543-44.929-7.499-67.14c-0.853-4.791-2.081-9.6-3.847-14.124c-2.287-5.86-0.668-10.206,3.835-13.981
	c5.231-4.386,10.807-8.422,17.498-9.973c20.866-4.837,41.72-9.832,63.158-11.585c1.123-0.092,2.25-0.287,3.37-0.251
	c2.108,0.068,3.505,1.112,3.941,3.264c0.149,0.737,0.19,1.527,0.495,2.196c1.269,2.786,0.43,8.09,4.852,7.326
	c3.196-0.552,1.315-5.208,1.749-8.027c0.169-1.098,0.419-2.188,0.72-3.257c0.087-0.313,0.493-0.783,0.718-0.765
	c0.672,0.057,1.789,0.159,1.917,0.527c1.228,3.529,2.18,7.156,3.473,10.659c0.319,0.865,1.579,1.928,2.423,1.943
	c1.807,0.032,2.384-1.592,2.4-3.144c0.026-2.627-0.315-5.263-0.193-7.881c0.169-3.64,1.831-5.531,5.421-6.112
	c2.585-0.418,5.235-0.511,7.861-0.59c8.906-0.271,12.336-2.243,11.606,10.254c-0.433,7.403,1.452,14.926,2.093,22.412
	c0.506,5.912-0.199,7.396-6.216,8.784c-9.47,2.186-17.351,7.019-24.697,13.019c-4.569,3.732-7.526,8.381-7.349,14.491
	c0.026,0.91,0.904,2.058,1.717,2.619c1.091,0.753,2.211-0.004,2.813-1.018c1.532-2.58,2.822-5.309,4.429-7.839
	c2.544-4.008,5.461-7.678,10.581-9.127c-10.518,12.786-11.914,28.303-13.423,43.532c-2.569,25.921-0.353,51.787,2.504,77.581
	c0.371,3.349,1.278,6.64,1.963,9.951c2.794,13.517,16.644,24.341,29.661,22.264c3.222-0.514,6.684-1.343,9.969,0.006
	c0.515,0.212,1.045,1.192,0.99,1.762c-0.055,0.575-0.859,1.574-1.28,1.546c-7.103-0.465-14.253-0.692-21.28-1.728
	c-7.505-1.107-12.912-5.795-16.9-12.086c-1.405-2.216-2.375-4.709-3.783-6.923c-1.08-1.698-1.773-5.134-4.456-3.638
	c-2.264,1.262-0.347,4.049,0.162,6.165c3.954,16.449,14.831,24.606,31.25,26.109c4.118,0.377,8.251,0.591,12.369,0.959
	c1.787,0.159,4.686,0.043,4.542,2.088c-0.237,3.355-3.444,1.896-5.379,1.765c-4.118-0.28-8.212-0.937-12.309-1.494
	c-2.605-0.355-5.193-1.132-7.796-1.166c-16.198-0.213-27.141-9.527-36.862-21.019c-0.715-0.845-1.216-1.869-1.894-2.75
	c-0.122-0.158-0.625-0.023-1.442-0.023c1.118,11.435,9.991,17.117,17.19,23.963c7.6,7.228,17.989,6.811,28.992,10.147
	c-3.997,1.108-6.396,0.66-8.707,0.801c-18.003,1.101-36.033,1.899-53.997,3.456c-8.267,0.717-16.503,1.053-24.767,1.031
	c-13.564-0.035-27.053,0.607-40.37,3.428c-1.828,0.388-3.703,0.713-5.562,0.747C581.202,304.532,579.364,303.235,578.957,300.659z
	 M665.759,443.441c-0.084,0.33-0.364,0.721-0.659,0.857c-0.293,0.134-0.845,0.126-1.063-0.067c-1.59-1.409-1.683-5.993-0.074-7.15
	c0.706-0.508,1.536-0.044,1.743,0.847c0.251,1.078,0.324,2.197,0.437,3.024C665.995,441.975,665.942,442.725,665.759,443.441z
	 M709.628,497.291c1.076,1.807,2.992,2.316,4.909,1.541c2.43-0.983,4.716-2.315,7.114-3.387c1.3-0.582,3.088-1.72,3.841,0.244
	c0.437,1.139-0.195,2.925-0.822,4.183c-1.314,2.637-3.865,3.507-6.613,3.503c-9.397-0.014-18.795-0.063-28.189-0.257
	c-4.787-0.099-7.679-3.062-8.803-7.397c-1.031-3.979-1.839-8.128-1.92-12.218c-0.141-7.111,0.228-14.241,0.625-21.349
	c0.295-5.269,0.417-10.478-0.34-15.74c-0.694-4.824-0.837-9.726-1.257-14.59c-1.012-11.747-3.625-22.976-10.155-33.066
	c-2.047-3.163-0.901-4.837,2.885-4.839c1.877-0.001,3.755,0.152,5.631,0.232c2.595,0.11,3.754,1.404,4.583,3.977
	c1.118,3.466,3.029,4.049,5.765,2.739c0.676-0.324,1.433-0.594,1.962-1.091c8.541-8.036,18.398-3.917,27.875-2.946
	c0.841,0.086,1.872,1.344,2.245,2.283c0.602,1.516-0.155,3.003-1.355,3.988c-3.479,2.855-7.181,5.449-10.532,8.441
	c-1.92,1.715-3.477,3.908-4.877,6.091c-0.446,0.696-0.191,2.276,0.333,3.054c0.699,1.036,2.061,0.687,2.919-0.044
	c4.288-3.65,8.53-7.357,12.747-11.091c1.402-1.241,2.547-2.806,4.05-3.889c1.525-1.099,3.034-0.208,3.596,1.277
	c1.175,3.101,1.725,6.322,3.535,9.321c3.04,5.039,2.376,9.952-2.23,14.204c-2.458,2.268-4.474,5.03-6.566,7.665
	c-0.331,0.417-0.271,1.573,0.079,1.985c0.359,0.421,1.434,0.663,1.959,0.437c2.06-0.89,4.006-2.04,6.036-3.005
	c1.058-0.503,2.253-0.479,3.048,0.443c0.792,0.918,0.815,2.247-0.002,3.063c-6.092,6.092-12.185,12.19-18.438,18.114
	c-6.547,6.201-13.289,12.197-19.911,18.32c-1.09,1.008-2.485,2.471-1.585,3.813c1.165,1.738,2.737,0.259,3.706-0.687
	c7.048-6.881,16.648-9.616,24.738-16.437c-0.278,5.33-5.005,6.6-5.777,10.82c5.251-0.746,8.369-4.824,12.471-7.042
	c1.02-0.551,2.199-0.653,3.06,0.222c0.47,0.479,0.822,1.34,0.789,2.007c-0.312,6.407-2.578,11.669-8.731,14.643
	c-2.027,0.98-4.015,2.079-5.894,3.314c-1.872,1.231-3.692,2.588-5.339,4.103C709.351,493.577,708.509,495.415,709.628,497.291z
	 M736.396,512.048c-1.515,1.865-3.281,2.961-5.77,2.905c-1.641-0.037-3.117-1.553-2.415-2.852
	c8.494-15.735,12.869-32.78,16.1-50.203c1.178-6.35,1.171-12.657,0.415-19.075c-1.362-11.564-2.031-23.212-5.309-34.49
	c-1.162-3.998-2.463-7.867-4.792-11.369c-4.352-6.545-9.586-10.658-18.146-11.5c-19.916-1.956-39.741-1.791-59.676-0.775
	c-14.622,0.745-29.288,0.24-43.735-2.823c-3.04-0.644-5.805-1.615-7.776-4.121c-1.391-1.769-3.044-3.682-2.42-6.036
	c0.8-3.021,3.553-1.983,5.674-2.038c16.916-0.432,33.841-0.654,50.747-1.345c9.373-0.383,18.719-1.499,28.067-2.398
	c1.448-0.139,2.897-0.765,4.223-1.416c0.479-0.236,0.899-1.259,0.797-1.825c-0.105-0.585-0.789-1.341-1.371-1.513
	c-1.421-0.419-2.922-0.695-4.404-0.765c-10.89-0.509-21.782-0.962-32.675-1.414c-17.275-0.717-34.552-1.411-51.827-2.139
	c-2.24-0.094-4.539-0.097-6.242-1.972c-1.753-1.93-2.805-6.497-1.775-8.424c1.277-2.392,3.702-2.27,5.916-2.354
	c5.636-0.213,11.276-0.451,16.915-0.448c8.692,0.004,17.175-1.787,25.749-2.782c1.083-0.125,2.239-0.92,1.734-2.327
	c-0.189-0.527-1.119-1.065-1.749-1.114c-13.476-1.055-26.956-2.058-40.439-3.023c-2.246-0.161-4.511-0.046-6.763-0.15
	c-2.923-0.135-4.937-1.669-6.031-4.337c-0.997-2.433-2.017-4.872-2.777-7.384c-3.445-11.394-6.094-14.641,10.304-15.309
	c9.061-0.369,17.996,0.725,26.474,0.273c17.427,0.469,34.304-0.01,51.173-1.391c7.109-0.582,14.291-0.643,21.426-0.437
	c12.093,0.35,24.013-1.114,35.933-2.742c1.853-0.253,3.707-0.661,5.49-1.221c6.437-2.023,11.15-6.609,10.22-13.15
	c-1.744-12.265,0.679-23.545,3.918-35.192c1.863-6.699,1.183-14.203,1.068-21.336c-0.383-23.674,0.43-47.376-1.718-71.013
	c-0.476-5.234-0.278-10.527-0.565-15.782c-0.204-3.746-0.327-7.558-1.142-11.194c-1.755-7.825-4.424-15.224-12.162-19.396
	c-2.461-1.327-3.979-3.445-4.188-6.295c-0.823-11.244-3.47-22.311-3.235-33.656c0.023-1.128-0.012-2.259,0.055-3.384
	c0.484-8.221,5.923-11.719,13.866-8.89c1.965,0.699,2.861,2.319,3.171,4.281c0.703,4.445,1.281,8.913,2.107,13.335
	c0.276,1.477,1.359,2.741,2.996,2.971c2.171,0.306,3.529-1.021,4.362-2.814c1.509-3.247,1.064-6.603,0.298-9.945
	c-0.498-2.172-1.383-4.345-0.166-6.544c0.161-0.291,0.592-0.539,0.931-0.591c0.331-0.051,0.948,0.091,1.018,0.294
	c0.353,1.016,0.836,2.093,0.787,3.126c-0.307,6.501,1.466,12.661,2.991,18.852c0.364,1.475,1.538,2.753,3.177,2.714
	c1.741-0.041,2.696-1.569,2.739-3.06c0.109-3.747-0.028-7.508-0.246-11.252c-0.109-1.863-0.727-3.692-0.916-5.557
	c-0.363-3.578,0.821-5.594,3.428-6.164c3.86-0.844,7.436,0.825,8.029,4.22c0.577,3.306,0.652,6.719,0.723,10.09
	c0.259,12.502,2.445,24.662,6.346,36.521c0.458,1.393,1.146,2.753,1.97,3.961c0.284,0.416,1.309,0.408,1.999,0.424
	c0.235,0.006,0.58-0.467,0.711-0.788c1.356-3.335,0.414-6.694-0.106-9.986c-1.583-10.023-3.422-20.006-4.976-30.032
	c-0.573-3.694-0.832-7.468-0.859-11.208c-0.022-3.128,1.758-4.575,5.134-4.647c1.872-0.04,3.75,0.232,5.625,0.253
	c5.692,0.063,9.253,2.699,10.05,8.457c1.591,11.491,9.821,18.205,17.89,25.02c2.662,2.248,5.999,3.065,9.352,3.672
	c15.94,2.882,32.028,4.839,48.201,3.98c11.294-0.599,22.551-0.281,33.802-0.128c12.778,0.174,25.546,0.878,38.344,0.663
	c13.532-0.228,27.055-0.141,40.555,1.455c7.073,0.837,14.272,0.858,21.412,0.835c18.535-0.058,36.622,3.388,54.781,6.45
	c7.121,1.201,11.335,5.415,14.032,11.646c4.206,9.714,6.691,19.898,8.591,30.296c4.744,25.95,4.267,51.637-3.372,77
	c-4.396,14.597-11.628,27.647-21.895,39.001c-4.726,5.227-9.915,8.734-17.467,8.77c-6.714,0.032-13.253,2.379-20.079,2.612
	c-8.625,0.293-17.227,1.244-25.839,1.91c-8.982,0.694-17.954,1.57-26.948,2.04c-15.099,0.789-29.958-2.222-44.95-3.205
	c-16.157-1.059-32.294-2.095-48.334,1.053c-12.356,2.425-22.203,8.627-29.317,19.249c-2.837,4.236-4.073,8.792-4.97,13.618
	c-2.004,10.794-1.643,21.734-1.984,32.621c-0.235,7.51-0.643,14.96-1.399,22.458c-1.052,10.44-1.115,21.059-0.627,31.556
	c0.725,15.616-1.933,30.645-5.549,45.703c-3.328,13.862-12.734,20.924-25.657,23.818c-7.661,1.716-15.631,2.165-23.492,2.855
	c-9.729,0.855-19.484,1.451-29.236,1.99c-4.204,0.232-7.142,2.019-8.819,5.854c-1.354,3.098-2.687,6.205-3.982,9.328
	C744.894,498.775,741.434,505.847,736.396,512.048z M789.064,646.18c-0.654-1.973,0.463-4.164,2.462-4.112
	c8.636,0.222,17.14-2.288,25.822-1.126c2.217,0.297,4.524,0.371,6.74,0.114c2.567-0.298,5.078-1.073,8.142-1.76
	c-5.72-2.931-8.824-4.163-14.828-3.072c-9.573,1.74-18.637-1.853-28.01-1.692c-2.444,0.042-4.114-1.541-4.756-4.043
	c-0.506-1.973,0.559-4.081,2.395-4.332c1.484-0.203,2.997-0.36,4.489-0.308c11.352,0.397,22.476-1.53,33.645-3.12
	c18.598-2.648,37.199-5.287,55.833-7.663c10.309-1.315,13.67-0.255,13.982,11.567c0.148,5.627,0.6,11.228,0.2,16.869
	c-0.1,1.413,0.543,2.937,1.095,4.309c0.202,0.502,1.14,1.004,1.719,0.978c0.631-0.028,1.54-0.527,1.791-1.069
	c0.615-1.328,1.429-2.859,1.268-4.201c-1.117-9.32-2.186-18.661-3.838-27.894c-0.979-5.474-2.352-6.048-7.708-5.935
	c-7.894,0.167-15.792,0.481-23.684,0.382c-10.213-0.128-20.247,1.41-30.279,2.876c-14.973,2.188-30.008,1.802-45.047,1.585
	c-1.485-0.021-2.999-0.286-4.439-0.666c-2.669-0.705-3.946-3.444-3.63-7.389c0.205-2.565,1.516-4.253,4.066-4.639
	c5.573-0.843,11.152-2.04,16.756-2.215c14.007-0.438,27.488-4.165,41.255-6.061c3.282-0.452,6.503-1.47,9.118-3.741
	c-10.421,0.364-20.843,0.72-31.264,1.093c-9.749,0.349-19.498,0.716-30.837,1.133c2.782-3.513,5.328-4.817,7.774-6.166
	c10.514-5.8,18.313-13.784,23.375-25.001c9.517-21.094,27.213-31.083,49.484-34.042c0.372-0.05,0.749-0.065,1.124-0.096
	c13.327-1.093,14.596-0.76,23.045,9.75c6.391,7.951,11.312,16.843,14.848,26.456c2.595,7.056,5.172,14.118,7.823,21.154
	c3.461,9.188,5.767,18.612,6.994,28.386c0.933,7.436,2.793,14.755,4.212,22.132c2.563,13.324,2.905,26.894,4.428,40.334
	c0.296,2.613,0.147,5.291,0.592,7.872c2.479,14.372,0.035,28.478-2.229,42.578c-1.021,6.355-3.669,12.214-6.395,18.017
	c-3.511,7.473-7.55,14.672-10.249,22.562c-2.502,7.313-7.943,12.613-14.121,17.16c-14.152,10.415-30.274,16.573-46.838,21.748
	c-5.08,1.587-10.407,1.363-15.678,1.358c-16.598-0.018-13.722-0.817-11.854-14.498c0.754-5.524,2.573-6.937,8.302-7.201
	c8.271-0.381,16.548-0.543,24.698-2.208c1.105-0.226,2.209-0.467,3.296-0.767c1.065-0.293,2.234-0.711,2.282-1.979
	c0.053-1.368-1.113-1.832-2.256-1.977c-8.204-1.042-16.426-1.953-24.613-3.111c-2.947-0.417-5.838-1.316-8.708-2.157
	c-1.562-0.458-2.433-1.774-2.485-3.381c-0.054-1.682,1.084-2.882,2.461-3.468c2.057-0.874,4.239-1.516,6.422-2.022
	c5.466-1.265,10.937-2.546,16.596-2.212c0-0.844,0.117-1.245-0.031-1.479c-0.171-0.272-0.557-0.527-0.878-0.567
	c-6.339-0.784-12.677-1.576-19.027-2.266c-1.479-0.161-3.019,0.219-4.492,0.034c-1.622-0.204-2.648-1.383-2.885-2.99
	c-0.257-1.733,0.739-3.122,2.297-3.329c5.948-0.788,11.996-2.155,17.88-1.693c5.014,0.394,9.701-0.066,14.459-1.057
	c9.28-1.933,18.707-1.656,28.092-2.02c2.629-0.102,5.342,0.402,7.882-0.08c4.829-0.917,10.558,2.181,14.439-3.088
	c-4.392-3.544-9.861-3.289-14.94-3.738c-8.604-0.761-17.293-0.522-25.916-1.13c-11.484-0.809-12.848-2.572-12.121-13.926
	c0.072-1.126,0.057-2.268,0.251-3.373c0.595-3.387,2.447-5.37,5.984-5.74c4.858-0.508,9.767-0.53,14.629-1.006
	c3.344-0.328,6.675-0.952,9.951-1.711c0.925-0.214,2.246-1.312,2.318-2.102c0.171-1.893-1.572-2.352-3.064-2.411
	c-6.764-0.272-13.545-0.251-20.297-0.692c-5.938-0.387-7.564-1.928-7.592-7.523c-0.063-12.617-2.034-15.444,14.29-16.733
	c2.149-0.17,4.623,0.62,6.291-1.502c0.924-1.174-2.117-2.66-6.345-2.986c-5.511-0.425-11.401,0.748-15.744-4.275
	c-0.683-0.79-2.058,0.067-2.935,0.846c-1.109,0.986-2.122,2.268-3.43,2.808c-3.475,1.433-7.374,3.166-10.82,1.002
	c-4.011-2.52-1.749-6.85-1.494-10.403c0.158-2.2,1.058-4.367,1.766-6.501c0.9-2.713,2.906-4.327,5.62-5.05
	c3.013-0.803,5.965-1.239,8.101,1.871c0.664,0.967,1.819,2.049,2.582,0.639c3.371-6.222,9.412-5.218,14.863-5.746
	c2.613-0.253,5.27-0.018,7.891-0.214c1.856-0.139,3.711-0.536,5.511-1.022c0.576-0.156,1.27-0.917,1.364-1.491
	c0.08-0.489-0.526-1.469-1-1.598c-1.437-0.39-2.961-0.665-4.446-0.645c-15.771,0.216-31.55-1.002-47.314,1.047
	c-11.92,1.549-24.018,1.089-35.979,2.745C793.05,653.077,790.734,651.222,789.064,646.18z M825.873,719.207
	c0.358-0.034,0.723-0.005,1.408-0.005c0.393,0.045,1.129,0.047,1.818,0.23c1.144,0.303,1.89,1.113,1.804,2.305
	c-0.048,0.664-0.427,1.41-0.881,1.917c-1.027,1.144-2.448,1.497-3.932,1.331c-1.879-0.21-3.819-0.841-3.962-2.968
	C821.967,719.633,824.039,719.38,825.873,719.207z M817.165,707.535c-0.541-0.4-1-1.19-1.079-1.851
	c-0.074-0.622,0.258-1.776,0.656-1.898c4.25-1.302,8.457-3.025,13.045-2.452c1.69,0.211,2.564,1.463,2.759,3.069
	c0.203,1.676-0.591,3.083-2.182,3.446c-2.161,0.493-4.421,0.55-5.429,0.661C821.488,708.375,819.144,708.997,817.165,707.535z
	 M825.639,734.218c0.172-1.009,0.768-2.643,1.41-2.767c6.708-1.29,11.263-4.416,12.855-11.654c0.612-2.782,8.205-3.814,11.139-1.958
	c0.816,0.516,1.673,1.871,1.588,2.753c-0.429,4.44-0.974,8.889-1.865,13.257c-0.494,2.424-2.689,3.544-5.047,3.759
	c-3.342,0.305-6.707,0.361-11.401,0.588c-1.274-0.092-3.917-0.041-6.443-0.561C826.448,737.341,825.353,735.894,825.639,734.218z
	 M840.32,694.989c-1.932-4.289-0.772-6.403,3.036-7.694c1.052-0.357,2.153-0.579,3.24-0.82c7.452-1.649,9.516,0.058,9.266,8.449
	c-0.106,1.065-0.157,2.937-0.497,4.755c-1.037,5.537-3.693,7.566-9.312,7.286c-3.736-0.186-5.322-1.697-5.127-5.648
	C841.034,699.126,841.353,697.282,840.32,694.989z M801.696,664.271c10.387-2.393,20.844-4.437,31.504-5.358
	c2.057-0.178,3.757,0.846,3.926,3.018c0.16,2.047-1.182,3.45-3.125,4.066c-1.051,0.333-2.179,0.588-3.273,0.593
	c-9.622,0.045-19.245,0.026-28.868,0.026C801.805,665.835,801.75,665.053,801.696,664.271z M808.026,679.486
	c-1.538-0.047-3.106-0.733-3.063-2.462c0.019-0.779,1.265-2.039,2.124-2.206c8.01-1.553,16.049-2.97,24.1-4.296
	c2.082-0.343,3.6,0.81,4.111,2.864c0.527,2.116-0.952,5.281-2.794,5.48c-4.789,0.518-9.614,0.699-14.425,1.014
	c-0.005-0.121-0.01-0.242-0.015-0.363C814.717,679.518,811.369,679.588,808.026,679.486z M813.611,696.926
	c-1.487-0.603-2.289-1.844-2.425-3.451c-0.15-1.774,0.893-3.07,2.417-3.23c6.298-0.658,12.62-1.101,18.94-1.5
	c0.511-0.032,1.459,0.802,1.54,1.335c0.152,1.012,0.104,2.256-0.383,3.105c-0.506,0.883-1.539,1.821-2.496,2.029
	c-4.735,1.028-9.521,1.823-13.879,2.625C815.757,697.467,814.627,697.338,813.611,696.926z M643.464,859.403
	c14.403-3.068,29.14-2.786,43.711-4.183c3.595-0.345,6.67,1.131,9.433,3.12c11.605,8.355,22.516,17.517,31.987,28.29
	c10.249,11.657,18.154,24.83,24.755,38.803c2.396,5.073,4.135,10.371,5.668,15.84c3.87,13.814,9.472,26.911,21.078,36.337
	c5.368,4.359,11.408,7.28,18.477,7.444c19.153,0.445,38.311,1.096,57.443-0.534c7.212-0.614,8.388,0.366,8.985,7.816
	c0.385,4.798-0.442,5.496-5.738,5.864c-17.217,1.198-34.424,2.547-51.641,3.741c-6.368,0.442-12.752,0.753-19.133,0.882
	c-10.139,0.204-20.283,0.163-30.424,0.302c-9.471,0.13-18.779-0.84-27.715-4.132c-12.34-4.545-24.628-9.23-36.277-15.409
	c-12.569-6.667-22.315-15.715-29.083-28.736c-8.284-15.937-16.533-32.054-28.585-45.77c-7.964-9.065-16.248-17.682-26.235-24.541
	c-2.758-1.893-5.5-3.763-9.049-3.581C612.715,868.836,627.441,862.817,643.464,859.403z M499.335,1040.504
	c0.801-8.183,1.842-16.303,6.168-24.227c5.381,2.663,10.324,5.238,15.381,7.566c3.736,1.72,6.589,1.268,6.741-0.713
	c0.221-2.873-2.037-3.858-3.987-4.775c-4.417-2.079-9.021-3.764-13.421-5.875c-2.949-1.414-3.565-3.475-2.565-6.561
	c0.836-2.576,3.216-3.474,5.267-1.9c3.561,2.734,6.273,6.565,10.567,8.336c1.34,0.553,2.845,1.01,4.261,0.977
	c1.21-0.028,1.898-1.437,1.417-2.457c-0.61-1.293-1.6-2.578-2.754-3.411c-3.349-2.415-6.981-4.446-10.28-6.923
	c-3.649-2.739-4.319-4.445-2.329-8.762c3.928-8.523,7.898-17.085,12.666-25.15c9.422-15.938,21.792-29.661,34.191-43.295
	c4.519-4.97,4.72-4.817,11.532-1.723c1.705,0.774,3.321,1.88,5.29,1.488c0.624-0.124,1.41-0.681,1.632-1.236
	c0.232-0.584,0.11-1.581-0.272-2.077c-0.664-0.863-1.583-1.58-2.511-2.178c-1.793-1.155-4.658-1.349-4.542-4.25
	c0.11-2.742,4.985-7.609,7.507-7.674c1.033-0.027,2.287,0.367,3.095,1.007c5.044,3.991,9.626,8.5,12.81,14.12
	c4.192,7.399,4.7,14.896-0.213,22.35c-3.942,5.98-8.042,11.753-13.488,16.542c-6.485,5.703-12.866,11.546-18.985,17.637
	c-8.725,8.685-13.806,19.623-17.862,31.018c-3.161,8.879-4.637,18.187-6.171,27.47c-0.604,3.657-0.668,7.505-2.868,10.81
	c-1.373,2.064-4.113,2.707-5.676,0.851c-1.668-1.979-2.971-4.262-4.586-6.293c-0.269-0.338-1.485-0.314-1.952,0.002
	c-0.518,0.35-1.006,1.261-0.944,1.871c0.416,4.157,3.38,6.501,6.463,8.738c1.259,0.914,2.359,2.068,1.472,3.703
	c-0.976,1.799-2.787,2.704-4.737,2.301c-1.79-0.37-3.534-1.221-5.151-2.124c-6.231-3.481-12.398-7.078-18.601-10.609
	C500.105,1044.057,499.129,1042.607,499.335,1040.504z M1074.337,1045.191c3.023,7.49,4.202,15.402,2.801,23.271
	c-3.442,19.333-11.042,36.622-26.255,49.884c-4.32,3.766-9.297,6.346-14.25,9.036c-2.417,1.313-4.983,1.853-7.615,0.978
	c-4.586-1.526-8.987-0.4-13.281,0.942c-5.461,1.707-11.025,2.324-16.682,2.451c-12.797,0.286-25.466,1.77-38.169,3.324
	c-13.04,1.595-26.231,1.978-39.363,2.757c-2.989,0.177-6.097,0.212-9.001-0.399c-13.372-2.813-26.999-1.638-40.462-2.868
	c-7.169-0.655-14.259,0.522-21.386,0.674c-14.664,0.314-29.334,0.287-44.002,0.412c-15.793,0.134-31.566,0.175-47.327,1.828
	c-9.321,0.978-18.787,0.712-28.189,0.75c-13.166,0.053-26.332-0.122-39.498-0.219c-10.522-0.078-21.016,0.07-31.509-1.58
	c-7.409-1.165-15.019-0.706-22.505,0.319c-4.5,0.616-8.95,0.626-13.485,0.114c-10.83-1.224-21.74-1.818-32.532-3.295
	c-14.488-1.984-29.044-3.784-42.953-8.764c-9.989-3.575-19.355-8.272-27.9-14.57c-5.752-4.24-11.492-8.496-17.216-12.773
	c-2.609-1.95-3.506-3.845,0.094-5.835c1.096-0.605,0.93-2.051,0.245-2.97c-1.784-2.393-3.866-4.573-5.54-7.034
	c-0.864-1.269-0.786-3.085,0.646-4.02c0.763-0.497,2.266-0.548,3.105-0.132c7.072,3.503,14.12,7.063,21.07,10.801
	c6.985,3.758,14.606,5.559,21.763,8.167c1.336-1.812,0.349-2.585-0.534-3.038c-10.092-5.176-18.765-12.456-28.06-18.811
	c-4.655-3.183-9.37-6.277-14.02-9.466c-1.23-0.844-2.452-1.776-3.434-2.883c-0.761-0.858-0.77-2.13,0.093-3.005
	c0.46-0.466,1.487-0.947,1.956-0.739c3.429,1.516,6.914,2.979,10.132,4.88c10.822,6.395,23.093,8.942,34.697,13.245
	c1.674,0.621,3.691,0.34,5.552,0.402c0.304,0.01,0.841-0.328,0.89-0.578c0.126-0.649,0.319-1.71-0.006-1.956
	c-3.884-2.936-7.871-5.737-11.804-8.608c-2.922-2.133-3.202-3.493-0.662-6.443c2.478-2.879,4.885-5.776,6.146-9.368
	c1.804-5.134,5.686-6.493,10.609-6.583c3.365-0.061,6.732-0.465,10.077-0.881c0.515-0.064,0.92-1.017,1.376-1.559
	c-0.565-0.387-1.157-1.141-1.692-1.103c-3.736,0.265-7.453,0.852-11.19,1.003c-1.855,0.075-3.714-0.583-4.618-2.589
	c-1.017-2.257-0.196-5.542,1.783-7.164c2.126-1.742,4.691-2.197,7.294-2.73c16.193-3.318,32.434-6.448,48.517-10.242
	c5.838-1.377,12.685-1.076,16.819-6.905c-5.825-2.256-11.771-0.73-17.629-0.377c-14.25,0.859-28.441,2.362-42.52,4.833
	c-2.183,0.384-4.5,0.384-6.707,0.135c-2.072-0.233-3.544-1.746-3.104-3.908c1.688-8.299,6.038-15.32,11.275-21.774
	c2.536-3.125,6.646-3.457,10.274-4.153c11.831-2.268,23.382-5.577,34.916-8.961c2.505-0.735,4.941-1.747,7.33-2.808
	c0.473-0.21,0.93-1.333,0.773-1.842c-0.159-0.514-1.088-1.105-1.687-1.113c-2.997-0.039-6.019-0.106-8.99,0.224
	c-5.975,0.664-11.906,1.731-17.887,2.314c-2.328,0.227-5.461,2.931-6.917-0.342c-0.915-2.056,2.291-3.449,3.749-5.07
	c5.949-6.616,13.179-11.025,21.886-13.055c2.179-0.508,4.294-1.419,6.317-2.396c0.891-0.431,2.032-1.451,2.092-2.274
	c0.146-2.022-1.703-2.046-3.147-2.229c-2.571-0.325-5.266,0.579-8.439-1.152c-0.932-4.179,2.235-8.107,2.393-12.484
	c0.165-4.559,0.576-9.084-1.404-13.297c-1.902-4.045-4.193-7.907-6.228-11.689c1.212-3.46,4.888-3.763,6.702-6.132
	c0.393-0.513,0.635-1.46,0.431-2.019c-0.194-0.53-1.142-1.226-1.624-1.135c-2.878,0.542-5.717,1.291-9.184,2.116
	c0.774-3.376,4.47-4.372,4.786-7.402c0.125-1.201,0.005-2.295-1.039-2.965c-0.579-0.372-1.364-0.463-2.073-0.574
	c-0.345-0.054-0.739,0.106-1.091,0.226c-2.744,0.942-4.58,4.084-8.033,3.311c-1.462-4.778,3.169-6.169,5.163-8.944
	c1.493-2.078,3.81-3.564,5.76-5.313c4.702,6.334,10.549,11.591,16.217,17c5.214,4.976,9.787,10.39,13.169,16.788
	c1.052,1.99,2.194,3.97,3.563,5.747c9.713,12.609,16.037,27.161,23.55,41.021c6.614,12.2,15.371,22.046,27.83,28.64
	c11.983,6.341,24.063,12.304,36.907,16.781c8.572,2.987,17.289,5.118,26.177,6.698c2.21,0.393,4.559,0.964,6.703,0.606
	c13.455-2.249,26.978,0.972,40.497-0.957c13.386-1.909,26.953-2.521,40.421-3.9c3.717-0.38,7.366-1.446,11.036-2.24
	c2.571-0.556,5.098-1.422,7.695-1.74c10.031-1.228,12.398,1.011,12.157,10.716c-0.168,6.767,0.027,13.544-0.224,20.306
	c-0.191,5.153-1.892,6.724-6.93,6.757c-8.272,0.055-16.546-0.058-24.819-0.103c-14.293-0.078-28.537,0.548-42.818,1.493
	c-18.371,1.216-36.842,0.985-55.271,1.22c-7.155,0.091-14.252,0.703-21.377,1.198c-11.993,0.832-24.051,0.673-36.076,1.083
	c-14.273,0.487-28.538,1.196-42.81,1.681c-5.259,0.179-10.531-0.03-15.797-0.015c-13.41,0.037-22.88,6.65-28.728,18.254
	c-4.749,9.423-5.416,19.505-1.977,29.602c3.134,9.204,9.926,15.14,18.793,18.142c7.451,2.523,15.267,3.943,23.27,1.401
	c5.815-1.848,11.939-1.175,17.941-1.24c18.052-0.196,36.13,0.264,54.151-0.557c38.703-1.764,77.445-0.912,116.132-2.132
	c39.108-1.234,78.227-0.936,117.314-2.219c15.395-0.506,30.771-1.561,47.817-1.435c-12.849,4.325-24.816,4.035-36.423,5.814
	c-9.993,1.532-20.197,1.669-30.299,2.523c-10.11,0.854-20.211,1.828-30.313,2.772c-0.74,0.069-1.55,0.165-2.17,0.522
	c-0.557,0.321-1.218,1.008-1.239,1.555c-0.02,0.514,0.683,1.455,1.165,1.523c2.963,0.422,5.951,0.883,8.934,0.904
	c22.575,0.156,45.119-0.679,67.609-2.62c8.23-0.71,16.433-1.811,24.616-2.962c3.815-0.537,7.401-1.639,7.844-6.589
	c0.243-2.713,2.455-3.59,4.889-3.67c4.512-0.148,9.026-0.226,13.539-0.272c6.829-0.07,13.473-1.042,19.865-3.587
	c11.211-4.463,17.736-12.355,18.033-24.694c0.09-3.739-0.421-7.49-0.562-11.239c-0.164-4.382,0.047-7.325,5.546-8.068
	c1.094-0.148,2.23-0.48,3.173-1.026c0.478-0.278,0.642-1.208,0.791-1.877c0.047-0.211-0.364-0.681-0.652-0.781
	c-1.048-0.363-2.153-0.938-3.199-0.868c-9.382,0.623-15.026-5.884-21.329-11.101c-0.434-0.359-0.626-1.422-0.442-2.003
	c0.19-0.599,0.905-1.291,1.516-1.445c1.44-0.364,2.95-0.497,4.44-0.609c8.239-0.624,16.523-0.333,24.729-1.849
	C1070.352,1039.137,1072.536,1040.727,1074.337,1045.191z M870.859,1079.604c3.371-10.969,3.341-22.03,2.547-33.352
	c-0.544-7.767,0.746-15.705,1.636-23.519c1.453-12.753,2.014-25.445,0.276-38.24c-0.704-5.181-0.66-10.539-0.305-15.771
	c0.921-13.554-0.298-27.049-0.59-40.57c-0.146-6.76-0.088-13.534,0.165-20.291c0.418-11.213,7.924-20.885,18.706-23.983
	c3.576-1.028,7.362-1.699,11.074-1.814c17.283-0.535,34.57-0.966,51.847,0.442c3.332,0.272,6.73-0.351,10.101-0.444
	c4.879-0.134,9.767-0.324,14.642-0.195c6.328,0.167,10.438,3.063,12.15,9.577c2.301,8.751,4.23,17.573,4.796,26.568
	c0.497,7.884,1.181,15.732,1.934,23.592c0.822,8.586,1.473,17.184,1.229,25.884c-0.23,8.226,1.092,16.484,1.434,24.741
	c0.249,6.005-0.363,12.058,0.078,18.041c0.739,10.023,1.445,19.949,0.837,30.078c-0.345,5.744,1.659,11.809,1.812,17.837
	c0.06,2.344,1.109,4.342,3.193,5.654c3.236,2.037,6.757,3.236,10.566,3.544c0.289,0.023,0.867-0.347,0.869-0.539
	c0.007-0.65,0.035-1.666-0.339-1.891c-1.911-1.157-3.912-2.184-5.946-3.113c-2.274-1.039-3.299-2.891-3.919-5.171
	c-1.842-6.765,0.413-8.946,7.507-7.63c8.604,1.597,14.993,6.549,20.701,12.778c7.795,8.507,6.551,28.328-9.917,32.728
	c-6.524,1.743-13.267,2.612-20.084,2.687c-10.155,0.112-20.31,0.302-30.461,0.598c-23.299,0.68-46.621,1.002-69.887,2.296
	c-23.669,1.316-47.436,0.651-71.005,2.633c-20.256,1.704-40.555,0.875-60.8,2.984c-15.277,1.591-30.822,0.403-46.226,1.012
	c-26.278,1.037-52.538,2.533-78.807,3.794c-7.875,0.378-15.627,0.697-23.306-2.447c-4.774-1.955-10.318-1.932-15.376-3.313
	c-8.688-2.372-11.583-6.113-12.583-15.061c-0.767-6.866-0.391-13.51,3.241-19.66c3.591-6.079,7.981-10.105,15.745-11.137
	c9.016-1.199,17.988-1.026,26.974-1.536c27.024-1.532,54.139-1.21,81.113-2.724c29.317-1.646,58.639-0.876,87.899-2.453
	c14.983-0.807,30.069-0.689,44.959-3.131c5.201-0.853,7.238,0.431,7.994,5.332c1.031,6.682,1.614,13.433,2.431,20.15
	C869.967,1076.26,869.22,1078.182,870.859,1079.604z M1015.696,925.839c1.626,0.887,3.381,1.541,5.097,2.262
	c1.77,0.743,3.735,1.627,2.819,3.938c-0.883,2.224-3.091,1.531-4.881,1.252c-1.841-0.286-3.705-0.586-5.471-1.152
	c-1.465-0.468-2.548-1.618-2.803-3.21c-0.353-2.21-0.491-4.453-0.826-6.666c-1.364-8.994,0.463-9.255,10.23-9.475
	c1.328,0.187,3.938,0.417,6.484,0.955c2.187,0.462,2.905,3.425,1.645,5.526c-1.24,2.068-2.979,3.404-5.314,3.696
	c-2.202,0.275-4.448,0.181-6.67,0.319c-0.298,0.018-0.821,0.458-0.808,0.677C1015.237,924.614,1015.293,925.619,1015.696,925.839z
	 M1020.68,994.246c4.973,0.231,6.342,1.483,6.829,6.788c0.232,2.539,0.04,5.117,0.04,8.506c-4.808,0.587-8.845,1.199-12.905,1.528
	c-2.344,0.19-4.339-2.039-3.971-4.302c0.295-1.813,1.021-3.551,1.453-5.347C1013.755,994.648,1014.552,993.962,1020.68,994.246z
	 M1013.662,979.749c3.605-2.165,6.823-1.486,9.973-1.053c0.544,0.075,1.308,0.791,1.421,1.327c0.275,1.314-0.757,2.018-1.847,1.979
	C1020.108,981.891,1016.794,982.384,1013.662,979.749z M1043.785,1015.53c2.346-0.414,4.466,0.309,6.474,1.405
	c1.613,0.881,3.437,1.575,4.068,3.576c0.441,1.398-2.12,2.274-5.748,1.925c-4.102-0.394-8.193-1.006-12.303-1.168
	c-2.172-0.085-4.627,0.16-5.63,2.75c-0.584,1.51,1.573,3.214,4.898,3.372c4.493,0.214,9.004,0.053,13.507,0.053
	c0.001,0.142,0.001,0.284,0.002,0.426c3.378-0.148,6.757-0.256,10.132-0.455c3.428-0.203,5.693,1.626,7.398,4.267
	c0.558,0.866,0.898,2.079,0.824,3.095c-0.095,1.287-1.358,1.769-2.503,1.764c-2.996-0.011-6.059,0.194-8.975-0.341
	c-11.521-2.109-23.139-2.354-34.788-2.271c-1.127,0.008-2.256,0.069-3.38,0.015c-6.322-0.301-8.737-3.531-7.208-9.562
	c0.72-2.84,2.458-4.821,5.373-5.003C1025.315,1018.796,1034.547,1017.163,1043.785,1015.53z M1040.029,938.133
	c1.018-2.418,2.213-4.761,3.277-7.161c0.455-1.026,0.678-2.161,1.183-3.157c2.932-5.783,8.32-8.917,13.558-7.955
	c5.301,0.973,9.595,6.998,9.699,14.693c-0.346,6.339-3.033,13.046-8.365,18.008c-7.786,7.247-16.87,12.455-27.795,13.68
	c-4.464,0.501-8.889,1.344-13.35,1.882c-3.638,0.439-5.588-1.281-5.976-4.998c-0.077-0.745-0.131-1.496-0.134-2.245
	c-0.028-6.507,1.058-9.422,8.069-9.146C1030.216,952.127,1036.325,946.929,1040.029,938.133z M1034.243,902.464
	c-0.088,0.663-0.664,1.284-1.094,1.869c-0.209,0.284-0.566,0.594-0.89,0.639c-7.43,1.032-14.898,1.181-22.37,0.711
	c-1.252-0.079-1.787-1.523-1.511-2.615c0.244-0.964,0.948-2.17,1.782-2.562c3.267-1.535,6.654,0.167,9.999-0.538
	c4.109,0,8.222-0.098,12.325,0.064C1033.613,900.078,1034.407,901.23,1034.243,902.464z M1129.203,208.477
	c0.117,11.981-3.037,23.049-9.202,33.267c-7.588,12.579-16.482,24.228-25.354,35.914c-4.22,5.56-9.617,8.082-16.13,9.126
	c-3.313,0.531-6.833,0.18-9.817,2.115c-0.556,0.361-1.182,1.204-1.125,1.758c0.06,0.58,0.819,1.396,1.42,1.557
	c2.519,0.675,5.07,1.322,7.651,1.635c2.603,0.316,5.264,0.119,7.884,0.339c3.75,0.314,4.997,3.177,2.607,6.329
	c-4.129,5.445-8.884,10.421-15.385,12.857c-7.01,2.627-14.162,4.608-21.77,5.514c-20.628,2.456-41.305,2.384-61.967,1.989
	c-13.25-0.253-26.234,1.527-39.304,2.87c-5.229,0.537-10.441,1.246-15.673,1.733c-4.091,0.381-8.03,1.053-11.758,3.451
	c0.754,0.586,1.036,0.998,1.334,1.01c12.367,0.475,24.561,3.012,37.031,2.608c13.15-0.426,26.317-0.125,39.421,1.584
	c3.692,0.482,7.567,0.527,11.242-0.015c10.867-1.601,21.8-0.545,32.68-1.217c1.099-0.068,2.231,0.217,3.332,0.425
	c1.303,0.246,2.176,2.44,1.54,3.661c-1.665,3.193-4.231,5.31-7.757,5.952c-2.202,0.4-4.489,0.402-6.741,0.441
	c-11.282,0.196-22.565,0.439-33.848,0.47c-5.291,0.015-10.565,0.127-15.673,1.505c-2.572,0.693-7.316-0.693-7.091,3.117
	c0.191,3.228,4.898,2.615,7.69,2.996c6.321,0.862,12.705,1.271,19.066,1.828c1.497,0.131,3.035-0.049,4.506,0.199
	c3.435,0.579,7.593-0.655,9.649,3.62c-2.586,3.257-6.438,3.67-10.066,3.95c-7.495,0.58-15.027,0.677-22.54,1.028
	c-2.622,0.122-5.255,0.283-7.848,0.669c-1.426,0.212-2.776,0.927-4.1,1.394c-0.271,3.096,2.097,2.888,3.612,3.308
	c2.892,0.802,5.901,1.178,8.794,1.976c0.976,0.269,2.19,1.133,2.475,1.996c0.241,0.728-0.443,2.225-1.17,2.73
	c-3.734,2.593-7.075,5.538-10.008,9.038c-1.588,1.895-4.125,1.776-6.045,0.044c-6.264-5.648-10.173-12.976-14.17-20.217
	c-1.086-1.967-1.828-4.124-2.718-6.198c-4.518-10.528-13.019-15.413-23.963-15.75c-13.526-0.417-27.062-0.088-40.448,2.508
	c-12.6,2.444-15.211,4.765-16.599,17.36c-0.655,5.94-0.61,12.028-0.172,17.996c0.389,5.294,0.162,10.483-0.22,15.744
	c-1.318,18.113,0.703,36.062,3.614,53.875c1.283,7.851,4.743,14.988,10.951,20.527c3.768,3.362,7.735,5.762,12.945,6.111
	c7.198,0.483,14.037,2.765,20.587,5.578c11.432,4.911,20.11,12.976,25.993,24.041c4.4,8.277,8.047,16.927,13.64,24.624
	c2.286,3.146,2.966,7.695,3.647,11.729c2.582,15.285,7.515,29.829,12.754,44.36c5.479,15.197,10.346,30.629,15.014,46.099
	c1.723,5.712,2.086,11.83,3.12,17.754c5.065,29.023,5.657,58.351,5.267,87.669c-0.194,14.631-2.275,29.229-3.237,43.859
	c-0.642,9.749-1.155,19.531-1.118,29.296c0.056,14.515,4.956,27.122,15.584,37.45c5.924,5.757,11.148,12.228,16.848,18.226
	c4.829,5.081,7.187,11.408,9.405,17.801c0.593,1.708,0.558,3.71,0.466,5.56c-0.102,2.034-1.325,4.059-3.361,3.852
	c-9.015-0.917-17.932,0.865-26.902,0.58c-0.496-0.016-1.277-0.886-1.352-1.437c-0.07-0.51,0.528-1.503,1.009-1.635
	c5.468-1.494,10.962-2.513,16.689-1.279c2.138,0.46,4.533,0.781,6.467-0.809c0.378-0.31,0.552-1.606,0.283-1.847
	c-2.347-2.099-5.393-2.633-8.334-2.988c-4.475-0.539-9-0.651-13.504-0.944c-0.751-0.049-1.507-0.055-2.251-0.152
	c-1.086-0.14-2.404-0.293-2.584-1.553c-0.202-1.413,1.113-1.68,2.186-1.803c4.084-0.467,8.33,0.275,12.218-1.563
	c0.57-0.269,1.172-1.077,1.213-1.673c0.036-0.527-0.573-1.422-1.096-1.614c-5.369-1.974-11.006-2.417-16.653-2.529
	c-14.284-0.283-28.575-0.304-42.855-0.719c-9.763-0.284-19.506-1.187-29.267-1.577c-14.755-0.59-29.276,1.667-43.671,4.474
	c-12.332,2.405-20.789,12.802-21.67,25.379c-0.447,6.372-1.142,12.726-1.596,19.096c-0.538,7.53-0.029,15.035,0.822,22.523
	c0.98,8.634,0.815,17.278,0.007,25.905c-0.459,4.911-1.534,5.978-6.293,6.003c-16.542,0.087-33.085,0.033-49.715-0.707
	c2.849-0.089,5.699-0.275,8.548-0.251c10.584,0.092,20.848-2.702,31.342-3.432c1.077-0.075,2.298-0.74,2.133-2.06
	c-0.156-1.249-1.443-1.517-2.526-1.637c-1.493-0.166-3-0.242-4.503-0.275c-10.157-0.226-20.265-0.852-30.369-2.124
	c-7.06-0.889-14.272-0.517-21.403-0.92c-2.429-0.137-5.315,0.792-7.136-1.972c1.372-1.894,3.326-1.092,5.008-1.121
	c11.653-0.201,23.303-0.071,34.857-2.226c4.399-0.821,8.995-0.552,13.492-0.896c2.228-0.171,4.456-0.515,6.641-0.979
	c0.577-0.123,1.273-0.922,1.399-1.519c0.091-0.432-0.568-1.378-1.063-1.526c-5.805-1.73-11.761-2.373-17.813-2.477
	c-13.161-0.227-26.321-0.548-39.479-0.888c-3.757-0.097-7.532-0.227-11.118-1.595c-1.836-0.7-3.346-1.794-3.902-3.75
	c-0.445-1.569-0.106-3.159,1.582-3.661c1.385-0.411,2.997-0.498,4.426-0.252c14.199,2.446,28.504,1.707,42.788,1.518
	c9.402-0.125,18.803-0.348,28.201-0.636c1.838-0.057,3.666-0.59,5.483-0.974c0.246-0.052,0.623-0.594,0.56-0.784
	c-0.208-0.628-0.518-1.664-0.914-1.724c-7.795-1.183-15.577-2.761-23.424-3.226c-12.749-0.756-25.538-0.523-38.278-1.996
	c-5.931-0.685-12.044-0.481-18.008,0.052c-4.617,0.412-7.122-1.33-8.607-5.354c-0.777-2.108-1.759-4.157-2.339-6.315
	c-0.47-1.749,0.796-3.029,2.32-3.226c2.97-0.382,5.998-0.489,8.998-0.439c16.969,0.285,33.755-2.289,50.647-3.188
	c1.818-0.097,3.608-0.835,5.391-1.345c0.269-0.077,0.667-0.644,0.596-0.8c-0.257-0.571-0.653-1.492-1.056-1.524
	c-11.991-0.936-23.979-1.95-35.988-2.587c-9.388-0.498-18.802-0.452-28.201-0.777c-2.598-0.089-5.257-0.37-7.746-1.069
	c-1.83-0.514-3.208-2.183-3.263-4.213c-0.067-2.492,1.966-2.824,3.877-2.995c18.662-1.666,37.326-3.316,57.459-5.101
	c-9.081-2.215-27.691-3.865-34.008-3.253c-10.93,1.059-21.727-1.073-32.6-1.456c-3.999-0.14-3.979-0.686-10.634-8.607
	c10.931-2.637,21.726-0.931,32.331-1.746c10.823-0.831,21.397-3.784,32.401-3.283c-12.201-2.701-24.391-4.277-36.784-3.999
	c-6.391,0.143-12.79,0.01-19.185-0.059c-4.14-0.044-8.271-0.365-11.938,2.299c-0.756,0.549-2.236,0.624-3.15,0.288
	c-0.928-0.342-1.819-1.341-2.271-2.272c-0.544-1.122,0.194-2.231,1.268-2.664c1.372-0.553,2.852-0.988,4.318-1.128
	c3.367-0.321,6.756-0.601,10.135-0.603c20.342-0.009,40.441-2.652,60.564-5.277c0.15-2.563-1.885-2.19-3.105-2.274
	c-13.478-0.936-26.945-2.642-40.485-0.664c-1.812,0.265-3.742-0.173-5.607-0.384c-8.258-0.934-16.457-0.97-24.731,0.301
	c-5.17,0.794-10.499,0.662-15.758,0.701c-1.818,0.014-3.721-0.509-5.428-1.183c-0.87-0.344-1.674-1.471-2.003-2.418
	c-0.445-1.283,0.714-1.991,1.71-2.528c3.429-1.848,7.264-2.024,10.981-2.189c13.518-0.598,26.992-2.343,40.554-1.765
	c14.705,0.627,28.144-3.854,41.328-9.729c6.446-2.872,11.783-6.789,14.487-13.44c2.2-5.412,6.137-7.177,11.607-6.694
	c20.503,1.811,39.429-3.873,57.856-12.097c8.639-3.855,16.568-8.942,24.2-14.361c7.496-5.323,12.325-13.049,15.931-21.507
	c2.209-5.181,4.509-10.333,7.014-15.376c9.945-20.024,13.823-41.167,12.069-63.413c-2.307-29.267-6.694-58.244-12.681-86.956
	c-2.612-12.522-7.882-24.279-12.187-36.31c-3.962-11.071-9.241-21.383-15.803-31.071c-2.101-3.102-4.42-6.083-6.881-8.909
	c-8.328-9.567-19-12.745-31.352-11.26c-10.198,1.226-19.855,4.069-28.872,9.072c-4.346,2.412-8.442,5.315-11.171,9.345
	c-7.993,11.799-18.332,21.791-25.339,34.428c-3.35,6.043-8.438,11.512-14.608,15.396c-3.315,2.086-5.897,1.021-6.693-2.648
	c-0.239-1.1-0.325-2.233-0.509-3.345c-1.503-9.09-2.381-10.948,8.163-15.458c3.445-1.474,6.926-3.053,9.577-5.83
	c0.714-0.747,1.394-2.027,1.274-2.956c-0.203-1.56-1.62-2.491-3.12-2.891c-2.305-0.615-4.431,0.103-6.508,1.117
	c-3.025,1.477-6.037,3.008-9.175,4.203c-0.715,0.272-2.352-0.489-2.773-1.226c-0.42-0.736-0.23-2.445,0.369-3.012
	c1.318-1.245,3.03-2.096,4.639-3.006c5.883-3.329,11.85-6.517,17.654-9.978c1.883-1.123,3.435-2.855,4.978-4.462
	c0.374-0.39,0.358-1.521,0.069-2.075c-0.288-0.552-1.109-1.065-1.755-1.151c-2.815-0.372-5.044,1.157-7.27,2.55
	c-6.056,3.788-12.061,7.66-18.144,11.404c-3.539,2.178-5.22,1.49-6.805-2.513c-2.157-5.449-1.768-7.124,2.929-10.545
	c2.425-1.765,5-3.354,7.63-4.8c9.933-5.46,18.272-13.192,27.712-19.352c0.96-0.627,1.399-2.047,0.571-2.904
	c-0.651-0.673-2.061-1.122-2.972-0.924c-1.802,0.392-3.651,1.05-5.204,2.034c-9.197,5.829-18.773,11.131-26.495,19.042
	c-1.822,1.866-4.008,3.407-6.155,4.915c-1.27,0.892-2.932,1.119-4.231,0.129c-2.084-1.588-4.058-3.343-5.931-5.178
	c-1.164-1.141-1.428-2.588-0.332-4.057c1.635-2.191,0.492-3.517-1.55-4.306c-2.738-1.059-5.546-1.936-9.94-3.447
	c6.761-1.204,12.044-0.119,16.877-2.069c0.552-0.223,1.173-1.086,1.166-1.644c-0.007-0.501-0.746-1.241-1.316-1.445
	c-3.154-1.129-6.838-0.222-9.699-2.443c-0.529-0.411-1.02-1.242-1.011-1.871c0.01-0.618,0.561-1.607,1.081-1.77
	c1.752-0.547,3.582-1.004,5.408-1.127c9.749-0.659,19.508-1.181,29.258-1.826c1.066-0.07,2.116-0.577,3.139-0.971
	c0.288-0.111,0.689-0.602,0.634-0.811c-0.183-0.686-0.4-1.475-0.877-1.948c-1.437-1.421-3.387-1.531-5.253-1.603
	c-6.782-0.262-13.532-0.018-20.221,1.304c-2.948,0.582-5.927,1.043-8.912,1.385c-2.185,0.25-3.681-1.741-2.772-3.594
	c0.826-1.684,1.945-3.227,2.742-4.922c1.125-2.393,2.977-3.067,5.471-2.985c4.887,0.16,9.779,0.141,14.668,0.216
	c11.65,0.178,23.269,0.327,34.867-1.535c5.146-0.826,10.508-0.247,15.766-0.465c3.374-0.14,6.756-0.432,10.094-0.928
	c1.782-0.265,3.479-1.107,5.09-1.647c0.216-2.845-1.709-2.372-2.945-2.47c-3.369-0.267-6.757-0.284-10.126-0.546
	c-0.589-0.046-1.389-0.694-1.606-1.254c-0.22-0.566-0.077-1.565,0.314-2.033c3.825-4.57,8.651-7.04,14.73-7.027
	c5.622,0.012,11.123-0.72,17.559-3.885c-5.979-1.346-10.642-2.332-15.268-3.469c-1.726-0.424-2.424-1.949-1.965-3.51
	c1.695-5.765,3.496-11.502,5.423-17.193c0.755-2.231,2.574-3.68,4.759-4.532c1.748-0.682,3.602-1.107,5.32-1.854
	c2.012-0.875,5.352-1.215,5.322-3.514c-0.045-3.566-3.738-2.78-6.166-3.287c-0.367-0.076-0.75-0.079-1.117-0.156
	c-1.488-0.309-3.11-0.616-3.329-2.452c-0.201-1.679,0.85-2.752,2.378-3.328c2.457-0.926,4.951-1.762,7.372-2.773
	c1.05-0.439,2.076-1.436,1.59-2.588c-0.351-0.832-1.475-1.553-2.409-1.875c-1.404-0.484-2.973-0.464-4.42-0.854
	c-3.624-0.976-4.484-1.955-4.469-5.399c0.019-4.512,0.512-9.039,0.259-13.529c-0.368-6.546,0.955-11.908,7.575-14.834
	c0.786-0.348,1.464-1.761,1.526-2.722c0.078-1.23-1.162-1.707-2.307-1.875c-0.743-0.109-1.499-0.125-2.246-0.217
	c-1.62-0.199-2.896-0.918-3.195-2.635c-0.282-1.622,0.409-3.07,1.751-3.849c1.936-1.123,4.111-1.826,6.086-2.892
	c2.499-1.348,2.371-3.506-0.424-4.887c-2.338-1.156-5.089-1.622-5.805-4.729c-0.775-3.358-0.867-6.694,0.165-10.02
	c0.6-1.935,1.912-3.314,3.76-3.897c2.492-0.784,5.073-1.3,7.636-1.833c2.567-0.534,5.179-0.863,7.731-1.456
	c1.047-0.243,1.987-0.94,3.041-1.462c-5.038-3.353-5.041-3.331-11.713-4.165c-2.578-0.322-5.339,0.194-7.636-1.412
	c-0.351-0.246-0.442-1.671-0.208-1.813c1.252-0.757,2.6-1.637,3.999-1.819c5.587-0.724,11.208-1.177,16.81-1.788
	c2.593-0.283,5.174-0.678,7.751-1.082c0.272-0.042,0.583-0.447,0.699-0.751c0.331-0.867,0.007-1.657-0.91-1.755
	c-3.724-0.399-7.456-0.866-11.194-0.961c-5.701-0.146-11.155-1.537-16.591-2.99c-0.668-0.178-1.18-1.716-1.337-2.691
	c-0.077-0.48,0.74-1.484,1.302-1.617c2.162-0.511,4.374-0.964,6.586-1.084c14.641-0.798,29.296-1.379,43.931-2.28
	c12.741-0.785,25.477-1.737,38.187-2.925c8.439-0.788,16.661-2.793,26.25-6.086c-17.047-1.79-32.482-1.275-47.789-0.11
	c-19.17,1.458-38.319,1.305-57.49,1.286c-0.989-0.001-2.522-0.433-2.862-1.124c-0.858-1.75,0.846-2.615,2.002-3.444
	c5.03-3.613,10.676-5.527,16.864-5.572c17.299-0.125,34.668-1.169,51.877,0.034c18.423,1.288,36.812,0.929,55.211,1.422
	c19.703,0.528,38.93-2.98,58.147-6.632c2.273-0.432,4.396-1.262,5.956-2.974c4.146-4.548,10.382-6.046,14.75-10.275
	c1.991-1.928,4.637-2.334,7.329-2.438c3.302-0.129,6.602-0.326,10-0.499c-0.531-3.048-2.77-2.887-4.364-3.536
	c-4.997-2.035-5.355-3.041-2.609-6.91c1.805-2.544,3.793-4.565,7.091-5.047c2.957-0.432,5.819-1.293,8.315-3.147
	c-5.997-7.751-5.79-7.685-2.894-16.698c4.606-14.338,8.822-28.79,8.479-44.098c-0.017-0.751,0.008-1.506,0.064-2.255
	c0.461-6.141,1.313-7.061,7.285-7.763c2.236-0.263,4.525-0.238,6.709-0.715c1.863-0.407,3.59-1.539,3.506-3.761
	c-0.1-2.67-2.321-2.616-4.146-2.493c-2.993,0.201-5.958,0.864-8.949,0.992c-3.189,0.136-5.456-3.61-3.756-6.435
	c1.274-2.118,3.291-3.789,5.083-5.776c-3.27-1.25-6.577-2.217-7.443-6.142c-2.012-9.115-4.076-18.219-6.069-27.106
	c2.057-1.624,3.127-0.275,4.157,0.605c8.713,7.446,14.814,17.054,20.371,26.768c5.479,9.578,6.714,20.678,7.203,31.64
	C1129.475,195.677,1129.14,202.083,1129.203,208.477z M927.499,411.28c9.401,2.611,18.842,5.08,28.257,7.643
	c3.592,0.978,5.214,2.626,5.145,4.994c-0.109,3.775-2.353,6.748-5.712,7.304c-1.846,0.306-3.807,0.056-5.6,0.512
	c-3.003,0.764-6.828-1.292-8.964,2.514c1.974,2.957,5.409,1.867,8.096,2.86c7.302,2.698,9.084,4.764,9.113,12.249
	c0.019,4.88-0.13,9.775-0.514,14.638c-0.368,4.665-2.731,6.473-7.763,5.542c-5.201-0.962-10.38-1.51-15.66-1.596
	c-7.888-0.127-15.775-0.444-23.659-0.771c-2.236-0.092-4.485-0.374-6.675-0.823c-1.009-0.207-1.893-1.025-3.248-1.805
	c3.514-2.755,7.303-2.487,10.953-2.716c5.996-0.377,12.011-0.568,17.983-1.175c2.151-0.219,4.224-1.365,6.268-2.239
	c0.216-0.093,0.202-1.653-0.057-1.774c-1.32-0.611-2.727-1.198-4.157-1.387c-11.899-1.575-23.683-4.255-35.798-3.812
	c-5.21,0.191-8.232-0.739-9.368-8.691c-0.053-0.372-0.111-0.745-0.133-1.119c-0.585-9.664,0.168-12.391,10.832-11.964
	c3.367,0.134,6.753-0.186,10.129-0.34c0.337-0.016,0.661-0.315,1.062-0.52c0.1-2.6-2.179-2.585-3.692-2.971
	c-4.725-1.205-9.573-1.943-14.275-3.226c-6.955-1.897-8.837-9.008-4.033-14.795c0.698-0.841,1.874-1.283,2.59-2.114
	c0.8-0.931,0.805-2.372-0.395-2.758c-5.004-1.609-5.559-5.874-5.815-9.961c-0.728-11.619-1.168-23.252-3.405-34.722
	c-0.213-1.089-0.138-2.251-0.074-3.372c0.203-3.523,1.901-5.683,5.582-5.844c6.368-0.279,12.834-0.654,19.116,0.141
	c6.004,0.759,11.936,1.185,17.871,0.433c4.729-0.6,8.904,0.659,13.083,2.424c3.205,1.353,6.043,3.274,7.441,6.547
	c4.574,10.707,10.141,20.861,17.038,30.029c-2.268,3.651-5.143,2.033-7.464,1.84c-7.131-0.595-14.226-1.003-21.306,0.368
	c-1.031,0.2-2.165,0.383-2.427,2.422c3.419,1.892,7.512,2.203,11.479,2.955c7.378,1.4,14.749,2.844,22.115,4.303
	c1.941,0.385,3.636,1.226,3.644,3.537c0.009,2.748-1.938,5.704-4.008,6.242c-2.613,0.68-5.198,0.211-7.812-0.192
	c-7.046-1.086-14.098-2.163-21.176-2.993c-2.882-0.338-5.961-1.021-8.686,0.942C923.673,410.575,925.81,410.811,927.499,411.28z
	 M946.206,479.203c-0.995-0.045-2.121,0.023-3.191-0.189c-0.627-0.124-1.499-0.595-1.648-1.094c-0.15-0.499,0.296-1.49,0.779-1.796
	c0.91-0.578,2.009-0.913,3.071-1.18c3.121-0.784,6.284-2.772,9.358,0.094c0.232,0.216,0.427,0.764,0.316,1.013
	C953.116,480.027,949.384,478.683,946.206,479.203z M953.044,486.379c-0.132,1.239-1.394,1.492-2.445,1.312
	c-0.601-0.103-1.504-0.638-1.594-1.107c-0.252-1.32,0.758-1.749,2.122-1.848C952.004,484.796,953.183,485.087,953.044,486.379z
	 M779.793,382.308c0,0.087,0,0.174,0,0.261c6.746,0,13.504,0.275,20.233-0.056c14.999-0.74,24.61-8.758,24.779-24.645
	c0.032-2.99,0.171-6.025-0.255-8.965c-1.464-10.124-6.225-17.553-16.998-19.756c-1.464-0.3-2.873-0.865-4.332-1.196
	c-18.952-4.298-37.922-3.59-56.936-0.338c-4.663,0.797-7.265,3.549-8.81,7.661c-3.651,9.711-4.452,19.713-2.504,29.864
	c1.371,7.14,5.324,12.26,12.562,14.461c4.308,1.31,8.578,2.721,13.155,2.713C767.056,382.3,773.424,382.308,779.793,382.308z
	 M781.149,343.668c3.131-3.718,6.57-4.45,10.875-3.842c4.439,0.627,8.896,1.135,13.33,1.797c3.536,0.529,6.546,1.851,7.15,5.932
	c0.66,4.456-0.535,8.328-4.547,10.618c-2.556,1.459-5.45,2.594-8.333,3.163c-7.328,1.446-14.669,3.158-21.625,2.242
	c-6.634,0.01-12.627-0.298-18.346-2.312c-1.693-0.596-3.212-1.783-4.688-2.867c-1.211-0.89-0.756-3.067,0.676-3.593
	c5.609-2.061,11.294-3.935,16.817-6.202C775.549,347.338,779.13,346.067,781.149,343.668z M754.066,343.152
	c4.534-4.251,9.762-6.459,16.086-4.557c0.34,0.102,0.668,0.34,0.924,0.593c0.251,0.249,0.403,0.599,0.598,0.904
	c-0.25,0.632-0.324,1.601-0.782,1.84c-4.553,2.378-9.132,4.712-13.787,6.882c-1.471,0.686-2.907,0.005-3.607-1.516
	C752.835,345.855,753.003,344.149,754.066,343.152z M741.239,356.529c-0.192-2.615-0.637-5.265-0.392-7.844
	c0.29-3.047-1.275-6.817,2.69-8.781c2.694,2.706,0.545,5.643,0.359,8.462c-0.68,10.298,4.544,18.562,14.212,21.596
	c9.386,2.945,18.951,4.257,28.84,2.555c7.697-1.324,15.58-1.514,23.478-3.389c-2.312,4.092-5.981,5.595-10.223,5.756
	c-12.743,0.483-25.49,0.546-38.201-0.617c-2.581-0.237-5.082-1.254-7.645-1.794C745.714,370.651,741.856,364.925,741.239,356.529z
	 M762.881,220.795c0.933,15.718,1.742,31.443,2.683,47.161c0.246,4.105,0.745,8.199,1.274,12.28
	c0.059,0.456,1.086,1.096,1.652,1.084c0.495-0.011,1.233-0.74,1.402-1.293c0.323-1.057,0.427-2.214,0.431-3.331
	c0.031-9.382,0.018-18.765,0.018-28.147c-0.141-0.001-0.281-0.001-0.422-0.001c0-10.505,0.396-21.027-0.083-31.51
	c-0.973-21.338-2.572-42.646-3.596-63.981c-0.431-8.982,0.004-18.002-0.097-27.003c-0.029-2.596-0.381-5.224-0.945-7.757
	c-0.18-0.808-1.453-1.505-2.375-1.931c-0.267-0.123-1.256,0.765-1.565,1.368c-2.126,4.152-1.976,8.693-2.197,13.191
	c-1.215,24.802,1.146,49.477,2.558,74.186C761.919,210.345,762.57,215.56,762.881,220.795z M864.334,145.116
	c11.344,10.026,20.351,21.977,28.745,34.459c7.326,10.893,14.646,21.792,22.127,32.58c2.768,3.992,5.926,7.721,9.029,11.469
	c1.24,1.497,3.007,2.327,5.009,1.695c2.099-0.662,3.974-4.268,3.44-6.517c-0.893-3.765-3.338-6.671-5.584-9.664
	c-6.303-8.4-12.599-16.806-18.974-25.152c-5.915-7.744-11.868-15.461-17.917-23.102c-6.813-8.607-15.352-15.364-24.051-21.916
	c-1.482-1.116-3.21-1.964-5.177-1.61c-1.199,0.626-1.703,1.803-1.055,2.729C861.2,141.905,862.673,143.648,864.334,145.116z
	 M993.477,227.992c1.72,0.606,3.651,0.875,5.483,0.857c7.472-0.073,14.99,0.138,22.402-0.622c7.48-0.767,14.889-0.968,22.366-0.472
	c3.721,0.247,7.48,0.405,11.194,0.164c4.561-0.296,6.751-2.559,6.517-6.047c-0.194-2.896-2.143-4.666-6.474-4.769
	c-8.967-0.214-17.942-0.065-26.913-0.065c0,0.065,0,0.129,0,0.194c-8.598,0-17.197-0.108-25.791,0.059
	c-2.951,0.058-5.931,0.624-8.817,1.301c-1.903,0.447-3.234,1.912-3.214,4.05C990.251,225.021,991.112,227.158,993.477,227.992z
	 M996.412,146.272c2.543,0.938,5.156,0.661,7.781,0.442c3.727-0.311,7.47-0.802,11.193-0.702c8.967,0.242,17.923,0.857,26.888,1.17
	c4.865,0.17,9.744,0.12,14.612-0.013c1.843-0.051,3.734-0.423,5.493-0.99c2.346-0.755,3.695-2.524,3.587-5.075
	c-0.103-2.425-1.134-4.466-3.63-5.049c-2.159-0.505-4.431-0.69-6.656-0.719c-6.745-0.088-13.491-0.032-20.238-0.032
	c0,0.233,0.001,0.465,0.002,0.698c-6.745,0-13.505-0.28-20.231,0.081c-6.342,0.341-12.664,1.243-18.96,2.142
	c-1.943,0.277-3.264,1.776-3.151,3.998C993.209,144.358,994.53,145.577,996.412,146.272z M1061.674,188.949
	c-1.356-0.561-2.883-0.902-4.35-0.965c-3.377-0.145-6.789-0.329-10.141-0.02c-13.472,1.246-26.979,1.305-40.484,1.557
	c-2.607,0.049-5.257,0.37-7.793,0.966c-2.911,0.685-4.495,3.3-4.011,5.881c0.538,2.872,2.446,4.736,5.26,5.025
	c1.115,0.115,2.288,0.248,3.367,0.034c10.43-2.068,20.987-1.161,31.493-1.731c6.766,0,13.534,0.088,20.298-0.051
	c2.208-0.045,4.484-0.431,6.58-1.117c1.849-0.605,2.974-2.238,3.124-4.293C1065.203,191.675,1063.938,189.886,1061.674,188.949z
	 M998.569,174.909c2.987,0.129,5.982,0.034,10,0.034c14.203-2.636,29.583-1.916,44.916-2.236c1.87-0.039,3.749-0.008,5.607-0.187
	c1.094-0.105,2.189-0.473,3.222-0.876c2.06-0.803,2.978-3.491,2.172-5.685c-0.844-2.297-2.486-3.68-4.708-4.43
	c-3.262-1.102-6.68-1.214-10.002-0.723c-11.895,1.76-23.892,1.441-35.836,2.137c-6.299,0.367-12.563,1.768-18.775,3.035
	c-2.677,0.546-3.32,4.362-1.435,6.419C995.052,173.841,996.64,174.826,998.569,174.909z M819.323,138.773
	c13.92,18.537,27.841,37.073,41.85,55.543c1.559,2.055,3.566,3.801,5.522,5.513c1.163,1.018,2.729,1.238,4.198,0.553
	c1.876-0.874,2.571-2.58,2.821-4.306c-0.098-2.624-1.61-4.327-3.045-6.044c-8.873-10.616-17.664-21.304-26.687-31.791
	c-5.602-6.511-11.522-12.752-17.389-19.03c-2.025-2.167-4.054-4.434-7.002-5.444c-0.312-0.107-0.924-0.051-1.05,0.149
	c-0.366,0.58-0.89,1.361-0.745,1.899C818.081,136.863,818.66,137.89,819.323,138.773z M1076.896,212.524
	c2.016,0.444,3.731-0.224,4.824-1.956c2.057-3.259,2.541-6.979,2.822-10.724c0.7-9.344,0.618-18.734-0.621-27.97
	c-1.03-7.681-1.787-15.666-6.492-22.374c-0.654-0.933-1.512-1.879-2.736-1.453c-1.181,0.411-1.357,1.666-1.107,2.739
	c2.056,8.83,1.634,17.822,1.898,26.521c-0.487,9.2-0.288,18.19-2.135,27.033c-0.299,1.429-0.308,2.989-0.094,4.436
	C1073.553,210.783,1074.897,212.083,1076.896,212.524z M877.959,195.576c1.013,1.561,2.166,3.071,3.467,4.396
	c1.088,1.108,2.67,1.559,4.144,0.908c1.864-0.824,2.83-2.468,2.744-4.513c-0.134-3.204-2.17-5.561-3.974-7.924
	c-7.528-9.852-15.05-19.712-22.775-29.409c-4.45-5.585-9.511-10.642-15.087-15.138c-0.506-0.408-1.356-0.388-2.046-0.566
	c-0.237,0.277-0.689,0.568-0.67,0.826c0.054,0.725,0.092,1.593,0.5,2.127C856.351,162.13,867.122,178.876,877.959,195.576z
	 M874.68,265.291c-2.211-1.057-4.406-0.046-6.439,0.929c-9.239,4.43-17.287,10.428-23.935,18.267
	c-4.367,5.149-7.292,11.01-9.575,17.202c0.89,0.561,1.78,1.122,2.671,1.683c0.775-1.285,1.469-2.628,2.338-3.847
	c5.077-7.124,11.661-12.545,18.915-17.374c5.631-3.748,11.366-7.235,17.412-10.243c1.519-0.755,2.35-2.254,1.731-3.66
	C877.259,267.023,875.933,265.89,874.68,265.291z M976.95,257.567c23.567,0.711,47.126,0.307,71.081,0.203
	c-1.283-2.484-2.955-1.992-4.348-2.064c-6.743-0.35-13.619,0.108-20.21-1.06c-15.845-2.808-31.375,0.193-46.586,1.034
	C975.629,256.881,975.789,257.532,976.95,257.567z M802.047,449.77c-1.121-0.099-2.26-0.167-3.38-0.09
	c-7.104,0.488-14.186,1.411-21.342,0.744c-1.015-0.094-2.188,0.499-3.133,1.042c-0.557,0.32-1.119,1.173-1.112,1.78
	c0.007,0.607,0.591,1.549,1.143,1.756c6.074,2.284,12.481,2.303,18.842,2.844c1.877,0,3.755,0.047,5.628-0.017
	c1.123-0.039,2.243-0.233,3.36-0.388c3.577-0.497,5.951-2.426,5.348-4.419C806.608,450.387,804.353,449.973,802.047,449.77z
	 M941.553,146.809c5.536,9.452,12.922,17.397,20.6,25.088c0.314,0.314,1.519,0.161,1.971-0.199c0.474-0.378,0.938-1.465,0.722-1.902
	c-1.49-3-3.159-5.911-4.77-8.851c2.788-0.86,4.858-2.504,4.125-5.653c-1.411-6.057-5.394-10.519-9.967-14.437
	c-0.833-0.714-2.351-0.119-2.613,1.069c-0.395,1.799-0.354,3.694-0.499,5.548c-1.925-1.77-3.755-3.669-5.83-5.244
	c-0.737-0.56-2.284-0.767-3.088-0.372c-1.529,0.749-1.495,2.379-1.054,3.903C941.254,146.118,941.366,146.489,941.553,146.809z
	 M806.984,250.006c3.715,8.651,8.837,16.536,13.689,24.564c0.371,0.614,1.013,1.087,1.595,1.541c0.26,0.202,0.823,0.381,1.006,0.245
	c0.507-0.376,0.888-0.924,1.318-1.405c-0.15-0.729-0.183-1.504-0.464-2.176c-3.919-9.336-7.823-18.68-11.874-27.959
	c-0.565-1.294-1.805-2.359-2.916-3.316c-0.452-0.389-1.44-0.396-2.107-0.243c-1.162,0.267-2.187,1.168-1.993,2.34
	C805.6,245.772,806.116,247.986,806.984,250.006z M784.306,442.745c5.185,0.535,10.445,0.465,15.67,0.423
	c1.388-0.011,2.83-0.769,4.125-1.425c0.551-0.279,1.031-1.147,1.112-1.801c0.137-1.102-0.175-2.21-1.316-2.791
	c-0.656-0.334-1.343-0.835-2.027-0.855c-10.691-0.308-21.455-1.193-32.936,3.536C774.886,440.997,779.556,442.255,784.306,442.745z
	 M942.906,166.841c3.509,5.728,7.436,11.178,13.954,14.535c-4.29-10.788-10.638-20.318-18.002-29.208
	c-0.23-0.278-0.571-0.559-0.906-0.635c-0.688-0.156-1.593-0.465-2.063-0.167c-0.484,0.308-0.879,1.329-0.758,1.924
	C936.221,158.642,940.186,162.4,942.906,166.841z M1030.85,245.052c-4.836-0.43-9.685-0.708-12.749-0.922
	c-5.895,0-10.009-0.111-14.11,0.06c-1.416,0.059-2.815,0.786-4.195,1.282c-0.274,0.098-0.494,0.505-0.623,0.817
	c-0.356,0.86-0.105,1.559,0.742,1.83c1.047,0.335,2.13,0.732,3.208,0.765c10.436,0.319,20.917-0.484,31.292,1.327
	c0.324,0.057,0.732-0.119,1.043-0.291c0.319-0.176,0.803-0.481,0.802-0.728c-0.002-0.686,0-1.553-0.391-2.022
	C1034.598,245.646,1032.7,245.217,1030.85,245.052z M809.118,400.871c-0.999-0.412-2.15-0.542-3.249-0.616
	c-8.29-0.553-16.309,1.609-24.448,2.555c-1.361,0.158-3.3,0.579-2.711,2.639c0.192,0.671,1.763,1.244,2.75,1.331
	c2.22,0.197,4.47,0.062,9.028,0.062c4.814,0.139,11.818-0.823,18.707-2.601c0.477-0.123,1.025-1.112,1.009-1.683
	C810.187,401.964,809.649,401.09,809.118,400.871z M832.606,267.232c-2.495-10.321-5.629-18.903-11.242-26.471
	c-0.671-0.905-2.048-1.489-2.989-0.699c-0.712,0.598-1.295,1.982-1.139,2.877C818.264,248.827,825.49,260.4,832.606,267.232z
	 M840.178,259.985c0.592,0.311,1.498,0.518,2.046,0.275c0.524-0.232,1.134-1.147,1.072-1.689c-0.907-7.937-4.57-14.683-9.344-20.896
	c-0.337-0.438-1.343-0.361-2.039-0.523c-1.307-0.065-2.521,1.902-1.86,3.318c2.81,6.016,5.689,12.001,8.601,17.969
	C838.96,259.064,839.563,259.662,840.178,259.985z M796.628,417.411c1.102,0.131,2.485-0.121,2.715-1.309
	c0.368-1.904-1.333-2.368-2.703-2.615c-4.346-0.783-8.718-1.417-12.37-1.997c-3.284,0.592-5.964-0.181-8.282,1.374
	c-0.269,0.18-0.488,0.609-0.508,0.937c-0.02,0.333,0.199,0.959,0.376,0.982C782.775,415.701,789.698,416.586,796.628,417.411z
	 M603.292,317.436c-1.456-0.177-2.948-0.057-2.721-0.057c-4.286,0.395-6.878,0.553-9.436,0.936
	c-0.519,0.078-1.161,0.946-1.307,1.555c-0.291,1.204,0.411,2.254,1.495,2.619c4.587,1.547,8.741-0.275,12.848-1.979
	c0.462-0.192,0.903-1.33,0.751-1.856C604.768,318.118,603.905,317.51,603.292,317.436z M788.955,210.973c0,4.278,0,8.555,0,12.833
	C790.92,219.492,790.816,215.215,788.955,210.973z M964.328,256.207c-1.383-0.015-2.768,0.029-4.147,0.126
	c-0.114,0.008-0.193,0.521-0.288,0.799c0.986,0.213,1.969,0.563,2.96,0.589c0.604,0.016,1.221-0.469,1.831-0.73
	C964.566,256.717,964.45,256.209,964.328,256.207z M891.886,862.038c8.066,0.652,16.276-0.451,23.952,3.211
	c1.847,0.881,4.437,0.234,6.686,0.239c5.248,0.01,10.5-0.131,15.745,0.002c21.293,0.539,42.583,1.159,63.875,1.733
	c0.357,0.01,0.76-0.128,1.069-0.316c0.306-0.186,0.742-0.532,0.732-0.793c-0.025-0.667-0.065-1.711-0.459-1.917
	c-1.275-0.667-2.677-1.227-4.091-1.471c-12.555-2.16-25.194-3.687-37.828-5.317C937.967,854.365,914.865,855.884,891.886,862.038z
	 M908.203,848.226c1.071-0.181,2.057-1.186,1.494-2.503c-0.223-0.521-1.12-1.046-1.728-1.067
	c-8.223-0.292-16.532,0.163-24.654-0.871c-12.687-1.616-25.361-1.89-38.086-1.592c-3.733,0.087-7.466,0.472-11.184,0.857
	c-3.01,0.311-5.929,1.121-8.285,3.109c-0.742,0.626-1.414,1.838-1.39,2.763c0.049,1.898,1.764,2.142,3.258,2.306
	c0.73,0.08,1.495-0.038,2.231-0.155c13.381-2.139,26.863-1.715,40.333-1.394c8.981,0,17.964,0.132,26.941-0.064
	C900.834,849.535,904.536,848.846,908.203,848.226z M967.335,667.354c-0.577,1.325-0.689,2.902-0.78,4.381
	c-1.086,17.601-2.138,35.204-3.159,52.809c-0.041,0.704,0.251,1.448,0.491,2.138c0.108,0.309,0.468,0.744,0.72,0.748
	c0.689,0.01,1.562,0.05,2.041-0.328c1.921-1.517,2.054-3.837,2.548-6.04c3.469-15.449,4.793-31.157,5.664-46.922
	c0.37-2.247,0.481-4.512-0.55-6.621c-0.679-1.389-1.718-2.402-3.425-2.452C969.161,665.016,967.926,665.996,967.335,667.354z
	 M955.09,685.549c0.141,7.086,0.296,14.171,0.49,21.255c0.04,1.466,0.186,3.318,1.76,3.683c2.211,0.512,2.17-1.679,2.265-2.972
	c0.956-13.013,1.94-26.027,2.614-39.056c0.308-5.959-0.084-11.949-2.088-17.693c-0.487-1.397-0.915-3.104-2.588-3.18
	c-2.103-0.096-2.044,1.918-2.056,3.266c-0.084,9.326-0.044,18.653-0.044,27.98c-0.12,0-0.24,0-0.359,0
	C955.083,681.072,955.045,683.312,955.09,685.549z M853.254,827.796c3.832,2.293,8.013,1.443,12.05,0.958
	c11.147-1.34,22.271-2.877,33.402-4.347c1.505-0.199,3.189-0.597,3.391-2.278c0.256-2.129-1.768-2.149-3.108-2.195
	c-4.112-0.141-8.232-0.052-12.349-0.052c-10.194-0.864-20.121,2.006-30.23,2.276c-1.063,0.028-2.324,0.407-3.102,1.077
	c-0.714,0.615-1.112,1.818-1.232,2.813C852.013,826.589,852.686,827.456,853.254,827.796z M914.197,529.557
	c0.697,1.797,2.619,2.66,4.67,1.765c1.977-0.862,2.743-2.679,2.177-4.579c-1.164-3.904-2.667-7.707-4.03-11.551
	c10.728,11.404,17.744,25.073,23.714,39.323c3.632,8.669,6.735,17.558,10.276,26.267c3.115,7.66,6.467,15.226,9.815,22.789
	c0.611,1.38,1.804,2.417,3.517,2.42c2.078,0.003,3.68-1.034,4.534-2.791c0.625-1.283,1.045-2.883,0.894-4.27
	c-0.197-1.823-0.938-3.618-1.627-5.353c-4.856-12.23-9.716-24.46-14.657-36.655c-7.143-17.628-17.362-33.333-30.233-47.279
	c-5.102-5.528-10.935-10.305-17.376-14.255c-0.943-0.579-2.296-0.66-2.918,0.552c-0.248,0.484,0.078,1.557,0.505,2.045
	c4.203,4.807,8.778,9.321,11.568,15.202c-3.034-0.755-5.115-2.86-7.263-4.952c-2.993-2.916-6.7-4.644-10.697-5.71
	c-0.57-0.152-1.556,0.174-1.906,0.624c-0.291,0.373-0.18,1.5,0.184,1.876C902.573,512.474,910.298,519.503,914.197,529.557z
	 M947.571,834.935c1.536,1.919,3.817,2.326,5.969,2.685c5.512,0.922,11.052,1.697,16.6,2.377c5.551,0.681,11.121,1.222,16.693,1.71
	c1.063,0.093,2.325-0.088,3.217-0.614c0.849-0.501,1.849-1.63,1.831-2.463c-0.016-0.786-1.199-2.135-1.991-2.231
	c-12.207-1.478-24.426-2.876-36.665-4.058C951.161,832.142,948.715,832.458,947.571,834.935z M1120.447,199.78
	c-0.618-0.061-1.678,0.303-1.872,0.763c-0.571,1.356-0.88,2.838-1.165,4.296c-1.941,9.944-3.841,19.897-5.772,29.843
	c-0.412,2.123-1.993,4.167-0.627,6.406c0.793,1.3,3.176-1.048,4.428-5.336c2.729-9.34,7.294-18.21,7.358-27.498
	c0.262-2.989,0.498-5.277-0.598-7.361C1121.911,200.342,1121.076,199.842,1120.447,199.78z M941.634,770.358
	c7.744-0.488,15.463-1.191,22.567-4.73c0.174-0.087,0.085-0.701,0.175-1.694c-2.16-0.136-4.339-0.271-6.519-0.411
	c-5.627-0.362-11.105,0.788-16.585,1.758c-1.559,0.276-2.475,1.554-2.135,3.286C939.395,769.874,940.56,770.425,941.634,770.358z
	 M844.618,498.563c-4.776,1.121-8.553,4.295-12.741,6.628c-0.947,0.528-1.771,1.571-1.16,2.803c0.555,1.121,1.822,1.417,2.815,0.958
	c4.363-2.017,8.674-4.153,12.949-6.352c0.555-0.285,0.793-1.187,1.178-1.803c-0.072-0.365-0.026-0.943-0.234-1.057
	C846.523,499.246,845.426,498.374,844.618,498.563z M923.567,797.108c6.034,1.526,11.6-0.354,17.067-2.609
	c0.431-0.178,0.877-1.386,0.671-1.774c-0.264-0.498-1.202-0.944-1.812-0.9c-2.189,0.157-4.363,0.53-6.543,0.821
	c-0.011-0.072-0.022-0.145-0.033-0.218c-3.249,0.499-6.51,0.941-9.735,1.568c-0.429,0.083-0.98,1.143-0.918,1.686
	C922.325,796.215,923.02,796.97,923.567,797.108z M1040.896,305.708c1.484,1.036,2.052,1.777,2.625,1.78
	c5.88,0.034,11.761-0.051,17.641-0.103C1054.696,305.53,1048.265,305.09,1040.896,305.708z M860.387,878.71
	c-0.477-0.291-1.515-0.24-1.969,0.106c-3.001,2.287-4.574,5.278-4.578,10.35c3.906-2.663,5.836-5.492,7.293-8.677
	C861.326,880.066,860.851,878.993,860.387,878.71z M870.188,861.893c3.516,0.855,7.036,1.821,12.401-0.145
	C877.222,860.298,873.704,860.564,870.188,861.893z M835.816,513.864c-1.402,0.321-2.781,0.88-4.045,1.575
	c-0.357,0.196-0.35,1.172-0.361,1.793c-0.003,0.147,0.588,0.417,0.918,0.439c1.896,0.122,3.692-0.14,4.973-1.744
	c0.198-0.248,0.155-0.688,0.223-1.042C836.95,514.518,836.283,513.757,835.816,513.864z M690.002,1033.109
	c14.951,1.27,29.88,2.841,44.845,3.897c19.951,1.408,39.726-1.596,59.557-3.014c2.961-0.212,5.919-1,8.788-1.833
	c2.595-0.753,3.305-4.71,1.193-6.481c-1.1-0.923-2.534-1.869-3.885-1.978c-2.585-0.209-5.257-0.073-7.823,0.346
	c-17.445,2.845-35.054,3.887-52.661,4.953c-2.24,0.135-4.519,0.274-6.736,0.02c-16.849-1.925-33.754-1.125-50.641-1.17
	c-4.129-0.011-8.15,0.431-12.421,3.804c2.696,0.293,4.5,0.556,6.315,0.674C681.02,1032.616,685.522,1032.729,690.002,1033.109z
	 M583.305,1096.372c-0.697-1.717-2.531-2.825-4.675-1.885c-1.989,0.873-2.565,2.713-2.502,4.636c0.048,1.468,0.389,2.996,0.93,4.367
	c3.809,9.64,11.28,14.647,21.186,16.477c0.338,0.063,0.849-0.038,1.069-0.266c0.474-0.49,0.81-1.113,1.202-1.684
	c-0.295-0.661-0.403-1.581-0.91-1.943C592.428,1110.937,586.684,1104.691,583.305,1096.372z M705.308,1014.671
	c1.073-0.587,1.714-1.484,1.299-2.683c-0.213-0.616-0.844-1.471-1.373-1.538c-10.749-1.364-21.42-1.365-34.107,2.443
	c9.549,3.155,16.964,3.549,24.408,3.645C698.9,1016.581,702.252,1016.344,705.308,1014.671z M572.99,1109.359
	c-0.242-0.403-1.222-0.364-1.866-0.526c-1.565,0.62-1.175,3.208,0.945,5.458c0.419,0.444,1.332,0.819,1.836,0.659
	c0.394-0.125,0.821-1.212,0.686-1.728C574.24,1111.879,573.701,1110.547,572.99,1109.359z M920.768,1049.541
	c7.504,7.866,16.45,8.691,25.343,2.384c5.275-3.741,9.507-8.512,12.547-14.271c5.491-10.403,8.861-21.466,10.711-33.076
	c2.213-13.892,1.457-27.736-0.513-41.516c-1.554-10.87-4.956-21.186-11.213-30.42c-2.845-4.198-6.594-7.195-11.122-9.24
	c-10.052-4.538-23.822,1.634-26.136,12.233c-1.152,5.273-3.455,9.945-5.617,14.65c-7.089,15.421-8.394,31.818-9.204,48.35
	c-0.174,12.617,3.029,24.609,6.572,36.513C913.768,1040.625,916.847,1045.43,920.768,1049.541z M925.306,1000.927
	c1.577-2.386,3.452-4.574,5.215-6.837c-0.482,4.406-1.937,8.385-5.193,11.661C923.408,1004.105,924.37,1002.342,925.306,1000.927z
	 M926.627,965.007c2.34-9.464,3.448-19.282,7.621-28.245c2.079-4.467,4.75-5.389,9.049-3.456c2.124,0.955,3.824,2.371,5.18,4.217
	c2.679,3.65,5.305,7.381,6.411,11.834c1.538,6.193,3.426,12.386,4.094,18.692c2.001,18.881,0.692,37.567-5.064,55.783
	c-1.589,5.029-3.583,9.908-6.547,14.322c-1.895,2.822-3.955,5.505-6.825,7.429c-1.963,1.316-4.096,2.148-6.287,0.726
	c-1.818-1.18-1.762-3.167-1.474-5.063c0.969-6.381,3.676-12.203,5.805-18.221c1.746-4.936,4.613-9.52,4.949-14.906
	c0.037-0.599-0.494-1.604-0.98-1.767c-0.523-0.174-1.541,0.234-1.926,0.719c-1.165,1.465-2.242,3.029-3.141,4.67
	c-1.263,2.307-2.364,4.704-3.478,7.09c-0.636,1.361-1.084,2.812-1.755,4.153c-0.654,1.311-1.418,2.968-3.257,2.12
	c-1.143-0.527-0.886-1.968-0.513-3.057c2.803-8.18,5.696-16.329,8.426-24.533c1.061-3.188,1.836-6.476,2.591-9.753
	c0.137-0.595-0.254-1.651-0.746-1.981c-1.078-0.724-2.126-0.079-2.825,0.824c-1.777,2.293-3.479,4.642-5.207,6.973
	c1.275-7.775,5.085-14.677,7.631-22.014c1.598-4.604,3.317-9.166,4.851-13.789c0.165-0.498-0.379-1.567-0.888-1.861
	c-0.517-0.298-1.588-0.227-2.091,0.135c-4.097,2.95-6.49,7.228-8.655,11.624c-2.123,4.309-4.101,8.69-7.411,12.664
	C924.959,975.218,925.39,970.013,926.627,965.007z M876.889,1095.293c2.598,0.232,5.23,0.336,7.835,0.222
	c16.465-0.716,32.929-2.161,49.387-2.091c16.484,0.07,32.693-3.724,49.182-2.669c0.37,0.024,0.748-0.043,1.12-0.086
	c1.496-0.172,3.279-0.424,3.525-2.074c0.337-2.257-1.811-2.041-3.102-2.008c-11.22,0.285-22.511-0.713-33.615,1.867
	c-2.175,0.505-4.536,1.006-6.688,0.683c-11.958-1.797-23.949,0.14-35.902,0.01c-10.482,0-20.965-0.004-31.447,0.004
	c-1.63,0.001-2.864,0.689-3.426,2.28C873.209,1092.991,874.796,1095.107,876.889,1095.293z M895.047,1062.561
	c1.683,4.54,3.787,8.927,5.804,13.335c0.45,0.982,1.475,1.786,2.62,1.064c0.423-0.267,0.642-1.385,0.475-1.98
	c-6.157-21.961-11.096-44.211-15.996-66.475c-0.716-3.252-2.059-6.393-3.387-9.467c-0.344-0.796-1.729-1.143-2.388-1.544
	c-1.647,0.226-2.488,1.161-2.548,2.238c-0.123,2.207-0.065,4.46,0.238,6.65C882.54,1025.748,888.277,1044.303,895.047,1062.561z
	 M781.792,1085.844c-0.981-0.53-2.018-0.967-3.055-1.384c-10.033-4.031-20.116-7.942-30.091-12.113
	c-5.906-2.47-12.093-3.724-18.304-4.951c-0.493-0.098-1.563,0.55-1.624,0.96c-0.083,0.565,0.381,1.518,0.891,1.806
	c1.612,0.908,3.304,1.737,5.057,2.323c9.645,3.229,18.271,8.374,26.652,13.995c-9.273,1.725-18.583,1.8-27.948,0.83
	c-5.216-0.54-10.465-1.031-15.702-1.052c-13.126-0.053-26.287-0.357-39.372,0.441c-12.686,0.773-25.432,1.552-37.963,4.037
	c-1.099,0.218-2.232,0.415-3.245,0.858c-0.586,0.256-1.332,0.984-1.335,1.503c-0.003,0.529,0.762,1.452,1.287,1.527
	c2.582,0.366,5.194,0.678,7.798,0.699c10.505,0.086,21.015-0.146,31.514,0.117c20.233,0.507,40.503-0.408,60.696,2.083
	c7.016,0.866,14.251,0.767,21.305-0.537c4.15-0.767,4.804-2.043,5.247-8.212c4.898,1.759,9.76,3.627,14.71,5.225
	c2.154,0.695,4.501,0.737,5.954-1.594C785.541,1090.356,784.334,1087.218,781.792,1085.844z M980.977,1006.448
	c0.123,1.664-0.427,4.239,2.295,3.965c1.552-0.156,1.474-2.379,1.504-3.805c0.09-4.11,0.032-8.224,0.032-12.337
	c-0.233-16.189-3.223-31.989-6.959-47.673c-0.252-1.055-0.806-2.099-1.455-2.973c-0.371-0.5-1.259-0.94-1.841-0.862
	c-0.521,0.07-1.378,0.924-1.34,1.367c0.416,4.841,0.779,9.7,1.54,14.493C977.271,974.509,979.791,990.389,980.977,1006.448z
	 M850.944,1081.587c-8.033-3.016-15.675-6.801-23.06-11.172c-1.86-1.101-4.148-1.531-6.289-2.067
	c-0.57-0.143-1.619,0.281-1.917,0.768c-0.29,0.475-0.167,1.62,0.23,2.035c7.791,8.163,16.875,14.515,27.26,18.931
	c1.28,0.544,2.954,0.601,4.344,0.342c1.981-0.369,3.153-1.813,3.273-5.388C854.806,1083.815,853.165,1082.421,850.944,1081.587z
	 M905.649,1056.436c-0.127-9.278-1.715-18.312-5.457-26.86c-0.353-0.807-1.642-1.637-2.53-1.675
	c-1.285-0.054-1.685,1.31-1.504,2.404C897.682,1039.485,899.931,1048.438,905.649,1056.436z M853.415,1071.233
	c-4.235-2.281-8.603-4.309-12.877-6.519c-1.946-1.006-3.789-2.209-5.346-3.126c-0.868,0.219-1.419,0.209-1.513,0.411
	c-0.277,0.593-0.729,1.498-0.485,1.879c3.685,5.761,8.625,10.122,14.962,12.774c0.979,0.41,2.166,0.478,3.25,0.444
	c1.529-0.047,2.914-0.625,3.55-2.164C855.654,1073.244,854.697,1071.923,853.415,1071.233z M1009.815,1081.502
	c3.293,0.405,6.619,0.545,9.931,0.795c0.006-0.132,0.013-0.263,0.019-0.395c1.856,0,3.732,0.169,5.563-0.046
	c2.003-0.234,5.148,0.74,5.27-2.358c0.071-1.795-2.724-2.127-4.441-2.688c-5.376-1.755-10.87-2.314-16.47-1.337
	c-1.65,0.288-2.802,1.444-2.707,3.001C1007.071,1079.964,1008.224,1081.306,1009.815,1081.502z M742.595,1085.374
	c0.267-0.024,0.695-0.51,0.696-0.782c0.004-0.679,0.051-1.667-0.352-1.99c-4.223-3.38-9.479-3.217-14.044-4.395
	c-0.678,0.598-1.062,0.793-1.198,1.098c-0.134,0.303-0.171,0.92,0.008,1.053C732.115,1083.655,736.906,1085.887,742.595,1085.374z
	 M924.056,912.591c-0.072-0.005-0.143-0.009-0.215-0.014l0.131,0.146C923.998,912.677,924.028,912.636,924.056,912.591z
	 M942.504,911.782c-0.012-0.61-0.428-1.471-0.928-1.77c-3.276-1.956-6.9-2.389-10.633-2.07c-3.153,0.268-5.323,2.031-6.887,4.649
	c5.423,0.347,10.844,0.717,16.269,1.017C941.509,913.673,942.53,913.121,942.504,911.782z M908.182,908.941
	c3.064-1.35,6.414-2.789,9.73-4.303c1.536-0.701,3.829-0.582,3.787-3.178c-0.027-1.67-2.805-2.126-5.634-0.812
	c-3.325,1.545-6.61,3.203-9.176,5.907c-0.319,0.336-0.118,1.243-0.007,1.859C906.914,908.589,907.478,908.669,908.182,908.941z
	 M923.84,912.577c-0.037,0.069-0.081,0.133-0.118,0.202c0.084-0.017,0.164-0.041,0.249-0.056
	C923.971,912.723,923.84,912.577,923.84,912.577z M914.803,918.243c-0.668,0.813-1.278,1.918-0.172,2.767
	c0.354,0.272,1.473,0.016,1.917-0.371c2.689-2.341,5.423-4.664,7.174-7.86C920.079,913.49,917.14,915.395,914.803,918.243z
	 M908.156,1069.201c-1.182,0.337-1.464,1.739-0.969,2.74c0.419,0.847,1.371,1.886,2.183,1.975c1.219,0.134,1.632-1.094,1.604-2.327
	C910.533,1070.243,910.035,1068.667,908.156,1069.201z M983.45,1020.954c-0.313,0.006-0.846,1.172-0.862,1.814
	c-0.042,1.786-0.513,3.707,1.014,5.273c2.127-1.145,1.216-3.154,1.32-4.806C984.984,1022.239,984.907,1020.928,983.45,1020.954z
	 M663.049,208.761c6.055-2.17,4.985-7.765,5.482-12.253c1.9-17.149,3.66-34.327,2.88-51.632c-0.256-5.691,0.568-11.233,2.211-16.657
	c2.358-7.784,6.524-14.159,13.596-18.651c4.173-2.65,8.622-4.475,13.109-6.382c3.608-1.532,7.773-2.333,11.56-7.366
	c-7.131,1.353-12.549,2.308-17.936,3.416c-17.149,3.528-27.96,13.66-31.75,30.888c-0.722,3.282-1.122,6.669-1.302,10.028
	c-1.002,18.728-1.518,37.474-0.982,56.222C660.037,200.597,658.462,205.548,663.049,208.761z M643.663,107.056
	c-2.532-0.505-5.106-0.802-7.968-1.214c-7.109,1.109-14.439,2.234-21.761,3.405c-1.808,0.289-3.728,0.477-4.43,2.677
	c-0.519,1.626,1.657,3.466,4.61,3.567c2.585,0.088,5.197,0.012,7.767-0.263c2.576-0.276,5.146-0.767,7.666-1.379
	c4.682-1.136,9.336-2.39,13.971-3.705c0.544-0.154,1.204-0.979,1.24-1.53C644.793,108.1,644.144,107.152,643.663,107.056z
	 M625.517,89.47c-0.348,0.09-0.666,0.297-0.992,0.46c-1.082,0.542-1.675,1.468-1.461,2.62c0.118,0.637,0.631,1.466,1.183,1.704
	c1.323,0.571,2.755,1.062,4.18,1.202c7.97,0.779,15.026-2.097,22.825-5.477C643.014,88.206,630.951,88.048,625.517,89.47z
	 M907.679,645.63c-0.071,2.231,0.155,4.478,0.356,6.707c0.106,1.173,0.803,2.075,1.988,2.396c1.271,0.344,2.096-0.358,2.7-1.385
	c1.563-2.658,2.101-5.587,2.227-8.613c0.952-22.743-2.256-44.679-13.759-64.846c0.169,1.459,0.24,2.938,0.523,4.376
	C905.715,604.525,908.331,624.915,907.679,645.63z M832.736,574.078c-0.484,0.42-0.965,1.185-0.931,1.769
	c0.036,0.611,0.598,1.6,1.083,1.703c1.786,0.38,3.736,0.934,5.445,0.574c8.721-1.842,17.392-3.928,26.058-6.021
	c0.47-0.113,0.739-1.057,1.715-2.557c-10.88,1.647-21.239,1.271-31.355,3.627C834.04,573.338,833.27,573.614,832.736,574.078z
	 M871.773,552.169c-0.683-0.24-1.438-0.448-2.148-0.412c-3.68,0.185-7.361,0.398-11.025,0.761c-0.449,0.044-1.118,1.047-1.108,1.594
	c0.009,0.471,0.795,1.254,1.32,1.331c1.818,0.265,3.673,0.282,5.054,0.365c3.008-0.224,5.664,0.453,8.033-1.014
	c0.286-0.177,0.54-0.504,0.67-0.818C872.906,553.158,872.63,552.47,871.773,552.169z M853.762,589.71
	c-0.002-0.001,0.084,0.105,0.084,0.105c0.071-0.04,0.143-0.078,0.214-0.117C853.961,589.702,853.861,589.706,853.762,589.71z
	 M854.06,589.698c2.973-0.122,5.946-0.245,8.919-0.368C859.775,587.511,856.861,588.156,854.06,589.698z M697.3,883.879
	c1.831,0.056,3.732-0.402,5.507-0.933c1.005-0.301,1.91-1.145,2.699-1.91c1.978-1.918,1.02-5.86-1.636-6.301
	c-2.566-0.426-5.238-0.692-7.816-0.475c-11.216,0.943-22.438,1.743-33.573,3.64c-7.854,1.338-15.283,3.477-22.928,7.914
	c1.039,0.821,1.328,1.243,1.589,1.227C659.854,885.889,678.484,883.307,697.3,883.879z M701.739,949.767
	c4.584,2.431,9.498,0.234,14.618,1.268c7.382-0.677,15.163-1.338,22.93-2.133c2.542-0.26,4.374-2.049,3.633-3.16
	c-0.926-1.389-2.347-1.764-3.835-1.699c-2.97,0.129-5.938,0.368-8.898,0.651c-4.819,0.461-9.692,0.673-14.428,1.587
	C711.046,947.192,705.267,944.111,701.739,949.767z M716.416,937.516c-0.074-0.007-0.148-0.013-0.222-0.02l0.091,0.154
	C716.33,937.607,716.372,937.56,716.416,937.516z M736.031,937.679c0.504-0.475,1.023-1.245,1.011-1.87
	c-0.012-0.609-0.592-1.622-1.095-1.743c-5.517-1.329-11.081-1.768-16.435,0.564c-1.22,0.531-2.089,1.869-3.096,2.886
	c4.772,0.421,9.545,0.85,14.318,1.259C732.606,938.936,734.523,939.098,736.031,937.679z M699.137,891.314
	c-0.725-0.151-1.484-0.137-2.543-0.213c-2.295,0.352-4.903,0.699-7.488,1.173c-1.198,0.219-2.265,1.076-1.704,2.304
	c0.366,0.801,1.618,1.619,2.522,1.677c3.41,0.223,6.746-0.34,9.654-2.286c0.393-0.263,0.375-1.274,0.365-1.937
	C699.939,891.779,699.457,891.38,699.137,891.314z M710.047,939.148c2.207,0.313,4.178-0.481,6.038-1.589
	c-1.92-0.865-3.855-1.774-6.011-0.913c-0.577,0.23-0.978,0.9-1.46,1.368C709.089,938.408,709.526,939.075,710.047,939.148z
	 M716.194,937.496c-0.036,0.022-0.073,0.041-0.109,0.063c0.066,0.03,0.132,0.06,0.199,0.089
	C716.285,937.65,716.194,937.496,716.194,937.496z M906.614,357.937c-0.186-1.5-0.515-3.382-2.348-3.27
	c-2.41,0.147-2.543,2.378-2.528,4.224c0.034,4.116,0.205,8.231,0.36,12.345c0.44,11.637,0.827,23.277,1.396,34.908
	c0.183,3.737,0.602,7.533,2.7,10.813c0.296,0.463,1.32,0.762,1.915,0.65c0.6-0.114,1.513-0.797,1.556-1.294
	c0.422-4.854,0.691-9.721,1.004-14.585c0.181-10.215-1.948-20.224-2.526-30.35C907.888,366.883,907.169,362.413,906.614,357.937z
	 M914.907,358.163c-1.286-0.407-1.973,0.848-1.973,1.983c-0.002,3.31,0.07,6.628,0.325,9.926c0.083,1.078,0.916,2.156,2.258,1.862
	c0.535-0.117,1.122-0.899,1.309-1.497c0.326-1.044,0.36-2.177,0.533-3.395c-0.179-2.109-0.212-4.352-0.63-6.52
	C916.555,359.62,915.707,358.415,914.907,358.163z M1002.65,77.767c1.241,0.245,1.9-0.609,1.688-1.771
	c-0.083-0.456-0.886-0.781-1.363-1.165c-0.435,0.455-1.166,0.879-1.216,1.373C1001.706,76.714,1002.238,77.686,1002.65,77.767z
	 M556.21,950.826c-0.119,0.049-0.237,0.097-0.355,0.145l0.121,0.143C556.056,951.021,556.132,950.921,556.21,950.826z
	 M587.384,937.027c0.137-0.543-0.328-1.751-0.675-1.812c-1.415-0.246-3.014-0.557-4.319-0.138
	c-7.541,2.421-14.433,6.305-21.249,10.22c-2.031,1.167-3.342,3.59-4.931,5.528c9.918-4.047,19.842-8.08,29.738-12.18
	C586.567,938.388,587.224,937.659,587.384,937.027z M564.341,955.569c-3.394,2.283-6.136,5.176-9.716,10.701
	c6.662-2.019,10.035-4.251,13.286-6.695c2.159-1.624,2.728-3.526,1.436-4.572C567.509,953.514,565.875,954.537,564.341,955.569z
	 M555.855,950.971c-0.043,0.068-0.092,0.127-0.136,0.194c0.089-0.018,0.166-0.033,0.257-0.051
	C555.976,951.114,555.855,950.971,555.855,950.971z M555.718,951.165c-6.328,1.246-6.33,1.419-9.057,6.544
	C550.599,956.093,553.657,954.343,555.718,951.165z M696.869,442.133c0.682,0.137,1.607,0.1,2.152-0.264
	c9.126-6.089,15.88-14.66,23.349-22.481c0.183-0.193,0.023-0.714,0.02-1.081c-0.017-0.845-1.767-1.557-2.784-1.059
	c-10.015,4.907-17.43,12.764-24.167,21.376c-0.214,0.273-0.293,0.71-0.304,1.074C695.099,440.929,695.642,441.886,696.869,442.133z
	 M727.563,149.184c-5.033,7.884-9.976,15.826-14.897,23.781c-1.852,2.993-2.86,6.038-0.575,9.406
	c1.168,1.723,0.249,3.589-0.38,5.365c-0.62,1.752-1.228,3.525-1.605,5.338c-0.122,0.584,0.354,1.467,0.823,1.96
	c0.821,0.863,2.036,1.122,3.019,0.43c1.823-1.285,3.804-2.524,5.192-4.215c7.64-9.304,13.738-19.577,18.475-30.64
	c1.197-2.795,0.678-4.98-2.572-6.238c-1.875-0.726-0.963-2.461-0.531-3.842c0.114-0.734,0.353-1.474,0.315-2.199
	c-0.098-1.859-2.769-3.338-4.119-2.259C729.558,146.99,728.339,147.969,727.563,149.184z M723.602,229.901
	c2.018-2.688,3.759-5.587,5.558-8.435c4.261-6.746,5.265-5.705,2.142-17.186c-5.625,2.544-8.672,8.16-13.68,11.408
	c1.363-3.906,3.721-7.231,6.016-10.622c3.117-4.605,6.049-9.336,8.976-14.066c0.32-0.518,0.375-1.585,0.051-2.041
	c-0.814-1.145-2.1-0.8-2.848,0.008c-7.048,7.625-14.133,15.231-19.774,24.011c-0.585,0.911-1.057,2.015-1.18,3.075
	c-0.189,1.632,0.604,2.883,2.368,3.088c1.09,0.126,2.211-0.02,3.311-0.037c-1.015,1.993-2.063,3.98-3.054,5.995
	c-1.446,2.943-0.829,5.848,0.299,8.702c1.045,2.643,4.315,3.674,6.498,1.813C720.255,233.935,722.047,231.974,723.602,229.901z
	 M709.292,164.321c0.802,0.317,2.493-0.027,2.954-0.668c5.85-8.142,11.589-16.365,17.243-24.644c0.79-1.157,0.979-2.724,1.078-3.016
	c0.155-2.439-1.924-3.668-3.272-3.295c-3.544,0.981-5.441,3.736-7.185,6.613c-3.47,5.724-6.885,11.482-10.269,17.257
	c-0.746,1.274-1.363,2.646-1.865,4.036C707.422,162.135,707.755,163.713,709.292,164.321z M717.662,245.656
	c-0.352,0.655-0.818,1.393-0.79,2.075c0.042,1.031,0.166,2.394,0.823,2.972c0.681,0.6,2.258,0.892,3.052,0.509
	c1.639-0.79,3.397-1.844,4.436-3.277c3.742-5.16,7.567-10.315,9.74-16.416c0.483-1.356,1.276-2.779-0.002-4.163
	C728.183,231.708,721.154,239.145,717.662,245.656z M481.318,170.162c-0.41-1.101-1.306-1.96-2.571-1.589
	c-1.189,0.349-1.575,1.537-1.45,2.64c1.345,11.88,2.729,23.756,4.163,35.626c0.129,1.071,0.551,2.166,1.079,3.115
	c0.563,1.014,1.583,1.627,2.786,1.155c0.64-0.251,1.404-0.757,1.639-1.34c0.407-1.009,0.447-2.166,0.663-3.386
	c-1.588-5.761-1.154-11.804-1.772-17.747C485.195,182.291,483.546,176.141,481.318,170.162z M573.441,138.286
	c1.147-0.053,2.079-0.854,2.229-2.062c0.257-2.076-1.416-2.499-2.832-2.573c-7.498-0.394-14.622,1.094-21.302,4.558
	C558.829,139.6,566.14,138.622,573.441,138.286z M557.168,126.518c2.267-0.03,4.081-0.186,5.474-1.473
	c0.325-0.301,0.369-1.571,0.165-1.678c-2.723-1.433-5.476-1.297-8.062,0.345c-0.29,0.184-0.311,1.541-0.029,1.736
	C555.547,126.023,556.593,126.288,557.168,126.518z M770.772,356.995c4.68-0.927,9.01-2.114,14.17-0.765
	c4.091,1.069,8.57-1.95,12.178-4.761c0.265-0.206-0.078-1.865-0.28-1.894c-2.182-0.324-4.592,0.048-6.56-0.73
	c-8.292-3.278-14.329,1.842-20.834,5.236c-0.415,0.217-0.387,1.281-0.564,1.953C769.516,356.376,770.227,357.104,770.772,356.995z"
	/>
</svg>
