<svg width="647" height="731" viewBox="0 0 647 731" fill="none" xmlns="http://www.w3.org/2000/svg">
<rect width="647" height="731" fill="#1E1E1E"/>
<path d="M294.749 205H246.749L246.749 293H294.749V205Z" fill="#FC007A"/>
<path d="M996.786 492.8C996.52 508.267 996.12 521.067 995.586 531.2C992.653 584.8 980.386 624.133 958.786 649.2C936.92 674 900.386 688 849.186 691.2V598.8C857.72 595.867 864.12 591.333 868.386 585.2C872.386 578.8 874.52 570.933 874.786 561.6C875.586 540.533 876.253 519.6 876.786 498.8C877.053 477.733 877.186 457.067 877.186 436.8C877.186 416.533 877.053 397.067 876.786 378.4C876.52 359.467 876.12 341.867 875.586 325.6C875.32 317.333 873.053 310.133 868.786 304C865.078 298.437 859.657 294.083 852.523 290.938C829.613 284.629 815.734 284.824 793.749 290.491V290.113C786.577 292.851 781.323 297.08 777.986 302.8C773.986 308.933 771.853 316.533 771.586 325.6C770.786 346.933 770.253 366.933 769.986 385.6C769.453 404 769.186 422.267 769.186 440.4C769.186 458.267 769.453 477.067 769.986 496.8C770.253 516.267 770.786 537.867 771.586 561.6C771.853 570.933 773.986 578.8 777.986 585.2C781.72 591.333 787.853 595.867 796.386 598.8V691.2C761.72 689.067 734.253 682.267 713.986 670.8C693.453 659.067 678.386 641.867 668.786 619.2C658.92 596.267 652.92 566.933 650.786 531.2C650.253 521.6 649.853 509.067 649.586 493.6C649.053 478.133 648.786 461.733 648.786 444.4C648.786 427.067 649.053 410.533 649.586 394.8C649.853 379.067 650.253 366.133 650.786 356C652.653 320.8 658.52 291.867 668.386 269.2C677.986 246.533 693.053 229.333 713.586 217.6C733.34 206.164 760.061 199.287 793.749 196.971V196.783C817.509 194.364 830.82 194.448 852.749 196.783V197.026C901.557 200.387 936.636 214.046 957.986 238C979.586 262.267 992.12 301.6 995.586 356C996.12 365.6 996.52 378.133 996.786 393.6C997.053 409.067 997.186 425.6 997.186 443.2C997.186 460.533 997.053 477.067 996.786 492.8Z" fill="#03E9F4"/>
<path d="M616.48 204V294.4H567.68V548C567.68 600 553.814 637.067 526.08 659.2C498.08 681.067 451.947 692 387.68 692C379.147 692 371.413 691.733 364.48 691.2C357.547 690.667 350.88 689.6 344.48 688V602.4C352.747 602.4 360.214 602.533 366.88 602.8C373.547 603.067 380.48 603.2 387.68 603.2C408.48 603.2 423.28 600.533 432.08 595.2C440.88 589.6 445.28 578.667 445.28 562.4V68H567.68V204H616.48Z" fill="#03E9F4"/>
<path d="M404.48 204V294.4H353.28V204H404.48Z" fill="#03E9F4"/>
<path d="M-208.073 691.2L-208.087 691.45L-207.823 691.464V691.2H-208.073ZM-322.873 649.2L-323.055 649.371L-323.055 649.371L-322.873 649.2ZM-360.073 531.2L-360.323 531.204L-360.323 531.206L-360.073 531.2ZM-361.273 444.8L-361.523 444.802L-361.523 444.802L-361.273 444.8ZM-361.273 282.4L-361.023 282.402L-361.023 282.402L-361.273 282.4ZM-360.073 196L-360.323 195.994L-360.323 195.996L-360.073 196ZM-322.873 78.7999L-322.691 78.9718L-322.69 78.9708L-322.873 78.7999ZM-208.073 36.8H-207.823V36.5358L-208.087 36.5504L-208.073 36.8ZM-208.073 137.2L-207.998 137.438L-207.823 137.383V137.2H-208.073ZM-230.873 154.8L-231.088 154.672L-231.089 154.674L-230.873 154.8ZM-238.473 189.6L-238.223 189.611L-238.223 189.604L-238.473 189.6ZM-241.673 276.8L-241.923 276.793L-241.923 276.795L-241.673 276.8ZM-241.673 450.4L-241.923 450.405L-241.923 450.407L-241.673 450.4ZM-238.473 537.6L-238.223 537.596L-238.223 537.589L-238.473 537.6ZM-230.873 573.2L-231.093 573.32L-231.088 573.328L-230.873 573.2ZM-208.073 590.8H-207.823V590.617L-207.998 590.562L-208.073 590.8ZM-156.073 691.2H-156.323V691.468L-156.056 691.449L-156.073 691.2ZM-156.073 591.2L-156.146 590.961L-156.323 591.015V591.2H-156.073ZM-133.273 573.6L-133.055 573.723L-133.053 573.72L-133.273 573.6ZM-125.673 537.6L-125.923 537.589L-125.923 537.596L-125.673 537.6ZM-122.473 450.4L-122.223 450.407L-122.223 450.407L-122.473 450.4ZM-122.473 276.8L-122.723 276.807L-122.723 276.807L-122.473 276.8ZM-125.673 189.6L-125.923 189.604L-125.923 189.611L-125.673 189.6ZM-133.273 154.4L-133.055 154.277L-133.055 154.277L-133.273 154.4ZM-156.073 136.8H-156.323V136.985L-156.146 137.039L-156.073 136.8ZM-156.073 36.8L-156.056 36.5506L-156.323 36.5324V36.8H-156.073ZM-44.8729 79.6L-45.0564 79.7698L-45.0555 79.7708L-44.8729 79.6ZM-7.27289 196L-7.52274 196.009L-7.52264 196.011L-7.27289 196ZM-4.4729 282.8L-4.72285 282.805L-4.72285 282.805L-4.4729 282.8ZM-4.4729 445.6L-4.22295 445.605L-4.22295 445.605L-4.4729 445.6ZM-7.27289 531.2L-7.52265 531.189L-7.52273 531.191L-7.27289 531.2ZM-44.8729 648.4L-44.6894 648.57L-44.6894 648.57L-44.8729 648.4ZM33.0021 294.4H32.7521V294.65H33.0021V294.4ZM33.0021 204V203.75H32.7521V204H33.0021ZM81.8021 204V204.25H82.0521V204H81.8021ZM81.8021 68V67.75H81.5521V68H81.8021ZM204.202 68H204.452V67.75H204.202V68ZM217.402 595.2L217.268 595.411L217.273 595.414L217.402 595.2ZM282.602 602.8L282.612 603.05L282.612 603.05L282.602 602.8ZM305.002 602.4H305.252V602.15H305.002V602.4ZM305.002 688L305.063 688.243L305.252 688.195V688H305.002ZM285.002 691.2L284.983 690.951L284.983 690.951L285.002 691.2ZM123.402 659.2L123.246 659.395L123.248 659.397L123.402 659.2ZM81.8021 294.4H82.0521V294.15H81.8021V294.4ZM245.002 294.4H244.752V294.65H245.002V294.4ZM245.002 204V203.75H244.752V204H245.002ZM296.202 204H296.452V203.75H296.202V204ZM296.202 294.4V294.65H296.452V294.4H296.202ZM-127.334 42.25C-127.334 42.9864 -126.737 43.5833 -126.001 43.5833C-125.265 43.5833 -124.668 42.9864 -124.668 42.25C-124.668 41.5136 -125.265 40.9167 -126.001 40.9167C-126.737 40.9167 -127.334 41.5136 -127.334 42.25ZM-127.334 293.75C-127.334 294.486 -126.737 295.083 -126.001 295.083C-125.265 295.083 -124.668 294.486 -124.668 293.75C-124.668 293.014 -125.265 292.417 -126.001 292.417C-126.737 292.417 -127.334 293.014 -127.334 293.75ZM-9.83437 161.25C-9.83437 161.986 -9.23742 162.583 -8.50104 162.583C-7.76466 162.583 -7.1677 161.986 -7.1677 161.25C-7.1677 160.514 -7.76466 159.917 -8.50104 159.917C-9.23742 159.917 -9.83437 160.514 -9.83437 161.25ZM-253.334 161.25C-253.334 161.986 -252.737 162.583 -252.001 162.583C-251.265 162.583 -250.668 161.986 -250.668 161.25C-250.668 160.514 -251.265 159.917 -252.001 159.917C-252.737 159.917 -253.334 160.514 -253.334 161.25ZM-229.334 436.25C-229.334 436.986 -228.737 437.583 -228.001 437.583C-227.265 437.583 -226.668 436.986 -226.668 436.25C-226.668 435.514 -227.265 434.917 -228.001 434.917C-228.737 434.917 -229.334 435.514 -229.334 436.25ZM-229.334 687.75C-229.334 688.486 -228.737 689.083 -228.001 689.083C-227.265 689.083 -226.668 688.486 -226.668 687.75C-226.668 687.014 -227.265 686.417 -228.001 686.417C-228.737 686.417 -229.334 687.014 -229.334 687.75ZM-111.834 555.25C-111.834 555.986 -111.237 556.583 -110.501 556.583C-109.765 556.583 -109.168 555.986 -109.168 555.25C-109.168 554.514 -109.765 553.917 -110.501 553.917C-111.237 553.917 -111.834 554.514 -111.834 555.25ZM-355.334 555.25C-355.334 555.986 -354.737 556.583 -354.001 556.583C-353.265 556.583 -352.668 555.986 -352.668 555.25C-352.668 554.514 -353.265 553.917 -354.001 553.917C-354.737 553.917 -355.334 554.514 -355.334 555.25ZM205.666 436.25C205.666 436.986 206.263 437.583 206.999 437.583C207.735 437.583 208.332 436.986 208.332 436.25C208.332 435.514 207.735 434.917 206.999 434.917C206.263 434.917 205.666 435.514 205.666 436.25ZM205.666 687.75C205.666 688.486 206.263 689.083 206.999 689.083C207.735 689.083 208.332 688.486 208.332 687.75C208.332 687.014 207.735 686.417 206.999 686.417C206.263 686.417 205.666 687.014 205.666 687.75ZM323.166 555.25C323.166 555.986 323.763 556.583 324.499 556.583C325.235 556.583 325.832 555.986 325.832 555.25C325.832 554.514 325.235 553.917 324.499 553.917C323.763 553.917 323.166 554.514 323.166 555.25ZM79.6657 555.25C79.6657 555.986 80.2626 556.583 80.999 556.583C81.7354 556.583 82.3323 555.986 82.3323 555.25C82.3323 554.514 81.7354 553.917 80.999 553.917C80.2626 553.917 79.6657 554.514 79.6657 555.25ZM237.666 529.25C237.666 529.986 238.263 530.583 238.999 530.583C239.735 530.583 240.332 529.986 240.332 529.25C240.332 528.514 239.735 527.917 238.999 527.917C238.263 527.917 237.666 528.514 237.666 529.25ZM237.666 601.75C237.666 602.486 238.263 603.083 238.999 603.083C239.735 603.083 240.332 602.486 240.332 601.75C240.332 601.014 239.735 600.417 238.999 600.417C238.263 600.417 237.666 601.014 237.666 601.75ZM271.166 563.25C271.166 563.986 271.763 564.583 272.499 564.583C273.235 564.583 273.832 563.986 273.832 563.25C273.832 562.514 273.235 561.917 272.499 561.917C271.763 561.917 271.166 562.514 271.166 563.25ZM201.666 563.25C201.666 563.986 202.263 564.583 202.999 564.583C203.735 564.583 204.332 563.986 204.332 563.25C204.332 562.514 203.735 561.917 202.999 561.917C202.263 561.917 201.666 562.514 201.666 563.25ZM27.1656 136.25C27.1656 136.986 27.7626 137.583 28.499 137.583C29.2353 137.583 29.8323 136.986 29.8323 136.25C29.8323 135.514 29.2353 134.917 28.499 134.917C27.7626 134.917 27.1656 135.514 27.1656 136.25ZM-382.334 136.25C-382.334 136.986 -381.737 137.583 -381.001 137.583C-380.265 137.583 -379.668 136.986 -379.668 136.25C-379.668 135.514 -380.265 134.917 -381.001 134.917C-381.737 134.917 -382.334 135.514 -382.334 136.25ZM312.166 203.25C312.166 203.986 312.763 204.583 313.499 204.583C314.235 204.583 314.832 203.986 314.832 203.25C314.832 202.514 314.235 201.917 313.499 201.917C312.763 201.917 312.166 202.514 312.166 203.25ZM-97.3344 203.25C-97.3344 203.986 -96.7374 204.583 -96.001 204.583C-95.2647 204.583 -94.6677 203.986 -94.6677 203.25C-94.6677 202.514 -95.2647 201.917 -96.001 201.917C-96.7374 201.917 -97.3344 202.514 -97.3344 203.25ZM312.165 68.2491C312.165 68.9855 312.762 69.5825 313.498 69.5825C314.234 69.5825 314.831 68.9855 314.831 68.2491C314.831 67.5127 314.234 66.9158 313.498 66.9158C312.762 66.9158 312.165 67.5127 312.165 68.2491ZM27.6648 67.2509C27.6648 67.9873 28.2617 68.5842 28.9981 68.5842C29.7345 68.5842 30.3314 67.9873 30.3314 67.2509C30.3314 66.5145 29.7345 65.9175 28.9981 65.9175C28.2617 65.9175 27.6648 66.5145 27.6648 67.2509ZM312.166 294.25C312.166 294.986 312.763 295.583 313.499 295.583C314.235 295.583 314.832 294.986 314.832 294.25C314.832 293.514 314.235 292.917 313.499 292.917C312.763 292.917 312.166 293.514 312.166 294.25ZM-97.3344 294.25C-97.3344 294.986 -96.7374 295.583 -96.001 295.583C-95.2647 295.583 -94.6677 294.986 -94.6677 294.25C-94.6677 293.514 -95.2647 292.917 -96.001 292.917C-96.7374 292.917 -97.3344 293.514 -97.3344 294.25ZM82.6649 36.2507C82.6649 36.9871 83.2619 37.5841 83.9982 37.5841C84.7346 37.5841 85.3316 36.9871 85.3316 36.2507C85.3316 35.5143 84.7346 34.9174 83.9982 34.9174C83.2619 34.9174 82.6649 35.5143 82.6649 36.2507ZM80.6664 721.751C80.6664 722.487 81.2633 723.084 81.9997 723.084C82.7361 723.084 83.333 722.487 83.333 721.751C83.333 721.014 82.7361 720.417 81.9997 720.417C81.2633 720.417 80.6664 721.014 80.6664 721.751ZM205.665 36.2507C205.665 36.9871 206.262 37.5841 206.998 37.5841C207.735 37.5841 208.332 36.9871 208.332 36.2507C208.332 35.5143 207.735 34.9174 206.998 34.9174C206.262 34.9174 205.665 35.5143 205.665 36.2507ZM203.666 721.751C203.666 722.487 204.263 723.084 205 723.084C205.736 723.084 206.333 722.487 206.333 721.751C206.333 721.014 205.736 720.417 205 720.417C204.263 720.417 203.666 721.014 203.666 721.751ZM27.1656 591.25C27.1656 591.986 27.7626 592.583 28.499 592.583C29.2353 592.583 29.8323 591.986 29.8323 591.25C29.8323 590.514 29.2353 589.917 28.499 589.917C27.7626 589.917 27.1656 590.514 27.1656 591.25ZM-382.334 591.25C-382.334 591.986 -381.737 592.583 -381.001 592.583C-380.265 592.583 -379.668 591.986 -379.668 591.25C-379.668 590.514 -380.265 589.917 -381.001 589.917C-381.737 589.917 -382.334 590.514 -382.334 591.25ZM27.1656 36.25C27.1656 36.9864 27.7626 37.5833 28.499 37.5833C29.2353 37.5833 29.8323 36.9864 29.8323 36.25C29.8323 35.5136 29.2353 34.9167 28.499 34.9167C27.7626 34.9167 27.1656 35.5136 27.1656 36.25ZM-382.334 36.25C-382.334 36.9864 -381.737 37.5833 -381.001 37.5833C-380.265 37.5833 -379.668 36.9864 -379.668 36.25C-379.668 35.5136 -380.265 34.9167 -381.001 34.9167C-381.737 34.9167 -382.334 35.5136 -382.334 36.25ZM70.1667 690.251C70.1667 690.987 70.7636 691.584 71.5 691.584C72.2364 691.584 72.8333 690.987 72.8333 690.251C72.8333 689.515 72.2364 688.918 71.5 688.918C70.7636 688.918 70.1667 689.515 70.1667 690.251ZM-409.333 692.249C-409.333 692.985 -408.736 693.582 -408 693.582C-407.264 693.582 -406.667 692.985 -406.667 692.249C-406.667 691.513 -407.264 690.916 -408 690.916C-408.736 690.916 -409.333 691.513 -409.333 692.249ZM-362.334 -16.75C-362.334 -16.0136 -361.737 -15.4167 -361.001 -15.4167C-360.265 -15.4167 -359.668 -16.0136 -359.668 -16.75C-359.668 -17.4864 -360.265 -18.0833 -361.001 -18.0833C-361.737 -18.0833 -362.334 -17.4864 -362.334 -16.75ZM-362.334 721.75C-362.334 722.486 -361.737 723.083 -361.001 723.083C-360.265 723.083 -359.668 722.486 -359.668 721.75C-359.668 721.014 -360.265 720.417 -361.001 720.417C-361.737 720.417 -362.334 721.014 -362.334 721.75ZM-4.33437 -16.75C-4.33437 -16.0136 -3.73742 -15.4167 -3.00104 -15.4167C-2.26466 -15.4167 -1.6677 -16.0136 -1.6677 -16.75C-1.6677 -17.4864 -2.26466 -18.0833 -3.00104 -18.0833C-3.73742 -18.0833 -4.33437 -17.4864 -4.33437 -16.75ZM-4.33437 721.75C-4.33437 722.486 -3.73742 723.083 -3.00104 723.083C-2.26466 723.083 -1.6677 722.486 -1.6677 721.75C-1.6677 721.014 -2.26466 720.417 -3.00104 720.417C-3.73742 720.417 -4.33437 721.014 -4.33437 721.75ZM246.749 205V204.75H246.499L246.499 205L246.749 205ZM294.749 205H294.999V204.75H294.749V205ZM294.749 293V293.25H294.999V293H294.749ZM246.749 293L246.499 293L246.499 293.25H246.749V293ZM995.586 531.2L995.836 531.214L995.836 531.213L995.586 531.2ZM996.786 492.8L997.036 492.804L997.036 492.804L996.786 492.8ZM958.786 649.2L958.974 649.365L958.976 649.363L958.786 649.2ZM849.186 691.2H848.936V691.466L849.202 691.45L849.186 691.2ZM849.186 598.8L849.105 598.564L848.936 598.622V598.8H849.186ZM868.386 585.2L868.592 585.343L868.598 585.333L868.386 585.2ZM874.786 561.6L874.537 561.59L874.536 561.593L874.786 561.6ZM876.786 498.8L877.036 498.806L877.036 498.803L876.786 498.8ZM876.786 378.4L876.536 378.403L876.536 378.404L876.786 378.4ZM875.586 325.6L875.337 325.608L875.337 325.608L875.586 325.6ZM868.786 304L868.578 304.139L868.581 304.143L868.786 304ZM852.523 290.938L852.624 290.709L852.607 290.701L852.589 290.697L852.523 290.938ZM793.749 290.491H793.499V290.813L793.811 290.733L793.749 290.491ZM793.749 290.113H793.999V289.75L793.66 289.879L793.749 290.113ZM777.986 302.8L778.196 302.937L778.202 302.926L777.986 302.8ZM771.586 325.6L771.836 325.609L771.836 325.607L771.586 325.6ZM769.986 385.6L770.236 385.607L770.236 385.604L769.986 385.6ZM769.986 496.8L770.236 496.797L770.236 496.793L769.986 496.8ZM771.586 561.6L771.836 561.593L771.836 561.592L771.586 561.6ZM777.986 585.2L778.2 585.07L778.198 585.068L777.986 585.2ZM796.386 598.8H796.636V598.622L796.468 598.564L796.386 598.8ZM796.386 691.2L796.371 691.45L796.636 691.466V691.2H796.386ZM713.986 670.8L713.862 671.017L713.863 671.018L713.986 670.8ZM668.786 619.2L669.017 619.103L669.016 619.101L668.786 619.2ZM650.786 531.2L650.537 531.214L650.537 531.215L650.786 531.2ZM649.586 493.6L649.836 493.596L649.836 493.591L649.586 493.6ZM649.586 394.8L649.836 394.808L649.836 394.804L649.586 394.8ZM650.786 356L650.537 355.987L650.537 355.987L650.786 356ZM668.386 269.2L668.616 269.3L668.617 269.297L668.386 269.2ZM713.586 217.6L713.71 217.817L713.712 217.816L713.586 217.6ZM793.749 196.971L793.766 197.221L793.999 197.205V196.971H793.749ZM793.749 196.783L793.724 196.534L793.499 196.557V196.783H793.749ZM852.749 196.783H852.999V196.558L852.775 196.534L852.749 196.783ZM852.749 197.026H852.499V197.259L852.732 197.275L852.749 197.026ZM957.986 238L958.173 237.834L958.173 237.834L957.986 238ZM995.586 356L995.836 355.986L995.836 355.984L995.586 356ZM996.786 393.6L996.536 393.604L996.536 393.604L996.786 393.6ZM616.48 294.4V294.65H616.73V294.4H616.48ZM616.48 204H616.73V203.75H616.48V204ZM567.68 294.4V294.15H567.43V294.4H567.68ZM526.08 659.2L526.234 659.397L526.236 659.395L526.08 659.2ZM364.48 691.2L364.499 690.951L364.499 690.951L364.48 691.2ZM344.48 688H344.23V688.195L344.42 688.243L344.48 688ZM344.48 602.4V602.15H344.23V602.4H344.48ZM366.88 602.8L366.87 603.05L366.87 603.05L366.88 602.8ZM432.08 595.2L432.21 595.414L432.214 595.411L432.08 595.2ZM445.28 68V67.75H445.03V68H445.28ZM567.68 68H567.93V67.75H567.68V68ZM567.68 204H567.43V204.25H567.68V204ZM404.48 294.4V294.65H404.73V294.4H404.48ZM404.48 204H404.73V203.75H404.48V204ZM353.28 294.4H353.03V294.65H353.28V294.4ZM353.28 204V203.75H353.03V204H353.28ZM-208.059 690.95C-261.096 688.019 -299.287 674.029 -322.69 649.029L-323.055 649.371C-299.526 674.505 -261.184 688.515 -208.087 691.45L-208.059 690.95ZM-322.69 649.029C-346.097 624.027 -358.49 584.765 -359.823 531.194L-360.323 531.206C-358.989 584.835 -346.582 624.24 -323.055 649.371L-322.69 649.029ZM-359.823 531.196C-360.356 501.063 -360.756 472.264 -361.023 444.798L-361.523 444.802C-361.256 472.27 -360.856 501.07 -360.323 531.204L-359.823 531.196ZM-361.023 444.798C-361.29 417.332 -361.423 390.266 -361.423 363.6H-361.923C-361.923 390.267 -361.79 417.335 -361.523 444.802L-361.023 444.798ZM-361.423 363.6C-361.423 336.934 -361.29 309.868 -361.023 282.402L-361.523 282.398C-361.79 309.865 -361.923 336.932 -361.923 363.6H-361.423ZM-361.023 282.402C-360.756 254.67 -360.356 225.87 -359.823 196.004L-360.323 195.996C-360.856 225.863 -361.256 254.663 -361.523 282.398L-361.023 282.402ZM-359.823 196.006C-358.49 142.701 -346.097 103.708 -322.691 78.9718L-323.055 78.6281C-346.582 103.492 -358.989 142.632 -360.323 195.994L-359.823 196.006ZM-322.69 78.9708C-299.287 53.9713 -261.096 39.9813 -208.059 37.0496L-208.087 36.5504C-261.184 39.4853 -299.526 53.4953 -323.055 78.6291L-322.69 78.9708ZM-208.323 36.8V137.2H-207.823V36.8H-208.323ZM-208.148 136.962C-218.336 140.179 -225.987 146.082 -231.088 154.672L-230.658 154.928C-225.625 146.451 -218.077 140.621 -207.998 137.438L-208.148 136.962ZM-231.089 154.674C-235.919 162.993 -238.456 174.641 -238.723 189.596L-238.223 189.604C-237.957 174.692 -235.427 163.14 -230.657 154.926L-231.089 154.674ZM-238.723 189.589C-240.056 218.657 -241.123 247.725 -241.923 276.793L-241.423 276.807C-240.623 247.742 -239.556 218.677 -238.223 189.611L-238.723 189.589ZM-241.923 276.795C-242.456 305.864 -242.723 334.798 -242.723 363.6H-242.223C-242.223 334.802 -241.956 305.87 -241.423 276.805L-241.923 276.795ZM-242.723 363.6C-242.723 392.402 -242.456 421.336 -241.923 450.405L-241.423 450.395C-241.956 421.33 -242.223 392.398 -242.223 363.6H-242.723ZM-241.923 450.407C-241.123 479.208 -240.056 508.277 -238.723 537.611L-238.223 537.589C-239.556 508.257 -240.623 479.192 -241.423 450.393L-241.923 450.407ZM-238.723 537.604C-238.456 552.56 -235.919 564.471 -231.092 573.32L-230.653 573.08C-235.427 564.329 -237.957 552.507 -238.223 537.596L-238.723 537.604ZM-231.088 573.328C-225.987 581.918 -218.336 587.821 -208.148 591.038L-207.998 590.562C-218.077 587.379 -225.625 581.549 -230.658 573.072L-231.088 573.328ZM-208.323 590.8V691.2H-207.823V590.8H-208.323ZM-155.823 691.2V591.2H-156.323V691.2H-155.823ZM-155.999 591.439C-145.546 588.222 -137.89 582.318 -133.055 573.723L-133.491 573.477C-138.256 581.948 -145.8 587.778 -156.146 590.961L-155.999 591.439ZM-133.053 573.72C-128.227 564.871 -125.69 552.826 -125.423 537.604L-125.923 537.596C-126.189 552.774 -128.719 564.729 -133.492 573.48L-133.053 573.72ZM-125.423 537.611C-124.09 508.277 -123.023 479.208 -122.223 450.407L-122.723 450.393C-123.523 479.192 -124.589 508.257 -125.923 537.589L-125.423 537.611ZM-122.223 450.407C-121.423 421.338 -121.023 392.402 -121.023 363.6H-121.523C-121.523 392.398 -121.923 421.329 -122.723 450.393L-122.223 450.407ZM-121.023 363.6C-121.023 334.798 -121.423 305.862 -122.223 276.793L-122.723 276.807C-121.923 305.871 -121.523 334.802 -121.523 363.6H-121.023ZM-122.223 276.793C-123.023 247.725 -124.09 218.657 -125.423 189.589L-125.923 189.611C-124.589 218.677 -123.523 247.742 -122.723 276.807L-122.223 276.793ZM-125.423 189.596C-125.69 174.641 -128.227 162.861 -133.055 154.277L-133.491 154.523C-128.719 163.006 -126.189 174.693 -125.923 189.604L-125.423 189.596ZM-133.055 154.277C-137.89 145.682 -145.546 139.778 -155.999 136.561L-156.146 137.039C-145.8 140.222 -138.256 146.051 -133.491 154.523L-133.055 154.277ZM-155.823 136.8V36.8H-156.323V136.8H-155.823ZM-156.09 37.0494C-105.189 40.5139 -68.1958 54.7686 -45.0564 79.7698L-44.6894 79.4302C-67.95 54.2981 -105.09 40.0195 -156.056 36.5506L-156.09 37.0494ZM-45.0555 79.7708C-21.9143 104.508 -9.38839 143.237 -7.52273 196.009L-7.02304 195.991C-8.8907 143.163 -21.4315 104.292 -44.6903 79.4292L-45.0555 79.7708ZM-7.52264 196.011C-6.18938 226.142 -5.25614 255.074 -4.72285 282.805L-4.22295 282.795C-4.75632 255.06 -5.6897 226.124 -7.02313 195.989L-7.52264 196.011ZM-4.72285 282.805C-4.18956 310.27 -3.92291 337.468 -3.92291 364.4H-3.42291C-3.42291 337.465 -3.68959 310.263 -4.22295 282.795L-4.72285 282.805ZM-3.92291 364.4C-3.92291 391.065 -4.18956 418.13 -4.72285 445.595L-4.22295 445.605C-3.68959 418.137 -3.42291 391.068 -3.42291 364.4H-3.92291ZM-4.72285 445.595C-5.25613 472.793 -6.18938 501.324 -7.52264 531.189L-7.02314 531.211C-5.68971 501.343 -4.75632 472.807 -4.22295 445.605L-4.72285 445.595ZM-7.52273 531.191C-9.3884 584.23 -21.9144 623.226 -45.0564 648.23L-44.6894 648.57C-21.4314 623.44 -8.89069 584.304 -7.02304 531.209L-7.52273 531.191ZM-45.0564 648.23C-68.1958 673.231 -105.189 687.486 -156.09 690.951L-156.056 691.449C-105.09 687.981 -67.95 673.702 -44.6894 648.57L-45.0564 648.23ZM33.2521 294.4V204H32.7521V294.4H33.2521ZM33.0021 204.25H81.8021V203.75H33.0021V204.25ZM82.0521 204V68H81.5521V204H82.0521ZM81.8021 68.25H204.202V67.75H81.8021V68.25ZM203.952 68V562.4H204.452V68H203.952ZM203.952 562.4C203.952 578.702 208.362 589.743 217.268 595.411L217.536 594.989C208.842 589.457 204.452 578.631 204.452 562.4H203.952ZM217.273 595.414C226.135 600.785 240.994 603.45 261.802 603.45V602.95C241.01 602.95 226.269 600.282 217.532 594.986L217.273 595.414ZM261.802 603.45C269.005 603.45 275.942 603.317 282.612 603.05L282.592 602.55C275.929 602.817 268.999 602.95 261.802 602.95V603.45ZM282.612 603.05C289.275 602.783 296.738 602.65 305.002 602.65V602.15C296.733 602.15 289.263 602.283 282.592 602.55L282.612 603.05ZM304.752 602.4V688H305.252V602.4H304.752ZM304.941 687.757C298.556 689.354 291.903 690.418 284.983 690.951L285.021 691.449C291.968 690.915 298.648 689.846 305.063 688.243L304.941 687.757ZM284.983 690.951C278.057 691.483 270.33 691.75 261.802 691.75V692.25C270.34 692.25 278.08 691.983 285.021 691.449L284.983 690.951ZM261.802 691.75C197.551 691.75 151.489 680.817 123.556 659.003L123.248 659.397C151.316 681.316 197.519 692.25 261.802 692.25V691.75ZM123.558 659.005C95.9079 636.938 82.0521 599.961 82.0521 548H81.5521C81.5521 600.039 95.4297 637.196 123.246 659.395L123.558 659.005ZM82.0521 548V294.4H81.5521V548H82.0521ZM81.8021 294.15H33.0021V294.65H81.8021V294.15ZM245.252 294.4V204H244.752V294.4H245.252ZM245.002 204.25H296.202V203.75H245.002V204.25ZM295.952 204V294.4H296.452V204H295.952ZM296.202 294.15H245.002V294.65H296.202V294.15ZM-157.501 553.5C-157.501 574.625 -174.626 591.75 -195.751 591.75V592.25C-174.35 592.25 -157.001 574.901 -157.001 553.5H-157.501ZM-195.751 591.75C-216.876 591.75 -234.001 574.625 -234.001 553.5H-234.501C-234.501 574.901 -217.152 592.25 -195.751 592.25V591.75ZM-234.001 553.5C-234.001 532.375 -216.876 515.25 -195.751 515.25V514.75C-217.152 514.75 -234.501 532.099 -234.501 553.5H-234.001ZM-195.751 515.25C-174.626 515.25 -157.501 532.375 -157.501 553.5H-157.001C-157.001 532.099 -174.35 514.75 -195.751 514.75V515.25ZM-126.501 553.5C-126.501 574.625 -143.626 591.75 -164.751 591.75V592.25C-143.35 592.25 -126.001 574.901 -126.001 553.5H-126.501ZM-164.751 591.75C-185.876 591.75 -203.001 574.625 -203.001 553.5H-203.501C-203.501 574.901 -186.152 592.25 -164.751 592.25V591.75ZM-203.001 553.5C-203.001 532.375 -185.876 515.25 -164.751 515.25V514.75C-186.152 514.75 -203.501 532.099 -203.501 553.5H-203.001ZM-164.751 515.25C-143.626 515.25 -126.501 532.375 -126.501 553.5H-126.001C-126.001 532.099 -143.35 514.75 -164.751 514.75V515.25ZM-110.501 562C-110.501 631.457 -165.018 687.75 -232.251 687.75V688.25C-164.727 688.25 -110.001 631.718 -110.001 562H-110.501ZM-232.251 687.75C-299.484 687.75 -354.001 631.457 -354.001 562H-354.501C-354.501 631.718 -299.775 688.25 -232.251 688.25V687.75ZM-354.001 562C-354.001 492.543 -299.484 436.25 -232.251 436.25V435.75C-299.775 435.75 -354.501 492.282 -354.501 562H-354.001ZM-232.251 436.25C-165.018 436.25 -110.501 492.543 -110.501 562H-110.001C-110.001 492.282 -164.727 435.75 -232.251 435.75V436.25ZM-296.501 360C-296.501 449.464 -300.194 530.456 -306.165 589.077C-309.151 618.39 -312.705 642.101 -316.649 658.48C-318.622 666.671 -320.689 673.015 -322.824 677.306C-323.892 679.452 -324.971 681.071 -326.053 682.15C-327.135 683.229 -328.201 683.75 -329.251 683.75V684.25C-328.023 684.25 -326.837 683.638 -325.7 682.504C-324.564 681.371 -323.457 679.699 -322.377 677.529C-320.216 673.188 -318.138 666.801 -316.163 658.597C-312.211 642.185 -308.654 618.448 -305.668 589.128C-299.695 530.485 -296.001 449.476 -296.001 360H-296.501ZM-329.251 683.75C-330.301 683.75 -331.367 683.229 -332.449 682.15C-333.531 681.071 -334.61 679.452 -335.678 677.306C-337.814 673.015 -339.881 666.671 -341.853 658.48C-345.797 642.101 -349.351 618.39 -352.337 589.077C-358.308 530.456 -362.001 449.464 -362.001 360H-362.501C-362.501 449.476 -358.807 530.485 -352.834 589.128C-349.848 618.448 -346.291 642.185 -342.339 658.597C-340.364 666.801 -338.286 673.188 -336.125 677.529C-335.045 679.699 -333.938 681.371 -332.802 682.504C-331.665 683.638 -330.479 684.25 -329.251 684.25V683.75ZM-362.001 360C-362.001 270.536 -358.308 189.544 -352.337 130.923C-349.351 101.61 -345.797 77.8991 -341.853 61.5201C-339.881 53.3285 -337.814 46.9847 -335.678 42.6939C-334.61 40.548 -333.531 38.9291 -332.449 37.8498C-331.367 36.7711 -330.301 36.25 -329.251 36.25V35.75C-330.479 35.75 -331.665 36.3621 -332.802 37.4957C-333.938 38.6288 -335.045 40.3011 -336.125 42.4711C-338.286 46.8123 -340.364 53.1992 -342.339 61.403C-346.291 77.8146 -349.848 101.552 -352.834 130.872C-358.807 189.515 -362.501 270.524 -362.501 360H-362.001ZM-329.251 36.25C-328.201 36.25 -327.135 36.7711 -326.053 37.8498C-324.971 38.9291 -323.892 40.548 -322.824 42.6939C-320.689 46.9847 -318.622 53.3285 -316.649 61.5201C-312.705 77.8991 -309.151 101.61 -306.165 130.923C-300.194 189.544 -296.501 270.536 -296.501 360H-296.001C-296.001 270.524 -299.695 189.515 -305.668 130.872C-308.654 101.552 -312.211 77.8146 -316.163 61.403C-318.138 53.1992 -320.216 46.8123 -322.377 42.4711C-323.457 40.3011 -324.564 38.6288 -325.7 37.4957C-326.837 36.3621 -328.023 35.75 -329.251 35.75V36.25ZM-118.501 372.5C-118.501 489.99 -125.44 596.353 -136.658 673.338C-142.267 711.832 -148.944 742.971 -156.354 764.481C-160.06 775.237 -163.944 783.571 -167.96 789.21C-171.981 794.858 -176.095 797.75 -180.251 797.75V798.25C-175.847 798.25 -171.603 795.189 -167.552 789.5C-163.496 783.804 -159.593 775.419 -155.881 764.644C-148.456 743.09 -141.774 711.916 -136.163 673.41C-124.941 596.394 -118.001 490.007 -118.001 372.5H-118.501ZM-180.251 797.75C-184.407 797.75 -188.521 794.858 -192.543 789.21C-196.558 783.571 -200.442 775.237 -204.148 764.481C-211.558 742.971 -218.235 711.832 -223.844 673.338C-235.062 596.353 -242.001 489.99 -242.001 372.5H-242.501C-242.501 490.007 -235.561 596.394 -224.339 673.41C-218.728 711.916 -212.046 743.09 -204.621 764.644C-200.909 775.419 -197.006 783.804 -192.95 789.5C-188.899 795.189 -184.655 798.25 -180.251 798.25V797.75ZM-242.001 372.5C-242.001 255.01 -235.062 148.647 -223.844 71.6621C-218.235 33.1676 -211.558 2.02901 -204.148 -19.4807C-200.442 -30.2371 -196.558 -38.5707 -192.543 -44.2103C-188.521 -49.8581 -184.407 -52.75 -180.251 -52.75V-53.25C-184.655 -53.25 -188.899 -50.1887 -192.95 -44.5004C-197.006 -38.8039 -200.909 -30.4186 -204.621 -19.6435C-212.046 1.90974 -218.728 33.0841 -224.339 71.59C-235.561 148.606 -242.501 254.993 -242.501 372.5H-242.001ZM-180.251 -52.75C-176.095 -52.75 -171.981 -49.8581 -167.96 -44.2103C-163.944 -38.5707 -160.06 -30.2371 -156.354 -19.4807C-148.944 2.02901 -142.267 33.1676 -136.658 71.6621C-125.44 148.647 -118.501 255.01 -118.501 372.5H-118.001C-118.001 254.993 -124.941 148.606 -136.163 71.59C-141.774 33.0841 -148.456 1.90974 -155.881 -19.6435C-159.593 -30.4186 -163.496 -38.8039 -167.552 -44.5004C-171.603 -50.1887 -175.847 -53.25 -180.251 -53.25V-52.75ZM-177.501 363C-177.501 453.293 -181.083 535.035 -186.872 594.2C-189.768 623.784 -193.214 647.715 -197.039 664.246C-198.952 672.514 -200.956 678.917 -203.027 683.249C-204.063 685.415 -205.11 687.049 -206.159 688.138C-207.209 689.227 -208.239 689.75 -209.251 689.75V690.25C-208.054 690.25 -206.901 689.629 -205.799 688.485C-204.697 687.342 -203.624 685.654 -202.576 683.464C-200.481 679.084 -198.467 672.638 -196.552 664.359C-192.72 647.796 -189.271 623.84 -186.375 594.248C-180.583 535.063 -177.001 453.304 -177.001 363H-177.501ZM-209.251 689.75C-210.263 689.75 -211.293 689.227 -212.343 688.138C-213.392 687.049 -214.439 685.415 -215.475 683.249C-217.546 678.917 -219.55 672.514 -221.463 664.246C-225.288 647.715 -228.735 623.784 -231.63 594.2C-237.419 535.035 -241.001 453.293 -241.001 363H-241.501C-241.501 453.304 -237.919 535.063 -232.127 594.248C-229.231 623.84 -225.783 647.796 -221.95 664.359C-220.035 672.638 -218.021 679.084 -215.926 683.464C-214.879 685.654 -213.805 687.342 -212.703 688.485C-211.601 689.629 -210.449 690.25 -209.251 690.25V689.75ZM-241.001 363C-241.001 272.707 -237.419 190.965 -231.63 131.8C-228.735 102.216 -225.288 78.285 -221.463 61.7536C-219.55 53.4859 -217.546 47.0826 -215.475 42.7513C-214.439 40.585 -213.392 38.9509 -212.343 37.8617C-211.293 36.7727 -210.263 36.25 -209.251 36.25V35.75C-210.449 35.75 -211.601 36.3711 -212.703 37.5148C-213.805 38.6584 -214.879 40.346 -215.926 42.5356C-218.021 46.9163 -220.035 53.3615 -221.95 61.6409C-225.783 78.2038 -229.231 102.16 -232.127 131.752C-237.919 190.937 -241.501 272.696 -241.501 363H-241.001ZM-209.251 36.25C-208.239 36.25 -207.209 36.7727 -206.159 37.8617C-205.11 38.9509 -204.063 40.585 -203.027 42.7513C-200.956 47.0826 -198.952 53.4859 -197.039 61.7536C-193.214 78.285 -189.768 102.216 -186.872 131.8C-181.083 190.965 -177.501 272.707 -177.501 363H-177.001C-177.001 272.696 -180.583 190.937 -186.375 131.752C-189.271 102.16 -192.72 78.2038 -196.552 61.6409C-198.467 53.3615 -200.481 46.9163 -202.576 42.5356C-203.624 40.346 -204.697 38.6584 -205.799 37.5148C-206.901 36.3711 -208.054 35.75 -209.251 35.75V36.25ZM-120.501 614C-120.501 656.909 -160.426 691.75 -209.751 691.75V692.25C-160.217 692.25 -120.001 657.247 -120.001 614H-120.501ZM-209.751 691.75C-259.076 691.75 -299.001 656.909 -299.001 614H-299.501C-299.501 657.247 -259.285 692.25 -209.751 692.25V691.75ZM-299.001 614C-299.001 571.091 -259.076 536.25 -209.751 536.25V535.75C-259.285 535.75 -299.501 570.753 -299.501 614H-299.001ZM-209.751 536.25C-160.426 536.25 -120.501 571.091 -120.501 614H-120.001C-120.001 570.753 -160.217 535.75 -209.751 535.75V536.25ZM-8.50104 168C-8.50104 237.457 -63.0179 293.75 -130.251 293.75V294.25C-62.7267 294.25 -8.00104 237.718 -8.00104 168H-8.50104ZM-130.251 293.75C-197.484 293.75 -252.001 237.457 -252.001 168H-252.501C-252.501 237.718 -197.775 294.25 -130.251 294.25V293.75ZM-252.001 168C-252.001 98.5425 -197.484 42.25 -130.251 42.25V41.75C-197.775 41.75 -252.501 98.2817 -252.501 168H-252.001ZM-130.251 42.25C-63.0179 42.25 -8.50104 98.5425 -8.50104 168H-8.00104C-8.00104 98.2817 -62.7267 41.75 -130.251 41.75V42.25ZM-96.501 161C-96.501 177.995 -109.608 191.75 -125.751 191.75V192.25C-109.309 192.25 -96.001 178.247 -96.001 161H-96.501ZM-125.751 191.75C-141.894 191.75 -155.001 177.995 -155.001 161H-155.501C-155.501 178.247 -142.193 192.25 -125.751 192.25V191.75ZM-155.001 161C-155.001 144.005 -141.894 130.25 -125.751 130.25V129.75C-142.193 129.75 -155.501 143.753 -155.501 161H-155.001ZM-125.751 130.25C-109.608 130.25 -96.501 144.005 -96.501 161H-96.001C-96.001 143.753 -109.309 129.75 -125.751 129.75V130.25ZM-157.501 174.5C-157.501 195.625 -174.626 212.75 -195.751 212.75V213.25C-174.35 213.25 -157.001 195.901 -157.001 174.5H-157.501ZM-195.751 212.75C-216.876 212.75 -234.001 195.625 -234.001 174.5H-234.501C-234.501 195.901 -217.152 213.25 -195.751 213.25V212.75ZM-234.001 174.5C-234.001 153.375 -216.876 136.25 -195.751 136.25V135.75C-217.152 135.75 -234.501 153.099 -234.501 174.5H-234.001ZM-195.751 136.25C-174.626 136.25 -157.501 153.375 -157.501 174.5H-157.001C-157.001 153.099 -174.35 135.75 -195.751 135.75V136.25ZM-126.501 174.5C-126.501 195.625 -143.626 212.75 -164.751 212.75V213.25C-143.35 213.25 -126.001 195.901 -126.001 174.5H-126.501ZM-164.751 212.75C-185.876 212.75 -203.001 195.625 -203.001 174.5H-203.501C-203.501 195.901 -186.152 213.25 -164.751 213.25V212.75ZM-203.001 174.5C-203.001 153.375 -185.876 136.25 -164.751 136.25V135.75C-186.152 135.75 -203.501 153.099 -203.501 174.5H-203.001ZM-164.751 136.25C-143.626 136.25 -126.501 153.375 -126.501 174.5H-126.001C-126.001 153.099 -143.35 135.75 -164.751 135.75V136.25ZM-126.251 42.25V293.75H-125.751V42.25H-126.251ZM-8.50104 161H-252.001V161.5H-8.50104V161ZM-198.501 555C-198.501 571.995 -211.608 585.75 -227.751 585.75V586.25C-211.309 586.25 -198.001 572.247 -198.001 555H-198.501ZM-227.751 585.75C-243.894 585.75 -257.001 571.995 -257.001 555H-257.501C-257.501 572.247 -244.193 586.25 -227.751 586.25V585.75ZM-257.001 555C-257.001 538.005 -243.894 524.25 -227.751 524.25V523.75C-244.193 523.75 -257.501 537.753 -257.501 555H-257.001ZM-227.751 524.25C-211.608 524.25 -198.501 538.005 -198.501 555H-198.001C-198.001 537.753 -211.309 523.75 -227.751 523.75V524.25ZM-228.251 436.25V687.75H-227.751V436.25H-228.251ZM-110.501 555H-354.001V555.5H-110.501V555ZM324.499 562C324.499 631.457 269.982 687.75 202.749 687.75V688.25C270.273 688.25 324.999 631.718 324.999 562H324.499ZM202.749 687.75C135.516 687.75 80.999 631.457 80.999 562H80.499C80.499 631.718 135.225 688.25 202.749 688.25V687.75ZM80.999 562C80.999 492.543 135.516 436.25 202.749 436.25V435.75C135.225 435.75 80.499 492.282 80.499 562H80.999ZM202.749 436.25C269.982 436.25 324.499 492.543 324.499 562H324.999C324.999 492.282 270.273 435.75 202.749 435.75V436.25ZM236.499 555C236.499 571.995 223.392 585.75 207.249 585.75V586.25C223.691 586.25 236.999 572.247 236.999 555H236.499ZM207.249 585.75C191.106 585.75 177.999 571.995 177.999 555H177.499C177.499 572.247 190.807 586.25 207.249 586.25V585.75ZM177.999 555C177.999 538.005 191.106 524.25 207.249 524.25V523.75C190.807 523.75 177.499 537.753 177.499 555H177.999ZM207.249 524.25C223.392 524.25 236.499 538.005 236.499 555H236.999C236.999 537.753 223.691 523.75 207.249 523.75V524.25ZM206.749 436.25V687.75H207.249V436.25H206.749ZM324.499 555H80.999V555.5H324.499V555ZM272.499 565.5C272.499 585.53 256.931 601.75 237.749 601.75V602.25C257.227 602.25 272.999 585.786 272.999 565.5H272.499ZM237.749 601.75C218.567 601.75 202.999 585.53 202.999 565.5H202.499C202.499 585.786 218.271 602.25 237.749 602.25V601.75ZM202.999 565.5C202.999 545.47 218.567 529.25 237.749 529.25V528.75C218.271 528.75 202.499 545.214 202.499 565.5H202.999ZM237.749 529.25C256.931 529.25 272.499 545.47 272.499 565.5H272.999C272.999 545.214 257.227 528.75 237.749 528.75V529.25ZM246.499 563C246.499 567.861 243.002 571.75 238.749 571.75V572.25C243.332 572.25 246.999 568.08 246.999 563H246.499ZM238.749 571.75C234.496 571.75 230.999 567.861 230.999 563H230.499C230.499 568.08 234.166 572.25 238.749 572.25V571.75ZM230.999 563C230.999 558.139 234.496 554.25 238.749 554.25V553.75C234.166 553.75 230.499 557.92 230.499 563H230.999ZM238.749 554.25C243.002 554.25 246.499 558.139 246.499 563H246.999C246.999 557.92 243.332 553.75 238.749 553.75V554.25ZM238.749 529.25V601.75H239.249V529.25H238.749ZM272.499 563H202.999V563.5H272.499V563ZM28.499 136H-381.001V136.5H28.499V136ZM313.499 203H-96.001V203.5H313.499V203ZM313.499 67.9991L28.999 67.0009L28.9972 67.5009L313.497 68.4991L313.499 67.9991ZM313.499 294H-96.001V294.5H313.499V294ZM83.7482 36.25L81.7497 721.75L82.2497 721.752L84.2482 36.2515L83.7482 36.25ZM206.748 36.25L204.75 721.75L205.25 721.752L207.248 36.2515L206.748 36.25ZM28.499 591H-381.001V591.5H28.499V591ZM28.499 36H-381.001V36.5H28.499V36ZM71.499 690.001L-408.001 691.999L-407.999 692.499L71.501 690.501L71.499 690.001ZM-361.251 -16.75L-361.251 721.75L-360.751 721.75L-360.751 -16.75L-361.251 -16.75ZM-3.25104 -16.75V721.75H-2.75104V-16.75H-3.25104ZM246.749 205.25H294.749V204.75H246.749V205.25ZM294.499 205V293H294.999V205H294.499ZM294.749 292.75H246.749V293.25H294.749V292.75ZM246.999 293L246.999 205L246.499 205L246.499 293L246.999 293ZM995.836 531.213C996.37 521.076 996.77 508.273 997.036 492.804L996.536 492.796C996.27 508.261 995.87 521.058 995.337 531.187L995.836 531.213ZM958.976 649.363C980.628 624.236 992.901 584.837 995.836 531.214L995.337 531.186C992.405 584.763 980.145 624.031 958.597 649.037L958.976 649.363ZM849.202 691.45C900.433 688.248 937.044 674.237 958.974 649.365L958.599 649.035C936.795 673.763 900.34 687.752 849.171 690.95L849.202 691.45ZM848.936 598.8V691.2H849.436V598.8H848.936ZM868.181 585.057C863.951 591.139 857.599 595.644 849.105 598.564L849.268 599.036C857.841 596.09 864.289 591.528 868.592 585.343L868.181 585.057ZM874.536 561.593C874.271 570.892 872.146 578.713 868.174 585.068L868.598 585.333C872.627 578.887 874.769 570.974 875.036 561.607L874.536 561.593ZM876.536 498.794C876.003 519.593 875.337 540.525 874.537 561.59L875.036 561.609C875.836 540.542 876.503 519.607 877.036 498.806L876.536 498.794ZM876.936 436.8C876.936 457.066 876.803 477.731 876.536 498.797L877.036 498.803C877.303 477.735 877.436 457.068 877.436 436.8H876.936ZM876.536 378.404C876.803 397.069 876.936 416.534 876.936 436.8H877.436C877.436 416.532 877.303 397.064 877.036 378.396L876.536 378.404ZM875.337 325.608C875.87 341.873 876.27 359.471 876.536 378.403L877.036 378.396C876.77 359.462 876.37 341.86 875.836 325.592L875.337 325.608ZM868.581 304.143C872.817 310.232 875.071 317.384 875.337 325.608L875.836 325.592C875.568 317.282 873.289 310.034 868.992 303.857L868.581 304.143ZM852.422 291.166C859.52 294.296 864.9 298.622 868.578 304.139L868.994 303.861C865.255 298.253 859.794 293.87 852.624 290.709L852.422 291.166ZM793.811 290.733C804.792 287.902 813.736 286.442 822.788 286.473C831.841 286.505 841.015 288.028 852.456 291.179L852.589 290.697C841.121 287.539 831.901 286.005 822.79 285.973C813.679 285.942 804.691 287.412 793.686 290.249L793.811 290.733ZM793.499 290.113V290.491H793.999V290.113H793.499ZM778.202 302.926C781.506 297.263 786.711 293.067 793.838 290.346L793.66 289.879C786.444 292.634 781.141 296.897 777.771 302.674L778.202 302.926ZM771.836 325.607C772.102 316.576 774.226 309.023 778.196 302.937L777.777 302.663C773.747 308.844 771.604 316.491 771.337 325.593L771.836 325.607ZM770.236 385.604C770.503 366.939 771.036 346.941 771.836 325.609L771.337 325.591C770.537 346.926 770.003 366.928 769.736 385.596L770.236 385.604ZM769.436 440.4C769.436 422.269 769.703 404.005 770.236 385.607L769.737 385.593C769.203 403.995 768.936 422.264 768.936 440.4H769.436ZM770.236 496.793C769.703 477.062 769.436 458.264 769.436 440.4H768.936C768.936 458.269 769.203 477.071 769.737 496.807L770.236 496.793ZM771.836 561.592C771.036 537.86 770.503 516.261 770.236 496.797L769.736 496.803C770.003 516.272 770.537 537.874 771.337 561.608L771.836 561.592ZM778.198 585.068C774.227 578.713 772.102 570.892 771.836 561.593L771.337 561.607C771.604 570.974 773.746 578.887 777.774 585.333L778.198 585.068ZM796.468 598.564C787.975 595.644 781.896 591.142 778.2 585.07L777.773 585.33C781.544 591.525 787.731 596.089 796.305 599.036L796.468 598.564ZM796.636 691.2V598.8H796.136V691.2H796.636ZM713.863 671.018C734.175 682.51 761.684 689.315 796.371 691.45L796.402 690.95C761.756 688.818 734.331 682.024 714.11 670.582L713.863 671.018ZM668.556 619.298C678.177 642.012 693.28 659.255 713.862 671.017L714.11 670.583C693.627 658.878 678.596 641.721 669.017 619.103L668.556 619.298ZM650.537 531.215C652.671 566.966 658.675 596.33 668.557 619.299L669.016 619.101C659.165 596.203 653.168 566.901 651.036 531.185L650.537 531.215ZM649.336 493.604C649.603 509.073 650.003 521.609 650.537 531.214L651.036 531.186C650.503 521.591 650.103 509.061 649.836 493.596L649.336 493.604ZM648.536 444.4C648.536 461.736 648.803 478.139 649.337 493.609L649.836 493.591C649.303 478.128 649.036 461.731 649.036 444.4H648.536ZM649.337 394.792C648.803 410.528 648.536 427.064 648.536 444.4H649.036C649.036 427.069 649.303 410.539 649.836 394.808L649.337 394.792ZM650.537 355.987C650.003 366.124 649.603 379.061 649.336 394.796L649.836 394.804C650.103 379.072 650.503 366.142 651.036 356.013L650.537 355.987ZM668.157 269.1C658.275 291.803 652.404 320.769 650.537 355.987L651.036 356.013C652.902 320.831 658.765 291.93 668.616 269.3L668.157 269.1ZM713.462 217.383C692.879 229.145 677.777 246.388 668.156 269.102L668.617 269.297C678.196 246.679 693.227 229.522 713.71 217.817L713.462 217.383ZM793.732 196.722C760.023 199.039 733.26 205.921 713.461 217.384L713.712 217.816C733.421 206.406 760.1 199.535 793.766 197.221L793.732 196.722ZM793.499 196.783V196.971H793.999V196.783H793.499ZM852.775 196.534C830.829 194.198 817.501 194.114 793.724 196.534L793.774 197.031C817.518 194.614 830.811 194.699 852.722 197.031L852.775 196.534ZM852.999 197.026V196.783H852.499V197.026H852.999ZM958.173 237.834C936.761 213.81 901.605 200.14 852.766 196.776L852.732 197.275C901.508 200.635 936.511 214.281 957.8 238.166L958.173 237.834ZM995.836 355.984C992.368 301.563 979.828 262.162 958.173 237.834L957.8 238.166C979.345 262.371 991.872 301.637 995.337 356.016L995.836 355.984ZM997.036 393.596C996.77 378.127 996.37 365.591 995.836 355.986L995.337 356.014C995.87 365.609 996.27 378.139 996.536 393.604L997.036 393.596ZM997.436 443.2C997.436 425.599 997.303 409.064 997.036 393.596L996.536 393.604C996.803 409.069 996.936 425.601 996.936 443.2H997.436ZM997.036 492.804C997.303 477.069 997.436 460.535 997.436 443.2H996.936C996.936 460.532 996.803 477.064 996.536 492.796L997.036 492.804ZM616.73 294.4V204H616.23V294.4H616.73ZM567.68 294.65H616.48V294.15H567.68V294.65ZM567.93 548V294.4H567.43V548H567.93ZM526.236 659.395C554.053 637.196 567.93 600.039 567.93 548H567.43C567.43 599.961 553.574 636.938 525.924 659.005L526.236 659.395ZM387.68 692.25C451.963 692.25 498.167 681.316 526.234 659.397L525.926 659.003C497.994 680.817 451.931 691.75 387.68 691.75V692.25ZM364.461 691.449C371.402 691.983 379.142 692.25 387.68 692.25V691.75C379.152 691.75 371.425 691.483 364.499 690.951L364.461 691.449ZM344.42 688.243C350.834 689.846 357.514 690.915 364.461 691.449L364.499 690.951C357.579 690.418 350.926 689.354 344.541 687.758L344.42 688.243ZM344.23 602.4V688H344.73V602.4H344.23ZM366.89 602.55C360.22 602.283 352.749 602.15 344.48 602.15V602.65C352.744 602.65 360.208 602.783 366.87 603.05L366.89 602.55ZM387.68 602.95C380.483 602.95 373.553 602.817 366.89 602.55L366.87 603.05C373.54 603.317 380.477 603.45 387.68 603.45V602.95ZM431.951 594.986C423.213 600.282 408.473 602.95 387.68 602.95V603.45C408.488 603.45 423.348 600.785 432.21 595.414L431.951 594.986ZM445.03 562.4C445.03 578.631 440.64 589.457 431.946 594.989L432.214 595.411C441.121 589.743 445.53 578.702 445.53 562.4H445.03ZM445.03 68V562.4H445.53V68H445.03ZM567.68 67.75H445.28V68.25H567.68V67.75ZM567.93 204V68H567.43V204H567.93ZM616.48 203.75H567.68V204.25H616.48V203.75ZM404.73 294.4V204H404.23V294.4H404.73ZM353.28 294.65H404.48V294.15H353.28V294.65ZM353.03 204V294.4H353.53V204H353.03ZM404.48 203.75H353.28V204.25H404.48V203.75Z" fill="white"/>
<path d="M-207.651 691.4C-260.718 688.467 -298.984 674.467 -322.451 649.4C-345.918 624.333 -358.318 585 -359.651 531.4C-360.184 501.267 -360.584 472.467 -360.851 445C-361.118 417.533 -361.251 390.467 -361.251 363.8C-361.251 337.133 -361.118 310.067 -360.851 282.6C-360.584 254.867 -360.184 226.067 -359.651 196.2C-358.318 142.867 -345.918 103.8 -322.451 79C-298.984 53.9333 -260.718 39.9333 -207.651 37V137.4C-217.784 140.6 -225.384 146.467 -230.451 155C-235.251 163.267 -237.784 174.867 -238.051 189.8C-239.384 218.867 -240.451 247.933 -241.251 277C-241.784 306.067 -242.051 335 -242.051 363.8C-242.051 392.6 -241.784 421.533 -241.251 450.6C-240.451 479.4 -239.384 508.467 -238.051 537.8C-237.784 552.733 -235.251 564.6 -230.451 573.4C-225.384 581.933 -217.784 587.8 -207.651 591V691.4ZM-155.651 691.4V591.4C-145.251 588.2 -137.651 582.333 -132.851 573.8C-128.051 565 -125.518 553 -125.251 537.8C-123.918 508.467 -122.851 479.4 -122.051 450.6C-121.251 421.533 -120.851 392.6 -120.851 363.8C-120.851 335 -121.251 306.067 -122.051 277C-122.851 247.933 -123.918 218.867 -125.251 189.8C-125.518 174.867 -128.051 163.133 -132.851 154.6C-137.651 146.067 -145.251 140.2 -155.651 137V37C-104.718 40.4667 -67.651 54.7333 -44.451 79.8C-21.251 104.6 -8.71764 143.4 -6.85098 196.2C-5.51763 226.333 -4.58429 255.267 -4.05096 283C-3.51764 310.467 -3.25098 337.667 -3.25098 364.6C-3.25098 391.267 -3.51764 418.333 -4.05096 445.8C-4.58429 473 -5.51763 501.533 -6.85098 531.4C-8.71764 584.467 -21.251 623.533 -44.451 648.6C-67.651 673.667 -104.718 687.933 -155.651 691.4ZM33.424 294.6V204.2H82.224V68.2H204.624V562.6C204.624 578.867 209.024 589.8 217.824 595.4C226.624 600.733 241.424 603.4 262.224 603.4C269.424 603.4 276.357 603.267 283.024 603C289.691 602.733 297.157 602.6 305.424 602.6V688.2C299.024 689.8 292.357 690.867 285.424 691.4C278.491 691.933 270.757 692.2 262.224 692.2C197.957 692.2 151.824 681.267 123.824 659.4C96.0907 637.267 82.224 600.2 82.224 548.2V294.6H33.424ZM245.424 294.6V204.2H296.624V294.6H245.424Z" stroke="#03E9F4" stroke-width="3"/>
<path d="M295.171 205.2H247.171L247.171 293.2H295.171V205.2Z" stroke="#03E9F4" stroke-width="3"/>
<path d="M997.208 493C996.942 508.467 996.542 521.267 996.008 531.4C993.075 585 980.808 624.333 959.208 649.4C937.342 674.2 900.808 688.2 849.608 691.4V599C858.142 596.067 864.542 591.533 868.808 585.4C872.808 579 874.942 571.133 875.208 561.8C876.008 540.733 876.675 519.8 877.208 499C877.475 477.933 877.608 457.267 877.608 437C877.608 416.733 877.475 397.267 877.208 378.6C876.942 359.667 876.542 342.067 876.008 325.8C875.742 317.533 873.475 310.333 869.208 304.2C865.5 298.637 860.078 294.283 852.945 291.138C830.035 284.829 816.156 285.024 794.171 290.691V290.313C786.999 293.051 781.745 297.28 778.408 303C774.408 309.133 772.275 316.733 772.008 325.8C771.208 347.133 770.675 367.133 770.408 385.8C769.875 404.2 769.608 422.467 769.608 440.6C769.608 458.467 769.875 477.267 770.408 497C770.675 516.467 771.208 538.067 772.008 561.8C772.275 571.133 774.408 579 778.408 585.4C782.142 591.533 788.275 596.067 796.808 599V691.4C762.142 689.267 734.675 682.467 714.408 671C693.875 659.267 678.808 642.067 669.208 619.4C659.342 596.467 653.342 567.133 651.208 531.4C650.675 521.8 650.275 509.267 650.008 493.8C649.475 478.333 649.208 461.933 649.208 444.6C649.208 427.267 649.475 410.733 650.008 395C650.275 379.267 650.675 366.333 651.208 356.2C653.075 321 658.942 292.067 668.808 269.4C678.408 246.733 693.475 229.533 714.008 217.8C733.762 206.364 760.483 199.487 794.171 197.171V196.983C817.931 194.564 831.242 194.648 853.171 196.983V197.226C901.979 200.587 937.058 214.246 958.408 238.2C980.008 262.467 992.542 301.8 996.008 356.2C996.542 365.8 996.942 378.333 997.208 393.8C997.475 409.267 997.608 425.8 997.608 443.4C997.608 460.733 997.475 477.267 997.208 493Z" stroke="#03E9F4" stroke-width="3"/>
<path d="M616.902 204.2V294.6H568.102V548.2C568.102 600.2 554.235 637.267 526.502 659.4C498.502 681.267 452.369 692.2 388.102 692.2C379.569 692.2 371.835 691.933 364.902 691.4C357.969 690.867 351.302 689.8 344.902 688.2V602.6C353.169 602.6 360.635 602.733 367.302 603C373.969 603.267 380.902 603.4 388.102 603.4C408.902 603.4 423.702 600.733 432.502 595.4C441.302 589.8 445.702 578.867 445.702 562.6V68.2H568.102V204.2H616.902Z" stroke="#03E9F4" stroke-width="3"/>
<path d="M404.902 204.2V294.6H353.702V204.2H404.902Z" stroke="#03E9F4" stroke-width="3"/>
</svg>
