<svg xmlns="http://www.w3.org/2000/svg" width="32" height="32" id="bulb"><g color="#000" font-family="sans-serif" font-weight="400"><path fill="#2b4255" style="line-height:normal;text-indent:0;text-align:start;text-decoration-line:none;text-decoration-style:solid;text-decoration-color:#000;text-transform:none;block-progression:tb;isolation:auto;mix-blend-mode:normal" d="M15.033 1021.496h-.043l-.709.094.131.992.69-.092.88-.04.336.013.041-.998-.359-.016h-.043zm2.238 1.047.428.055h.004l.834.182h.004l.594.181.297-.955-.598-.183-.041-.012-.88-.194-.042-.01-.47-.062zm-4.105-.719-.043.01-.852.27-.039.014-.822.338-.037.018-.11.057.458.888.095-.049.78-.32.816-.256.065-.014-.217-.976zm6.861 1.48.125.052.733.37h.006l.724.448.05.035.595-.803-.065-.047-.035-.024-.748-.464-.037-.02-.787-.4-.04-.018-.144-.06zm-10.224.06-.033.023-.706.527-.03.025-.36.318.662.748.328-.29h.002l.668-.503.012-.01.531-.332-.53-.847zm12.62 1.431.503.444.008.01.566.592.264.324.777-.631-.277-.34-.028-.03-.611-.638-.03-.027-.511-.449zm-14.687.395-.027.03-.555.688-.025.035-.467.694.828.558.444-.658.01-.012.54-.674h.004l.166-.172-.724-.69zm16.596 1.742.17.252.422.748.31.684.91-.414-.32-.707-.02-.037-.437-.78-.023-.035-.186-.273zm-18.545 1.424-.016.039-.3.861-.012.041-.06.237.968.246.057-.223.275-.791.006-.014.342-.758-.912-.41zm19.861 1.127-.087.024.002.01.222.86.147.868.007.1.997-.078-.008-.117-.006-.043-.152-.91-.01-.043-.23-.894-.012-.041-.014-.035zm-20.576 1.664-.004.043-.068.908-.002.043.006.486 1-.012-.006-.47.063-.837.002-.01.093-.591-.986-.16zm20.922 1.822-.08.846-.07.387.984.177.074-.406.006-.04.082-.89.002-.042.006-.696-1-.01zm-20.926.697.03.309.006.041.162.873.01.041.21.775.965-.263-.205-.75-.154-.838-.028-.285zm20.483 1.776-.004.014-.287.79-.309.675.908.418.317-.69.015-.039.301-.828.012-.041.094-.346-.965-.262zm-19.694 1.281.354.762.02.037.435.765.021.035.159.23.824-.566-.15-.218-.008-.012-.403-.707-.345-.746zm18.182 1.693-.01.012-.533.657-.15.158.72.693.164-.172.028-.03.556-.686.026-.033.496-.729-.828-.562zm-16.574.975.305.375.029.031.617.637.031.029.475.412.656-.754-.443-.385h-.002l-.588-.603-.006-.01-.3-.366zm14.822.852-.012.01-.693.51-.459.279.52.853.474-.289.035-.023.727-.533.033-.027.41-.357-.66-.753zM9.75 1041.51l.133.096.035.025.781.47.037.022.83.406.44-.899-.818-.402h-.01l-.739-.45h-.003l-.098-.071zm10.28.105.443.897.252-.125-.446-.895z" overflow="visible" transform="translate(0 -1020.362)"></path><path fill="#f05542" style="line-height:normal;text-indent:0;text-align:start;text-decoration-line:none;text-decoration-style:solid;text-decoration-color:#000;text-transform:none;block-progression:tb;isolation:auto;mix-blend-mode:normal" d="M15.994 1023.361c-4.963 0-9 4.006-9 8.938 0 2.699 1.37 4.512 2.635 6.396 1.265 1.885 2.465 3.855 2.465 7.104v4.062a.5.5 0 0 0 .5.5h6.799a.5.5 0 0 0 .5-.5v-4.027a.5.5 0 0 0 0-.035c0-3.249 1.2-5.22 2.466-7.104 1.266-1.884 2.635-3.697 2.635-6.396 0-4.932-4.037-8.938-9-8.938zm0 1c4.426 0 8 3.55 8 7.938 0 2.363-1.18 3.927-2.465 5.84-1.212 1.804-2.403 3.987-2.543 7.16h-2.492v-5.465a.5.5 0 1 0-1 0v5.465H13c-.14-3.173-1.329-5.356-2.541-7.16-1.285-1.913-2.465-3.477-2.465-5.84 0-4.388 3.574-7.938 8-7.938zm-2.9 21.938h2.808a.5.5 0 0 0 .172 0h2.819v3.062h-5.8v-3.062z" overflow="visible" transform="translate(0 -1020.362)"></path><path fill="#2b4255" fill-rule="evenodd" style="line-height:normal;text-indent:0;text-align:start;text-decoration-line:none;text-decoration-style:solid;text-decoration-color:#000;text-transform:none;block-progression:tb;isolation:auto;mix-blend-mode:normal" d="M13.494 1051.361a.5.5 0 1 0 0 1h5a.5.5 0 1 0 0-1h-5z" overflow="visible" transform="translate(0 -1020.362)"></path><path fill="#2b4255" style="line-height:normal;text-indent:0;text-align:start;text-decoration-line:none;text-decoration-style:solid;text-decoration-color:#000;text-transform:none;block-progression:tb;isolation:auto;mix-blend-mode:normal" d="M15.244 1026.408a.5.5 0 0 0-.5.5v.791c-.266.084-.523.19-.771.317l-.557-.557a.5.5 0 0 0-.707 0l-1.414 1.414a.5.5 0 0 0 0 .707l.559.559a4.973 4.973 0 0 0-.32.77h-.79a.5.5 0 0 0-.5.5v2a.5.5 0 0 0 .5.5h.791c.084.266.19.522.317.77l-.557.557a.5.5 0 0 0 0 .707l1.414 1.414a.5.5 0 0 0 .707 0l.559-.558c.247.128.503.234.77.318v.791a.5.5 0 0 0 .5.5h2a.5.5 0 0 0 .5-.5v-.793c.265-.084.52-.19.769-.316l.558.558a.5.5 0 0 0 .707 0l1.414-1.414a.5.5 0 0 0 0-.707l-.558-.558c.128-.248.233-.504.318-.77h.791a.5.5 0 0 0 .5-.5v-2a.5.5 0 0 0-.5-.5h-.793a4.982 4.982 0 0 0-.314-.771l.556-.557a.5.5 0 0 0 0-.707l-1.414-1.414a.5.5 0 0 0-.707 0l-.558.559a4.964 4.964 0 0 0-.77-.32v-.79a.5.5 0 0 0-.5-.5h-2zm.5 1h1v.617a.5.5 0 0 0 .389.487c.438.1.857.274 1.238.513a.5.5 0 0 0 .62-.07l.435-.435.707.707-.434.434a.5.5 0 0 0-.072.617c.238.381.411.801.51 1.24a.5.5 0 0 0 .488.39h.62v1h-.618a.5.5 0 0 0-.488.39c-.1.438-.273.857-.512 1.237a.5.5 0 0 0 .07.62l.436.435-.707.707-.434-.433a.5.5 0 0 0-.619-.072c-.382.238-.8.41-1.238.51a.5.5 0 0 0-.39.488v.619h-1v-.617a.5.5 0 0 0-.39-.489 4.003 4.003 0 0 1-1.238-.511.5.5 0 0 0-.619.07l-.436.435-.707-.707.434-.434a.5.5 0 0 0 .07-.619 3.995 3.995 0 0 1-.51-1.238.5.5 0 0 0-.486-.39h-.619v-1h.617a.5.5 0 0 0 .487-.39c.1-.438.274-.856.513-1.237a.5.5 0 0 0-.07-.62l-.436-.435.707-.707.434.433a.5.5 0 0 0 .617.07 4.006 4.006 0 0 1 1.24-.51.5.5 0 0 0 .391-.486v-.619z" overflow="visible" transform="translate(0 -1020.362)"></path><path fill="#2b4255" style="line-height:normal;text-indent:0;text-align:start;text-decoration-line:none;text-decoration-style:solid;text-decoration-color:#000;text-transform:none;block-progression:tb;isolation:auto;mix-blend-mode:normal" d="M16.244 1030.361c-1.099 0-2 .902-2 2 0 1.099.901 2 2 2s2-.901 2-2c0-1.098-.901-2-2-2zm0 1c.558 0 1 .442 1 1s-.442 1-1 1-1-.442-1-1 .442-1 1-1z" overflow="visible" transform="translate(0 -1020.362)"></path><path fill="#2b4255" fill-rule="evenodd" style="line-height:normal;text-indent:0;text-align:start;text-decoration-line:none;text-decoration-style:solid;text-decoration-color:#000;text-transform:none;block-progression:tb;isolation:auto;mix-blend-mode:normal" d="M12.994 1047.361v1h5v-1h-5z" overflow="visible" transform="translate(0 -1020.362)"></path><path fill="#2b4255" style="line-height:normal;text-indent:0;text-align:start;text-decoration-line:none;text-decoration-style:solid;text-decoration-color:#000;text-transform:none;block-progression:tb;isolation:auto;mix-blend-mode:normal" d="M12.594 1045.299a.5.5 0 0 0-.1.01.5.5 0 0 0-.4.574v3.978a.5.5 0 0 0 .5.5h6.799a.5.5 0 0 0 .5-.5v-3.97a.5.5 0 0 0-.465-.59.5.5 0 0 0-.035 0h-6.8zm.5 1h5.799v3.062h-5.8v-3.062z" overflow="visible" transform="translate(0 -1020.362)"></path></g></svg>