<svg xmlns="http://www.w3.org/2000/svg" width="32" height="32" id="pencil"><g color="#000" font-family="sans-serif" font-weight="400"><path style="line-height:normal;text-indent:0;text-align:start;text-decoration-line:none;text-decoration-style:solid;text-decoration-color:#000;text-transform:none;block-progression:tb;isolation:auto;mix-blend-mode:normal" fill="#f05542" fill-rule="evenodd" d="m7.563 1026.414-.713.711.707.707.713-.71-.707-.708zm2.125.703-1.424 1.422.707.707 1.424-1.422-.707-.707zm.703 2.125-.713.711.707.71.713-.714-.707-.707zm2.125.703-1.422 1.424.707.707 1.424-1.424-.71-.707zm.703 2.125-.711.713.707.707.71-.713-.706-.707zm7.076 5.653-1.424 1.424.707.707 1.424-1.424-.707-.707zm.703 2.127-.713.71.707.708.713-.711-.707-.707zm2.125.7-1.424 1.425.707.707 1.424-1.422-.707-.71zm.703 2.128-.713.71.707.708.713-.711-.707-.707zm2.125.703-1.422 1.424.707.707 1.422-1.424-.707-.707z" overflow="visible" transform="translate(0 -1020.362)"></path><path style="line-height:normal;text-indent:0;text-align:start;text-decoration-line:none;text-decoration-style:solid;text-decoration-color:#000;text-transform:none;block-progression:tb;isolation:auto;mix-blend-mode:normal" fill="#2b4255" d="M5.633 1042.678a.5.5 0 0 0-.344.152l-1.328 1.328a2.383 2.383 0 0 0-.004 3.361l.885.883a2.383 2.383 0 0 0 3.361 0l1.328-1.328a.5.5 0 1 0-.707-.707l-1.328 1.328a1.365 1.365 0 0 1-1.947 0l-.885-.883a1.364 1.364 0 0 1 .004-1.947l1.328-1.328a.5.5 0 0 0-.363-.86z" overflow="visible" transform="translate(0 -1020.362)"></path><path style="line-height:normal;text-indent:0;text-align:start;text-decoration-line:none;text-decoration-style:solid;text-decoration-color:#000;text-transform:none;block-progression:tb;isolation:auto;mix-blend-mode:normal" fill="#f05542" fill-rule="evenodd" d="m23.889 1027.752-.432.457-16.533 16.535.707.707 16.545-16.545.441-.468-.728-.686z" overflow="visible" transform="translate(0 -1020.362)"></path><path style="line-height:normal;text-indent:0;text-align:start;text-decoration-line:none;text-decoration-style:solid;text-decoration-color:#000;text-transform:none;block-progression:tb;isolation:auto;mix-blend-mode:normal" fill="#2b4255" d="M28.06 1023.797a.5.5 0 0 0-.154.025l-5.304 1.767a.5.5 0 0 0-.196.829l3.537 3.537a.5.5 0 0 0 .827-.196l1.77-5.304a.5.5 0 0 0-.48-.658zm-.787 1.29-1.195 3.589-2.392-2.393 3.587-1.195zm-18.287-2.726a.5.5 0 0 0-.347.147l-3.203 3.203a.5.5 0 0 0 0 .707l8.363 8.361a.5.5 0 1 0 .707-.707l-8.01-8.007 2.496-2.497 8.047 8.047a.5.5 0 1 0 .707-.707l-8.4-8.4a.5.5 0 0 0-.36-.147zm12.041 12.036a.5.5 0 0 0-.35.857l8.116 8.115-2.496 2.496-8.037-8.037a.5.5 0 1 0-.707.707l8.39 8.39a.5.5 0 0 0 .707 0l3.204-3.202a.5.5 0 0 0 0-.707l-8.47-8.47a.5.5 0 0 0-.357-.15z" overflow="visible" transform="translate(0 -1020.362)"></path><path style="line-height:normal;text-indent:0;text-align:start;text-decoration-line:none;text-decoration-style:solid;text-decoration-color:#000;text-transform:none;block-progression:tb;isolation:auto;mix-blend-mode:normal" fill="#f05542" d="M22.754 1025.564a.5.5 0 0 0-.348.147l-16.97 16.97a.5.5 0 0 0 0 .708l3.537 3.535a.5.5 0 0 0 .707 0l16.97-16.969a.5.5 0 0 0 0-.709l-3.537-3.535a.5.5 0 0 0-.36-.146zm.006 1.207 2.83 2.83-16.264 16.262-2.83-2.828 16.264-16.264z" overflow="visible" transform="translate(0 -1020.362)"></path><path style="line-height:normal;text-indent:0;text-align:start;text-decoration-line:none;text-decoration-style:solid;text-decoration-color:#000;text-transform:none;block-progression:tb;isolation:auto;mix-blend-mode:normal" fill="#2b4255" fill-rule="evenodd" d="m7.094 1030.27-2.828 2.828.707.707 2.828-2.828-.707-.707zm-1.414-1.415-2.121 2.122.707.707 2.12-2.121-.706-.708zm-2.121 4.95-.707.707.707.707.707-.707-.707-.707zm-.707-2.121-.707.707.707.707.707-.707-.707-.707zm18.384 12.726-2.828 2.83.707.707 2.828-2.83-.707-.707zm1.414 1.416-2.12 2.121.706.707 2.121-2.12-.707-.708zm-4.949 2.121-.709.707.71.707.706-.707-.707-.707zm2.121.707-.707.707.707.707.707-.707-.707-.707z" overflow="visible" transform="translate(0 -1020.362)"></path></g></svg>