<?xml version="1.0" encoding="utf-8"?>
<!-- Designed by Vexels.com - 2020 All Rights Reserved - https://vexels.com/terms-and-conditions/  -->
<svg version="1.1" id="Capa_1" xmlns="http://www.w3.org/2000/svg" xmlns:xlink="http://www.w3.org/1999/xlink" x="0px" y="0px"
	 viewBox="0 0 1200 1200" enable-background="new 0 0 1200 1200" xml:space="preserve">
<path d="M164.548,571.979c0.01-0.03,0.026-0.057,0.037-0.086c-0.042-0.001-0.083,0.002-0.125,0.001L164.548,571.979z
	 M124.17,719.526c-0.012,0.026-0.029,0.048-0.041,0.074c0.051,0.009,0.099,0.007,0.151,0.017L124.17,719.526z M80.696,829.24
	c-0.003,0.067-0.024,0.128-0.029,0.195c0.044-0.032,0.081-0.072,0.125-0.103L80.696,829.24z M1148.941,342.677
	c-0.052-1.904-0.3-3.834-0.739-5.686c-0.348-1.471-1.413-2.491-3.083-2.597c-0.96-0.06-1.921-0.178-2.882-0.181
	c-11.298-0.041-22.597-0.086-33.895-0.086c-12.013,0-24.026,0.006-36.04,0.085c-13.714,0.089-27.428,0.355-41.142,0.379
	c-34.661,0.059-69.322,0.024-103.982,0.028c-30.333,0.003-60.666-0.008-90.999,0.017c-31.053,0.025-62.107,0.109-93.16,0.124
	c-45.502,0.022-91.004,0.006-136.505,0.006c0,0.061,0,0.123,0,0.184c-12.999,0-26-0.017-38.999,0.003
	c-26,0.042-51.999,0.123-77.999,0.153c-34.179,0.038-68.357,0.034-102.536,0.062c-30.561,0.024-61.12,0.093-91.681,0.095
	c-25.75,0.001-51.502-0.064-77.252-0.104c-39.481-0.061-78.961-0.121-118.442-0.192c-13.716-0.024-27.426,0.181-41.123,0.955
	c-3.457,0.196-4.866,1.474-5.145,4.7c-0.042,0.478-0.054,0.964-0.022,1.442c0.507,7.457,0.075,14.905-0.095,22.361
	c-0.701,30.559-1.667,61.11-1.712,91.684c-0.035,24.065-0.704,48.128-0.892,72.194c-0.188,24.067-0.125,48.137-0.179,72.206
	c-0.104,46.461-0.23,92.921-0.314,139.382c-0.068,37.796-0.096,75.592-0.123,113.389c-0.001,2.162,0.014,4.345,0.307,6.479
	c0.32,2.323,1.675,3.874,4.107,4.453c3.77,0.899,7.571,1.309,11.447,1.324c18.29,0.073,36.579,0.258,54.869,0.294
	c30.813,0.06,61.626,0.042,92.439,0.042c1.923,0,3.864,0.024,5.765-0.22c3.397-0.436,4.567-1.547,5.3-4.909
	c1.035-4.741,1.434-9.56,0.508-14.339c-0.696-3.585-0.793-7.166-0.795-10.775c-0.023-35.144-0.074-70.289-0.053-105.433
	c0.017-28.646,0.206-57.292,0.167-85.937c-0.043-31.049-0.341-62.098-0.373-93.147c-0.019-17.562-0.365-35.11-1.246-52.648
	c-0.049-0.961-0.162-1.922-0.158-2.883c0.012-2.174,0.71-2.898,3.039-3.118c1.195-0.112,2.403-0.152,3.606-0.144
	c12.26,0.09,24.519,0.242,36.779,0.293c27.678,0.115,55.356,0.266,83.034,0.246c24.298-0.017,48.594-0.238,72.891-0.395
	c3.834-0.024,7.671-0.333,11.502-0.266c9.376,0.166,18.749,0.639,28.124,0.685c11.548,0.057,23.096-0.292,34.644-0.289
	c26.22,0.005,52.439,0.147,78.658,0.174c14.664,0.015,29.328-0.09,43.993-0.132c12.275-0.035,24.55-0.089,36.825-0.078
	c32.485,0.032,64.969,0.146,97.455,0.125c16.564-0.01,33.125-0.402,49.693-0.238c17.808,0.177,35.619,0.019,53.43,0.037
	c27.18,0.027,54.361,0.141,81.542,0.094c11.284-0.02,22.569-0.502,33.853-0.513c12.504-0.012,25.009,0.343,37.515,0.412
	c16.607,0.092,33.216,0.051,49.823,0.089c16.844,0.038,33.689,0.147,50.532,0.144c11.789-0.002,23.576-0.12,35.364-0.233
	c2.537-0.024,3.602-0.904,3.976-3.264c0.299-1.896,0.41-3.828,0.51-5.748c0.808-15.63,0.756-31.273,0.866-46.919
	C1150.155,405.247,1149.815,373.96,1148.941,342.677z M1041.969,343.732c0.024-1.598,1.063-2.677,2.677-2.936
	c1.653-0.266,3.331-0.518,4.999-0.535c6.009-0.064,12.02-0.026,18.03-0.026c0,0.009,0.001,0.018,0.001,0.027
	c6.494,0,12.988-0.012,19.483,0.006c2.32,0.006,3.149,0.936,2.771,3.047c-0.848,4.732-1.657,9.472-2.588,14.189
	c-0.781,3.961-1.683,4.77-5.883,4.645c-11.3-0.335-22.594-0.814-33.89-1.264c-0.954-0.038-1.926-0.19-2.842-0.454
	c-1.487-0.429-2.641-1.39-2.681-3.01C1041.936,352.86,1041.9,348.294,1041.969,343.732z M60.359,439.251
	c-2.293-0.085-2.756-1.536-2.655-3.418c0.118-2.192,0.817-3.087,2.934-3.43c4.536-0.733,9.107-0.736,13.684-0.483
	c1.911,0.105,3.864,0.431,5.65-0.57c0.372-0.21,0.77-0.675,0.82-1.065c0.045-0.35-0.304-1.02-0.598-1.097
	c-1.379-0.36-2.792-0.612-4.205-0.815c-4.997-0.718-10.01-1.331-14.995-2.125c-2.562-0.408-3.273-1.308-3.385-3.836
	c-0.065-1.434-0.128-2.926,0.182-4.308c1.869-8.345,1.54-16.753,0.684-25.147c-0.372-3.656-0.099-7.204,0.553-10.762
	c0.521-2.836,0.845-3.161,3.688-3.432c5.501-0.525,11.01-0.97,16.513-1.469c1.194-0.108,2.393-0.249,3.565-0.492
	c0.385-0.079,0.928-0.483,0.99-0.816c0.158-0.832-0.448-1.358-1.194-1.507c-4.956-0.988-9.931-1.844-15.003-1.978
	c-1.923-0.05-3.849-0.142-5.767-0.303c-1.681-0.142-2.556-1.19-2.689-2.83c-0.14-1.751-0.016-3.525,1.936-4.207
	c2.168-0.757,4.428-1.252,6.916-1.934c-2.296-1.794-4.808-1.658-7.082-2.267c-1.736-0.464-2.168-1.817-2.201-3.302
	c-0.031-1.433,1.003-2.041,2.308-2.263c0.71-0.12,1.436-0.212,2.109-0.449c0.923-0.327,1.1-1.927,0.182-2.277
	c-3.929-1.496-5.653-4.127-4.748-8.33c1.559-0.453,2.225,0.839,2.95,1.624c3.737,4.051,8.032,7.536,11.492,11.894
	c1.732,2.181,4.681,3.188,6.793,5.217c13.362,12.836,26.838,25.553,40.275,38.308c0.174,0.166,0.356,0.324,0.53,0.49
	c5.1,4.883,5.1,4.884-0.893,9.377c2.394,0.132,4.199,0.401,5.981,0.294c4.197-0.249,7.419,1.408,10.105,4.519
	c1.54,1.784,1.433,3.128-0.71,3.671c-3.02,0.766-6.107,1.267-9.157,1.922c-1.156,0.248-2.315,0.54-3.414,0.963
	c-0.279,0.107-0.38,0.785-0.467,1.22c-0.027,0.133,0.238,0.438,0.413,0.481c0.918,0.223,1.854,0.558,2.778,0.542
	c4.803-0.083,9.644,0.333,14.386-0.777c2.57-0.602,4.732-0.108,6.519,1.915c0.634,0.717,1.544,1.203,2.115,1.957
	c1.5,1.987,4.736,2.622,4.606,5.875c-2.208,1.214-4.663,0.586-6.987,0.939c-9.745,1.477-19.491,2.955-29.233,4.454
	c-3.561,0.548-7.112,1.155-10.687,1.739c0.97,1.692,2.655,0.737,3.979,1.038c1.395,0.318,2.866,0.42,4.304,0.42
	c13.475-0.003,26.965,0.377,40.391-1.172c4.778-0.552,8.825,0.213,12.484,3.837c7.688,7.617,15.726,14.88,23.611,22.299
	c0.872,0.82,2.074,1.737,1.767,2.962c-0.416,1.661-2.195,1.609-3.569,1.845c-3.228,0.555-6.469,1.032-9.705,1.539
	c1.38,0.955,2.954,1.245,4.599,1.332c2.643,0.14,5.309,0.608,7.923,0.403c7.003-0.547,11.895,2.553,15.753,8.508
	c-2.34,1.453-4.779,0.266-7.02,0.583c-2.349,0.332-4.794-0.068-7.196-0.052c-12.025,0.08-24.049,0.205-35.842,3.019
	c-0.655,0.157-1.248,0.573-1.921,0.893c0.461,1.751,1.886,1.152,2.87,1.302c13.625,2.069,27.383,1.281,41.078,1.885
	c4.8,0.212,9.588,0.685,14.379,1.082c0.438,0.036,0.945,0.308,1.248,0.633c0.288,0.308,0.503,0.843,0.465,1.252
	c-0.039,0.412-0.341,0.918-0.684,1.16c-1.072,0.756-2.304,0.459-3.479,0.297c-11.018-1.506-22.078-1.294-33.144-0.849
	c-0.948,0.038-1.912,0.198-2.82,0.468c-0.332,0.099-0.682,0.663-0.727,1.05c-0.046,0.406,0.137,1.063,0.439,1.244
	c0.806,0.483,1.705,0.994,2.612,1.092c2.864,0.31,5.748,0.597,8.625,0.605c8.423,0.022,16.847-0.096,25.27-0.156
	c0.721-0.005,1.449-0.059,2.162,0.021c1.352,0.151,2.17,0.876,2.239,2.315c0.066,1.373-0.522,2.365-1.839,2.697
	c-0.912,0.23-1.925,0.334-2.85,0.2c-7.181-1.042-14.407-0.908-21.626-0.894c-34.661,0.064-69.323,0.074-103.983,0.257
	c-7.681,0.041-15.359,0.72-23.04,1.073c-0.947,0.043-1.921-0.023-2.852-0.201c-1.059-0.202-1.579-1.019-1.699-2.052
	c-0.148-1.289,0.125-2.548,1.496-2.892c1.608-0.404,3.298-0.548,4.962-0.649c1.908-0.115,3.877,0.296,5.674-0.63
	c0.368-0.189,0.78-0.71,0.774-1.071c-0.005-0.29-0.601-0.798-0.954-0.817c-2.635-0.141-5.276-0.158-7.913-0.272
	c-0.946-0.041-1.939-0.095-2.815-0.408c-0.96-0.343-1.467-1.21-1.344-2.285c0.124-1.088,0.73-1.745,1.877-1.689
	c1.682,0.082,3.362,0.208,5.041,0.336c6.257,0.477,12.509,0.24,18.759-0.154c0.719-0.045,1.459-0.055,2.146-0.241
	c0.936-0.253,2.014-0.688,2.139-1.704c0.199-1.637-1.241-1.738-2.381-1.961c-0.707-0.138-1.44-0.277-2.15-0.234
	c-6.5,0.394-12.979,0.049-19.519-0.621c-0.042-0.728,0.688-0.343,1.067-0.388c1.397-0.165,2.954,0.155,3.901-1.303
	c0.538-0.827-1.014-1.801-3.733-2.322c-0.945-0.181-1.905-0.289-2.843-0.499c-4.066-0.904-4.488-1.238-4.534-5.15
	c-0.125-10.348-0.085-20.698-0.192-31.047c-0.028-2.668,0.525-4.743,3.481-5.45c0.352-0.085,0.827-0.686,0.82-1.04
	C61.894,439.499,61.069,439.277,60.359,439.251z M150.976,834.292c-1.635,2.074-2.885,4.448-4.49,6.547
	c-1.977,2.583-4.432,4.049-7.981,4.028c-20.215-0.115-40.432-0.026-60.647-0.03c-1.193,0-2.392-0.157-3.577-0.318
	c-0.895-0.122-1.439-1.475-0.872-2.285c1.38-1.967,2.762-3.943,4.279-5.803c1.688-2.068,2.785-4.331,2.98-6.996
	c-3.126,2.259-5.381,5.286-7.508,8.445c-0.932,1.386-1.964,2.723-3.096,3.949c-0.504,0.546-1.602,0.421-1.733-0.328
	c-0.619-3.549-0.983-6.981,1.26-10.357c5.05-7.596,10.01-15.243,14.21-23.389c3.294-6.39,8.337-11.773,11.267-18.427
	c0.181-0.409,0.276-0.854,0.589-1.852c-2.453,0.779-3.741,2.445-5.038,3.992c-6.167,7.36-12.748,14.411-17.059,23.154
	c-0.841,1.704-2.112,3.204-3.263,4.741c-0.23,0.305-0.85,0.539-1.215,0.459c-0.342-0.075-0.831-0.608-0.834-0.941
	c-0.042-6.731-0.01-13.462-0.026-20.193c-0.006-2.303,1.041-4.155,2.355-5.914c7.618-10.202,14.825-20.696,22.534-30.849
	c8.706-11.467,18.09-22.47,25.779-34.712c1.632-2.601,3.972-4.742,5.239-7.613c-2.632-0.434-4.465,0.809-6.034,2.816
	c-5.181,6.626-10.648,13.044-15.55,19.869c-3.937,5.483-8.265,10.64-12.716,15.641c-6.747,7.581-12.208,16.065-18.249,24.141
	c-0.562,0.753-1.142,1.493-1.624,2.125c-1.756,0-1.537-1.148-1.544-2.049c-0.039-4.81,0.104-9.626-0.096-14.429
	c-0.182-4.353,1.387-7.976,3.913-11.319c9.131-12.079,18.312-24.121,27.397-36.234c5.039-6.718,9.966-13.521,14.858-20.346
	c1.373-1.915,2.443-4.048,3.698-6.162c-1.869-0.832-2.436,0.534-3.267,1.154c-0.762,0.567-1.441,1.29-2.021,2.047
	c-8.917,11.639-17.829,23.282-26.704,34.954c-4.945,6.502-9.763,13.097-14.032,20.074c-0.247,0.402-0.595,0.773-0.97,1.058
	c-0.365,0.277-1.035,0.707-1.209,0.579c-0.51-0.377-1.123-0.964-1.191-1.529c-0.256-2.142-0.431-4.308-0.422-6.465
	c0.059-14.403,0.203-28.805,0.265-43.208c0.128-28.844,0.211-57.687,0.33-86.529c0.058-13.948,0.261-27.896,0.173-41.843
	c-0.024-3.936,1.282-6.774,4.117-9.472c4.521-4.303,8.665-9.005,12.924-13.579c1.144-1.228,2.201-2.554,3.164-3.927
	c1.001-1.425,0.878-3.552-0.083-3.885c-1.402-0.485-2.318,0.428-3.13,1.264c-4.187,4.306-8.321,8.663-12.469,13.006
	c-0.823,0.861-1.555,1.83-2.471,2.573c-0.65,0.527-1.471,0.223-1.636-0.615c-0.228-1.166-0.288-2.378-0.297-3.572
	c-0.06-7.442-0.363-14.86-0.827-22.299c-0.73-11.708-0.933-10.486,9.412-10.851c8.641-0.304,17.295-0.281,25.943-0.35
	c15.626-0.123,31.252-0.226,46.878-0.301c13.955-0.068,27.909-0.105,41.864-0.111c2.087-0.001,4.174,0.242,6.239,0.37
	c0.182,2.539-1.152,4.047-2.239,5.511c-7.156,9.647-14.479,19.171-21.614,28.834c-3.663,4.961-8.083,9.433-10.323,15.355
	c1.185,0.03,2.337-0.094,3.199-1.033c6.496-7.076,13.13-14.034,19.418-21.292c4.245-4.898,8.64-9.718,12.069-15.279
	c0.398-0.646,1.035-1.085,1.791-0.842c0.791,0.254,0.72,1.069,0.817,1.754c0.73,5.128-1.501,9.358-4.145,13.426
	c-0.514,0.792-1.325,1.382-1.351,2.885c1.971,0.659,2.847-2.227,4.665-1.72c0.22,0.376,0.647,0.766,0.648,1.156
	c0.045,16.608,0.056,33.216,0.063,49.823c0.003,6.258-0.081,12.516,0.014,18.772c0.05,3.285-0.936,5.891-3.072,8.519
	c-8.638,10.631-17.359,21.211-25.001,32.609c-1.471,2.193-2.983,4.361-4.376,6.603c-0.364,0.587-0.386,1.594,0.41,1.864
	c0.501,0.169,1.485-0.138,1.819-0.568c6.345-8.17,12.738-16.307,18.856-24.645c1.995-2.72,3.853-5.541,6.278-7.873
	c1.436-1.382,1.906-4.894,4.246-3.883c1.788,0.772,0.536,3.94,0.781,6.027c0.745,6.314-0.894,11.542-5.407,16.411
	c-6.689,7.216-12.874,14.935-18.241,23.236c-1.826,2.824-3.511,5.74-5.187,8.656c-0.145,0.254,0.146,0.999,0.446,1.202
	c0.3,0.203,1.02,0.19,1.289-0.04c1.088-0.929,2.198-1.881,3.071-3.002c2.954-3.796,5.805-7.673,8.707-11.511
	c4.613-6.102,9.237-12.198,13.793-18.215c1.991,0.821,1.486,2.216,1.492,3.279c0.087,16.607-0.016,33.217,0.247,49.821
	c0.072,4.53-1.558,8.134-4.58,10.929c-11.769,10.885-20.206,24.459-30.224,36.753c-8.367,10.268-15.717,21.275-23.684,31.83
	c-0.575,0.762-1.151,1.577-1.468,2.46c-0.208,0.579-0.194,1.51,0.148,1.959c0.748,0.983,1.84,0.555,2.468-0.154
	c3.03-3.417,6.067-6.837,8.913-10.407c5.394-6.765,10.705-13.598,15.965-20.469c6.871-8.975,13.629-18.036,20.492-27.016
	c3.213-4.203,6.813-8.113,9.453-12.745c0.346-0.606,0.892-1.104,2.159-0.866c0.634,3.111,0.117,6.428,0.255,9.693
	c0.072,1.676-0.059,3.369-0.199,5.046c-0.15,1.782-1.208,3.09-2.453,4.281c-12.231,11.694-21.946,25.491-32.33,38.726
	c-1.023,1.303-1.75,2.852-2.5,4.344c-0.146,0.292,0.116,1.002,0.414,1.242c0.277,0.224,0.963,0.256,1.275,0.061
	c0.803-0.504,1.605-1.091,2.224-1.803c6.466-7.44,13.378-14.497,19.04-22.628c3.432-4.927,7.148-9.657,10.757-14.46
	c0.428-0.57,0.937-1.108,1.504-1.534c0.34-0.255,0.91-0.434,1.29-0.331c0.351,0.095,0.835,0.609,0.839,0.944
	c0.085,6.011,0.128,12.023,0.11,18.034c-0.002,0.675-0.317,1.416-0.674,2.013c-2.958,4.946-5.576,10.105-9.254,14.599
	c-4.268,5.21-8.493,10.456-12.715,15.702c-0.443,0.55-0.772,1.198-1.1,1.828c-0.095,0.182-0.081,0.617,0.02,0.67
	c0.391,0.202,0.975,0.541,1.243,0.391c2.555-1.431,4.412-3.67,6.421-5.731c4.703-4.823,9.398-9.652,14.127-14.448
	c0.278-0.282,0.888-0.469,1.252-0.369c0.354,0.099,0.835,0.62,0.841,0.962c0.103,7.217,0.174,14.435,0.184,21.652
	c0.003,2.263-1.125,4.149-2.4,5.931c-0.698,0.975-1.527,1.866-2.146,2.887c-1.135,1.871-4.139,2.791-3.02,5.827
	c2.583-0.139,3.156-2.69,4.771-3.991c0.574-0.461,1.217-1.084,1.87-0.608c0.475,0.347,0.752,1.155,0.852,1.798
	c0.343,2.213-0.073,4.27-1.322,6.198c-1.43,2.206-2.71,4.508-3.993,6.665c1.047,1.581,1.728,0.422,2.492,0.094
	c2.219-0.951,2.872-0.73,3.013,1.153c0.379,5.038,0.777,10.079,0.983,15.126c0.158,3.843-0.734,4.776-4.522,4.791
	c-8.182,0.034-16.365-0.042-24.548-0.114c-6.978-0.062-13.958-0.135-20.935-0.303c-2.313-0.056-2.995-1.22-1.886-3.335
	c1.885-3.596,2.981-7.621,5.941-10.661c0.933-0.958,1.794-2.211,1.791-4.317C155.427,828.325,153.254,831.4,150.976,834.292z
	 M137.068,515.417c-0.001,0.075-0.001,0.15-0.001,0.225c-23.782,0.451-47.564,0.901-71.346,1.352
	c-0.961,0.018-1.925,0.07-2.885,0.049c-4.275-0.095-4.92-0.783-4.88-5.13c0.034-3.489,0.976-4.578,4.248-4.007
	c4.784,0.836,9.594,0.524,14.387,0.815c32.186,1.954,64.414,1.445,96.629,1.547c12.501,0.039,25.002-0.239,37.504-0.324
	c1.417-0.01,2.876,0.139,4.24,0.502c0.987,0.263,1.301,1.295,1.301,2.321c0.001,1.037-0.365,2.081-1.351,2.274
	c-1.623,0.317-3.318,0.362-4.984,0.363C185.643,515.423,161.355,515.417,137.068,515.417z M216.175,852.954
	c-0.013,4.508-0.334,4.985-4.89,5.016c-14.444,0.098-28.889,0.064-43.333,0.107c-27.198,0.079-54.397,0.132-81.594,0.297
	c-7.216,0.044-14.43,0.456-21.645,0.692c-1.201,0.039-2.408,0.126-3.605,0.053c-2.075-0.127-2.948-0.941-3.156-3.165
	c-0.201-2.151-0.239-4.325-0.234-6.487c0.077-32.978,0.211-65.956,0.252-98.934c0.037-30.811-0.017-61.623-0.038-92.434
	c-0.03-41.405-0.078-82.81-0.077-124.215c0-3.115,0.235-6.24,0.561-9.34c0.107-1.013,1.159-1.432,2.232-1.332
	c0.784,0.074,1.447,0.457,1.534,1.246c0.209,1.898,0.612,3.852,0.365,5.707c-0.799,5.996-0.75,12.013-0.735,18.026
	c0.074,27.918,0.254,55.837,0.296,83.756c0.032,22.382-0.14,44.765-0.112,67.147c0.043,33.93,0.129,67.862,0.304,101.792
	c0.064,12.494,0.463,24.985,0.632,37.479c0.036,2.635-0.307,5.273-0.394,7.912c-0.102,3.079,1.294,4.868,4.183,4.509
	c11.048-1.372,22.114-0.068,33.175-0.429c13.428-0.439,26.928-1.418,40.339,0.708c1.17,0.185,2.416,0.194,3.585,0.013
	c8.369-1.302,16.8-1.027,25.218-1.13c11.553-0.141,23.108-0.267,34.661-0.472c1.904-0.034,3.81-0.386,5.696-0.702
	c1.069-0.179,1.498-1.731,0.558-2.176c-3.382-1.599-3.077-4.287-2.853-7.33c1.112-15.135,0.908-30.304,0.969-45.468
	c0.09-22.144,0.298-44.287,0.399-66.431c0.054-12.027-0.056-24.055-0.005-36.082c0.044-10.342,0.29-20.683,0.306-31.024
	c0.02-12.268-0.162-24.536-0.163-36.804c-0.001-15.871,0.188-31.743,0.114-47.614c-0.074-15.636-0.374-31.271-0.579-46.905
	c-0.009-0.722-0.068-1.443-0.063-2.165c0.035-4.105,1.219-5.184,5.188-4.747c2.102,0.232,3.086,1.03,3.331,3.091
	c0.227,1.904,0.322,3.841,0.272,5.758c-0.768,29.603-0.689,59.212-0.711,88.82c-0.019,23.591-0.003,47.184-0.003,70.775
	c-0.005,53.92-0.005,107.84-0.003,161.76C216.151,852.473,216.175,852.714,216.175,852.954z M233.258,482.836
	c-0.082,2.547-0.963,3.375-3.46,3.693c-5.323,0.679-10.057-0.476-13.818-4.513c-1.266-1.359-3.138-2.281-3.47-4.579
	c2.516-0.808,5.021-1.552,7.473-2.445c0.582-0.212,1.319-0.87,1.402-1.41c0.192-1.277-1.041-1.467-1.9-1.609
	c-2.601-0.428-5.217-0.783-7.841-1.028c-3.123-0.291-6.251-0.557-9.111-1.961c-1.025-0.504-2.274-1.179-1.89-2.641
	c0.275-1.048,1.427-1.14,2.349-1.396c0.176-0.049,0.305-0.268,0.717-0.649c-1.074-0.147-1.927-0.364-2.78-0.363
	c-5.126,0.003-8.341-3.206-11.352-6.731c-0.234-0.275-0.23-0.966-0.05-1.319c0.174-0.343,0.721-0.71,1.097-0.701
	c3.121,0.075,6.287-0.055,9.353,0.429c7.419,1.168,14.883,0.634,22.322,0.962c2.642,0.117,5.295,0.044,7.931,0.23
	c2.468,0.174,3.29,1.141,3.518,3.672c0.043,0.478,0.059,0.962,0.048,1.442C233.626,468.892,233.48,475.866,233.258,482.836z
	 M1118.19,478.359c-0.23,1.641-1.346,2.444-2.885,2.795c-2.592,0.59-5.201,0.757-7.868,0.808
	c-6.727,0.128-13.449,0.503-20.171,0.819c-0.417,0.02-1.08,0.296-1.18,0.6c-0.307,0.943,0.494,1.203,1.194,1.395
	c0.459,0.125,0.946,0.183,1.424,0.205c1.44,0.066,2.88,0.109,4.321,0.143c6.953,0.162,13.906,0.318,20.858,0.477
	c0.041,0.416,0.081,0.831,0.122,1.246c-1.172,0.173-2.343,0.494-3.515,0.493c-9.123-0.012-18.248-0.139-27.372-0.124
	c-6.959,0.011-13.917,0.189-20.876,0.27c-2.643,0.031-5.288,0.032-7.931-0.01c-7.935-0.129-15.869-0.445-23.8,0.166
	c-1.434,0.111-2.893,0.093-4.327-0.019c-3.503-0.275-4.408-1.111-5.304-4.723c-0.231-0.933-0.434-1.88-0.547-2.832
	c-1.324-11.109-2.196-10.431,8.714-10.414c26.708,0.043,53.417,0.016,80.125,0.016c0.722,0,1.445-0.008,2.166-0.023
	C1120.382,469.452,1119.306,470.379,1118.19,478.359z M1142.839,476.458c-0.208,2.565-0.952,3.514-3.34,3.842
	c-4.256,0.583-8.542,0.718-12.828,0.35c-1.333-0.114-2.19-1.009-2.27-2.326c-0.494-8.153-0.838-9.173,7.369-8.817
	c0.475,0.021,0.952,0.002,1.428,0.002c0.002-0.063,0.006-0.126,0.008-0.189c1.899,0.105,3.806,0.126,5.694,0.333
	c3.013,0.331,3.833,1.183,3.987,3.95C1142.941,474.551,1142.916,475.51,1142.839,476.458z M1087.432,378.495
	c4.787,0.365,9.636,1.279,14.357,0.843c7.261-0.671,14.41-0.348,21.589,0.463c5.5,0.621,11.002,1.243,16.483,2.01
	c2.529,0.354,3.478,1.585,3.471,3.799c-0.01,3.394-0.973,4.836-3.717,5.169c-2.147,0.26-4.321,0.318-6.486,0.403
	c-9.621,0.38-19.24,0.82-28.864,1.078c-9.143,0.245-18.291,0.346-27.437,0.412c-24.31,0.175-48.622,0.235-72.932,0.48
	c-6.719,0.067-13.433,0.606-20.147,0.98c-0.395,0.022-1.052,0.463-1.093,0.773c-0.117,0.897,0.595,1.167,1.366,1.187
	c0.48,0.013,0.96-0.056,1.441-0.078c0.961-0.043,1.933-0.012,2.885-0.132c3.716-0.47,6.468,0.992,8.458,4.046
	c0.437-1.891,1.166-3.479,3.542-3.57c2.211-0.085,4.347-0.133,5.763,2.057c2.741,4.238,5.529,8.443,8.298,12.662
	c0.393,0.599,0.714,1.273,1.214,1.766c0.269,0.266,0.908,0.401,1.27,0.275c0.743-0.257,1.043-0.994,0.878-1.719
	c-0.441-1.914-1.511-3.523-2.707-5.042c-1.637-2.079-3.331-4.114-4.945-6.212c-0.573-0.744-1.217-1.588-0.812-2.617
	c0.408-1.037,1.376-1.036,2.355-1.198c4.815-0.795,9.555,0.406,14.341,0.434c17.805,0.102,35.61,0.344,53.414,0.546
	c1.434,0.016,2.867,0.122,4.274,0.185c0.34,2.24-1.537,2.337-2.573,3.105c-10.432,7.73-13.109,23.725-4.875,34.871
	c3.161,4.279,7.63,7.301,12.889,8.795c10.313,2.928,19.743,1.255,27.27-6.567c3.016-3.135,5.955-4.442,10.095-3.986
	c4.303,0.474,8.641,0.615,12.948,1.056c2.183,0.223,2.88,1.11,3.185,3.236c1.171,8.167-0.365,10.213-8.786,10.869
	c-10.311,0.805-20.64,1.362-30.961,2.05c-1.1,0.074-2.306-0.373-3.464,0.692c3.505,1.391,7.063,1.565,10.618,1.784
	c9.127,0.563,18.254,1.136,27.379,1.708c0.721,0.045,1.446,0.071,2.16,0.167c2.14,0.29,2.967,1.174,3.096,3.249
	c0.153,2.475-0.729,4.017-2.85,4.258c-5.505,0.627-11.035,0.902-16.519-0.188c-1.167-0.232-2.236-0.787-3.477-0.312
	c-3.966,1.519-8.116,0.713-12.161,0.72c-13.943,0.024-27.886-0.354-41.828-0.318c-13.722,0.035-27.441,0.439-41.161,0.554
	c-2.563,0.021-5.327,0.805-7.667-1.096c-0.621-0.505-1.385-0.453-1.979,0.018c-2.32,1.843-5.082,1.248-7.654,1.3
	c-10.589,0.214-21.186,0.114-31.771,0.419c-10.815,0.312-21.618,0.991-32.428,1.451c-3.355,0.143-6.718,0.07-10.075,0.17
	c-0.344,0.01-0.918,0.514-0.944,0.825c-0.028,0.332,0.437,0.982,0.743,1.019c2.14,0.256,4.291,0.489,6.444,0.545
	c22.367,0.581,44.733,1.166,67.103,1.661c8.624,0.191,8.908-0.426,8.793,8.73c-0.028,2.166-0.065,4.333-0.107,6.5
	c-0.036,1.778-1.186,2.577-2.733,2.768c-1.666,0.205-3.359,0.239-5.041,0.245c-15.159,0.058-30.318,0.11-45.477,0.131
	c-15.643,0.022-31.285,0.008-46.928,0.005c-0.962,0-1.93,0.026-2.885-0.071c-1.988-0.203-2.871-1.095-3.06-3.283
	c-0.598-6.955-1.128-13.915-1.703-20.871c-0.078-0.946-0.241-1.886-0.415-2.82c-0.039-0.207-0.329-0.553-0.436-0.529
	c-0.429,0.096-1.004,0.198-1.205,0.507c-0.379,0.585-0.758,1.315-0.755,1.983c0.039,6.748-2.022,13.305-1.629,20.112
	c0.224,3.868-0.691,4.676-4.622,4.811c-6.009,0.206-12.029,0.13-18.044,0.137c-24.795,0.027-49.59,0.041-74.385,0.058
	c-0.481,0.001-0.963-0.009-1.445-0.021c-6.575-0.172-7.224-0.676-7.784-7.468c-0.355-4.308-0.313-8.648-0.459-12.973
	c-0.041-1.202-0.029-2.416-0.194-3.603c-0.457-3.297-1.969-5.872-2.864-5.155c-1.747,1.4-1.094,3.537-1.188,5.335
	c-0.351,6.725-0.495,13.462-0.715,20.194c-0.088,2.668-0.756,3.559-3.319,3.684c-3.359,0.165-6.73,0.118-10.096,0.117
	c-13.719-0.005-27.437-0.028-41.156-0.043c-14.68-0.016-29.361-0.026-44.04-0.058c-1.199-0.002-2.409-0.077-3.593-0.254
	c-1.326-0.198-2.139-1.097-2.312-2.395c-0.22-1.667-0.293-3.354-0.414-5.034c-0.432-5.992-0.834-11.987-1.321-17.975
	c-0.052-0.642-0.511-1.698-0.931-1.777c-1.173-0.222-1.693,0.872-1.816,1.789c-0.667,5.004-1.456,10.008-1.775,15.039
	c-0.699,11.047,1.086,10.577-10.8,10.582c-29.364,0.013-58.728,0.007-88.094,0.006c-8.229,0-8.531-0.183-9.163-8.218
	c-0.34-4.312-0.239-8.656-0.451-12.981c-0.058-1.161-0.47-2.325-0.865-3.435c-0.104-0.294-0.739-0.449-1.158-0.559
	c-0.174-0.045-0.538,0.141-0.617,0.312c-0.501,1.08-1.15,2.145-1.372,3.289c-0.962,4.952-2.227,9.871-1.985,14.989
	c0.057,1.198,0.019,2.412-0.103,3.605c-0.211,2.088-0.996,2.87-3.3,2.976c-3.606,0.166-7.218,0.225-10.829,0.231
	c-25.274,0.04-50.548,0.061-75.821,0.071c-3.129,0.001-6.263-0.013-9.387-0.177c-2.603-0.136-3.508-0.947-3.695-3.468
	c-0.319-4.319-0.488-8.652-0.627-12.982c-0.125-3.864-0.424-7.693-1.716-11.367c-0.115-0.328-0.733-0.653-1.122-0.659
	c-0.377-0.006-1.033,0.341-1.098,0.637c-0.625,2.812-1.409,5.625-1.646,8.479c-0.421,5.032-0.43,10.098-0.728,15.142
	c-0.202,3.416-0.878,4.132-4.468,4.174c-11.778,0.137-23.558,0.146-35.339,0.191c-5.296,0.02-10.593,0.023-15.89,0.012
	c-13.476-0.027-26.95-0.067-40.426-0.097c-0.722-0.002-1.445,0.062-2.166,0.042c-4.328-0.118-5.257-0.925-4.49-5.207
	c1.285-7.176,0.667-14.411,1.134-21.606c0.061-0.954-0.027-1.925-0.111-2.882c-0.114-1.297-0.747-2.311-1.998-2.735
	c-1.294-0.438-2.252,0.216-3.145,1.147c-1.572,1.637-2.344,3.595-2.684,5.791c-0.886,5.716-1.512,11.454-1.535,17.248
	c-0.007,1.682,0.02,3.376-0.158,5.043c-0.219,2.045-1.193,2.921-3.31,3.072c-1.678,0.119-3.368,0.092-5.053,0.092
	c-21.185-0.002-42.369-0.059-63.554,0.007c-8.911,0.028-17.811,0.09-26.648-1.293c-0.713-0.111-1.445-0.093-2.155-0.212
	c-2.681-0.444-3.373-1.065-3.637-3.612c-0.224-2.152-0.284-4.323-0.373-6.489c-0.218-5.284,0.023-10.582-0.906-15.841
	c-0.457-2.579,0.516-3.635,3.074-3.71c5.534-0.162,11.072-0.187,16.608-0.299c1.438-0.029,2.88-0.071,3.995-1.263
	c0.568-0.608,0.521-2.264-0.24-2.483c-1.128-0.325-2.297-0.693-3.453-0.711c-6.977-0.108-13.957-0.124-20.935-0.165
	c-12.029-0.071-24.058-0.143-36.087-0.199c-3.608-0.017-7.218,0.043-10.826,0.016c-1.682-0.013-3.377-0.039-5.042-0.252
	c-2.406-0.307-4.249-1.683-3.719-2.604c0.908-1.579,2.526-0.852,3.849-1.063c4.511-0.717,9.028-1.396,13.531-2.159
	c0.257-0.044,0.623-0.751,0.555-1.069c-0.072-0.344-0.579-0.823-0.922-0.845c-1.918-0.125-3.842-0.139-5.765-0.173
	c-5.756-0.102-11.514-0.154-17.267-0.338c-0.877-0.028-1.779-0.574-2.587-1.028c-0.616-0.346-1.128-0.898-1.641-1.405
	c-2.028-2.004-4.636-3.473-5.81-6.269c2.565-2.465,5.839-1.402,8.751-1.493c6.006-0.188,12.026,0.169,18.041,0.282
	c4.58,0.085,9.123-0.139,13.667-0.9c7.426-1.242,14.904-0.311,22.344,0.014c4.134,0.181,8.142-0.368,12.184-0.885
	c0.365-0.047,0.893-0.545,0.952-0.9c0.143-0.84-0.523-1.384-1.239-1.412c-4.803-0.185-9.646,0.035-14.409-0.485
	c-10.312-1.126-20.585-1.283-30.962-0.947c-11.529,0.373-23.095-0.421-34.646-0.65c-2.003-0.04-3.789-0.394-5.304-1.806
	c-5.45-5.079-10.932-10.125-16.383-15.204c-0.72-0.671-1.257-1.614-0.73-2.527c0.301-0.524,1.159-0.961,1.802-1.014
	c2.873-0.238,5.765-0.522,8.639-0.432c12.549,0.392,24.984-1.163,37.458-2.065c0.865-0.063,1.993-0.003,2.332-1.46
	c-0.635-0.245-1.246-0.673-1.871-0.694c-9.84-0.323-19.685-0.492-29.521-0.908c-8.649-0.366-17.266-1.445-25.95-1.117
	c-1.678,0.064-3.34-0.303-4.677-1.558c-3.504-3.29-7.054-6.532-10.548-9.832c-0.308-0.292-0.522-0.885-0.477-1.305
	c0.086-0.802,0.777-1.17,1.508-1.219c3.121-0.209,6.247-0.377,9.371-0.539c2.383-0.124,4.742-0.301,7.448-2.33
	c-7.274-0.632-13.664-2.418-20.331-2.399c-2.138,0.006-4.384,0.231-6.386-0.786c-0.823-0.417-1.572-1.119-2.147-1.854
	c-0.694-0.887-0.168-1.754,0.381-2.591c0.487-0.741,0.155-1.477-0.665-1.508c-7.1-0.261-10.625-5.643-15.32-10.145
	c2.272-1.68,4.461-1.492,6.539-1.554c7.918-0.237,15.839-0.392,23.756-0.638c0.62-0.019,1.624-0.377,1.762-0.801
	c0.377-1.156-0.686-1.602-1.551-1.948c-0.888-0.355-1.814-0.699-2.755-0.832c-8.097-1.143-16.193-2.297-24.307-3.315
	c-3.096-0.388-6.223-0.59-9.362-0.116c-1.157,0.175-2.388-0.007-3.138-1.209c0.391-1.253,1.533-0.71,2.314-0.996
	c1.603-0.587,4.705,0.641,4.548-1.761c-0.128-1.944-3.21-1.174-5.016-1.434c-2.378-0.343-4.803-0.419-7.153-0.889
	c-4.738-0.95-6.961-2.754-10.622-8.398c3.092,0,5.901-0.025,8.711,0.005c20.208,0.208,40.417,0.428,60.624,0.643
	c0.482,0.005,0.963-0.018,1.445-0.012c7.12,0.093,7.164,0.092,7.449,7.178c0.223,5.517,1.464,10.971,0.851,16.553
	c-0.147,1.34,0.443,2.827,0.962,4.141c0.186,0.471,1.137,0.79,1.783,0.887c0.692,0.104,1.476-0.18,1.697-0.976
	c0.255-0.912,0.46-1.864,0.497-2.806c0.206-5.318-0.272-10.579-1.397-15.784c-0.407-1.878-0.848-3.761-1.068-5.665
	c-0.231-1.992,0.798-3.263,2.719-3.547c1.184-0.176,2.396-0.22,3.595-0.223c11.063-0.031,22.126-0.04,33.189-0.054
	c0.722-0.001,1.452-0.049,2.163,0.041c1.356,0.172,2.207,1.02,2.3,2.348c0.118,1.674,0.008,3.363,0.023,5.046
	c0.044,5.055,0.065,10.116,0.923,15.119c0.217,1.266,0.916,2.239,2.362,2.224c1.329-0.013,2.276-0.74,2.718-1.966
	c0.764-2.122,0.543-4.261-0.101-6.376c-1.351-4.434-0.806-9.087-1.565-13.596c-0.217-1.289,0.63-2.39,1.983-2.585
	c2.37-0.341,4.785-0.79,7.151-0.658c7.698,0.427,15.384,0.54,23.079,0.054c0.719-0.046,1.447-0.071,2.162-0.012
	c3.427,0.283,4.57,1.492,4.611,5.024c0.056,4.811,0.007,9.623,0.064,14.435c0.02,1.679,0.089,3.398,1.047,4.877
	c0.575,0.887,1.523,1.253,2.479,0.89c0.592-0.225,1.281-0.827,1.447-1.399c0.257-0.887,0.166-1.896,0.118-2.848
	c-0.275-5.528-0.428-11.059-1.299-16.55c-0.43-2.71,0.784-4.196,3.51-4.349c4.075-0.228,8.168-0.154,12.254-0.188
	c6.017-0.05,12.036-0.094,18.054-0.116c1.443-0.005,2.894,0.012,4.329,0.148c2.485,0.236,3.463,1.228,3.44,3.711
	c-0.035,3.609-0.275,7.214-0.349,10.823c-0.053,2.647-0.037,5.298,0.067,7.944c0.037,0.928,0.306,1.897,0.689,2.748
	c0.422,0.94,1.357,1.443,2.365,1.214c0.62-0.141,1.353-0.608,1.665-1.144c1.278-2.193,1.01-4.673,0.892-7.05
	c-0.189-3.842-0.64-7.671-0.909-11.511c-0.1-1.432-0.114-2.893,0.048-4.316c0.147-1.299,1.021-2.199,2.359-2.338
	c1.672-0.173,3.36-0.251,5.041-0.256c8.662-0.021,17.325-0.013,25.987,0.003c1.202,0.002,2.413,0.028,3.603,0.17
	c2.067,0.246,2.948,1.123,2.934,3.356c-0.036,6.015-0.172,12.031-0.366,18.043c-0.054,1.686-0.342,3.369,0.336,4.973
	c0.29,0.689,0.948,1.099,1.722,0.929c0.432-0.094,1.047-0.383,1.159-0.723c0.448-1.351,0.912-2.74,1.038-4.144
	c0.427-4.803,0.042-9.588-0.3-14.396c-0.59-8.283-0.307-8.246,7.442-8.145c7.941,0.104,15.885-0.037,23.828-0.049
	c1.44-0.002,2.894,0.006,4.319,0.186c1.38,0.175,2.156,1.174,1.995,2.519c-0.343,2.86-0.902,5.694-1.301,8.549
	c-0.437,3.13-0.356,6.253,0.787,9.234c0.208,0.541,0.999,0.99,1.617,1.213c1.129,0.407,1.857-0.432,2.292-1.261
	c0.933-1.78,0.642-3.756,0.609-5.672c-0.064-3.609-0.274-7.22-0.205-10.826c0.055-2.852,1.068-3.852,4.057-3.868
	c11.553-0.064,23.109-0.069,34.663,0.043c3.631,0.035,4.697,1.158,4.719,4.876c0.028,4.567-0.291,9.135-0.408,13.704
	c-0.077,2.959,0.867,5.034,2.093,4.73c2.048-0.507,2.217-2.399,2.488-3.982c0.61-3.571,0.339-7.122-0.088-10.748
	c-0.99-8.406-1.152-8.804,7.598-8.469c11.773,0.451,23.558-0.932,35.303,0.488c9.574-1.569,19.207,0.546,28.825-0.518
	c4.985-0.551,10.09-0.058,15.139,0.03c1.999,0.035,3.033,1.238,2.856,3.317c-0.203,2.392-0.562,4.772-0.842,7.158
	c-0.224,1.913-0.561,3.825-0.609,5.743c-0.05,2.036-0.929,4.512,1.796,5.609c1.584,0.637,2.689-1.363,2.937-5.592
	c0.14-2.399,0.109-4.815,0.024-7.218c-0.354-10.006,0.201-8.753,8.411-8.974c10.344-0.279,20.7-0.211,31.051-0.183
	c3.441,0.009,4.348,0.902,4.413,4.286c0.059,3.117-0.21,6.242-0.369,9.362c-0.146,2.882-0.407,5.759-0.471,8.642
	c-0.022,0.997,0.639,1.853,1.784,1.845c1.053-0.007,1.81-0.686,2.075-1.664c1.023-3.776,0.698-7.649,0.616-11.484
	c-0.052-2.398-0.521-4.783-0.713-7.182c-0.198-2.488,0.682-3.639,3.231-3.696c4.81-0.107,9.627-0.016,14.439,0.059
	c7.45,0.115,14.902,0.217,22.349,0.459c4.134,0.134,4.529,0.691,4.211,4.696c-0.361,4.558-0.772,9.113-1.099,13.674
	c-0.067,0.937,0.049,1.916,0.267,2.832c0.086,0.363,0.632,0.715,1.046,0.879c0.703,0.279,1.477,0.191,1.922-0.476
	c1.542-2.311,1.686-4.983,1.677-7.622c-0.012-3.609-0.279-7.217-0.318-10.827c-0.024-2.29,0.836-3.31,2.904-3.248
	c11.795,0.348,23.575-1.03,35.371-0.249c3.781,0.25,4.438,0.824,3.656,4.213c-0.875,3.796-0.799,7.649-1.148,11.474
	c-0.104,1.146,0.224,2.355,0.505,3.497c0.082,0.332,0.668,0.677,1.072,0.753c0.405,0.078,0.969-0.048,1.293-0.301
	c1.002-0.786,1.428-1.948,1.469-3.165c0.073-2.162,0.005-4.329,0.003-6.493c-0.001-2.405-0.068-4.813,0.036-7.214
	c0.072-1.662,1.163-2.548,2.764-2.824c0.237-0.041,0.477-0.08,0.715-0.078c9.613,0.077,19.226,0.117,28.838,0.261
	c3.125,0.046,3.767,0.729,3.983,3.839c0.15,2.159,0.159,4.331,0.132,6.496c-0.032,2.674,0.328,5.286,1.046,7.847
	c0.455,1.623,1.779,2.552,3.155,2.313c1.536-0.266,1.825-1.543,1.763-2.707c-0.137-2.635-0.489-5.26-0.78-7.886
	c-0.263-2.385-0.631-4.762-0.817-7.153c-0.137-1.751,0.859-2.66,2.594-2.727c3.606-0.14,7.213-0.352,10.82-0.372
	c7.94-0.042,15.879,0.013,23.819,0.037c0.96,0.003,1.944-0.064,2.874,0.118c1.008,0.198,1.772,0.947,1.706,2.012
	c-0.193,3.12-0.401,6.247-0.816,9.344c-0.421,3.135-0.354,6.243-0.013,9.361c0.077,0.705,0.232,1.438,0.53,2.073
	c0.439,0.934,1.27,1.463,2.328,1.332c1.035-0.127,1.906-0.738,1.882-1.814c-0.077-3.361-0.323-6.716-0.46-10.076
	c-0.117-2.883-0.284-5.77-0.219-8.651c0.046-2.014,1.054-3.082,3.109-3.342c2.137-0.27,4.336-0.488,6.467-0.286
	c6.5,0.614,12.985,0.219,19.483,0.123c3.835-0.056,7.686,0.27,11.513,0.608c2.787,0.246,3.62,1.213,3.664,4.32
	c0.061,4.331-0.138,8.664-0.152,12.997c-0.003,1.173,0.188,2.363,0.446,3.51c0.07,0.308,0.699,0.64,1.101,0.683
	c0.415,0.044,1.046-0.117,1.272-0.42c1.19-1.594,1.572-3.471,1.663-5.425c0.189-4.088,0.364-8.162-0.239-12.249
	c-0.373-2.531,0.54-3.389,3.191-3.612c0.239-0.02,0.48-0.021,0.721-0.023c11.79-0.054,23.581-0.108,35.371-0.161
	c0.481-0.002,0.966-0.036,1.442,0.012c2.037,0.203,2.974,1.068,3.04,3.28c0.117,3.847,0.035,7.698,0.066,11.548
	c0.012,1.44,0.005,2.892,0.19,4.315c0.17,1.299,1.023,2.151,2.372,2.3c1.431,0.158,2.243-0.717,2.649-1.932
	c0.706-2.11,0.537-4.264,0.153-6.424c-0.548-3.08-1.107-6.161-1.536-9.26c-0.352-2.552,0.441-3.465,3.165-3.582
	c4.567-0.195,9.138-0.314,13.709-0.366c6.734-0.078,13.472-0.223,20.201-0.062c9.129,0.218,7.856,0.903,8.348,8.098
	c0.112,1.661-0.104,3.346-0.172,5.02c-0.096,2.405-0.264,4.809-0.264,7.214c0,1.477,0.363,2.903,2.066,3.401
	c1.198,0.35,2.282-0.723,2.493-2.836c0.238-2.383,0.366-4.801,0.255-7.189c-0.158-3.361-0.618-6.707-0.875-10.065
	c-0.189-2.454,0.832-3.561,3.325-3.598c3.607-0.054,7.215-0.009,10.823-0.03c8.889-0.052,17.777-0.121,26.665-0.175
	c0.722-0.005,1.445,0.028,2.165,0.077c2.344,0.158,3.254,0.947,2.856,3.069c-1.679,8.945,0.551,17.739,0.878,26.604
	c0.026,0.692,0.375,1.416,1.31,1.379c0.779-0.032,1.387-0.417,1.591-1.172c1.299-4.796,0.575-9.595-0.463-14.268
	c-0.849-3.82-1.026-7.619-0.94-11.462c0.046-2.019,1.115-3.086,3.001-3.475c0.471-0.097,0.953-0.19,1.431-0.193
	c6.253-0.043,12.515-0.289,18.756-0.033c5.216,0.213,5.447,0.707,5.361,6.256c-0.074,4.814-0.303,9.626-0.381,14.44
	c-0.027,1.667,0.109,3.35,0.326,5.005c0.134,1.025,0.922,1.692,1.949,1.835c1.273,0.177,2.378-0.223,3.065-1.393
	c1.017-1.732,1.157-3.672,1.113-5.596c-0.121-5.29-0.296-10.581-0.529-15.867c-0.16-3.643,0.431-4.613,3.695-4.66
	c7.942-0.112,15.888-0.186,23.83-0.067c5.222,0.078,5.372,0.533,5.167,6.119c-0.209,5.77-0.239,11.548-0.276,17.322
	c-0.012,1.663-0.07,3.383,1.046,4.838c0.66,0.86,1.605,1.194,2.536,0.997c0.611-0.129,1.374-0.744,1.58-1.318
	c0.399-1.104,0.574-2.326,0.626-3.51c0.224-5.059-0.046-10.09-0.621-15.132c-1.006-8.842-0.473-9.345,8.604-9.353
	c8.418-0.008,16.836,0.025,25.253,0.082c1.189,0.008,2.393,0.173,3.562,0.408c1.058,0.212,1.748,1.107,1.636,2.076
	c-0.558,4.772-1.164,9.541-1.948,14.28c-0.386,2.333-1.512,3.254-4.053,3.254c-4.31-0.001-8.617-0.308-12.927-0.434
	c-2.138-0.063-4.281-0.011-6.505-0.011c0.151,1.874,1.564,1.66,2.537,1.723c4.802,0.311,9.613,0.51,14.421,0.732
	c2.672,0.123,5.282,0.264,7.146,2.672c1.079,1.394,2.605,1.286,3.814,0.239c2.043-1.767,4.403-1.686,6.823-1.579
	c11.292,0.496,22.587,0.956,33.876,1.512c1.901,0.094,3.78,0.617,5.673,0.906c1.167,0.178,2.524,0.733,3.485,0.345
	c3.358-1.351,6.658-0.403,9.991-0.238c11.544,0.573,23.093,0.632,34.642,0.123c1.683-0.074,3.369-0.226,5.05-0.185
	c2.445,0.059,3.454,1.156,3.512,3.584c0.087,3.681-0.749,4.824-4.389,5.132c-3.59,0.304-7.221,0.539-10.809,0.349
	c-7.962-0.422-15.849-0.102-23.766,0.895c-4.754,0.598-9.608,0.387-14.416,0.565c-1.367,0.051-2.858-0.467-4.014,0.76
	C1086.674,378.012,1087.036,378.465,1087.432,378.495z M1138.721,420.689c-3.489-3.329-7.807-4.616-12.495-4.698
	c-1.624-0.029-2.844-0.231-3.3-1.975c-1.51-5.77-4.769-10.443-9.035-14.501c-0.294-0.28-0.334-0.828-0.492-1.252
	c0.369-0.211,0.736-0.597,1.106-0.599c8.178-0.055,16.343,0.29,24.481,1.108c2.948,0.296,3.871,1.119,3.887,4.071
	c0.043,7.936-0.064,15.874-0.26,23.808c-0.071,2.881-1.142,3.721-4.183,3.574c-3.837-0.185-7.664-0.562-11.497-0.837
	c-1.377-0.099-3.019,0.468-3.838-1.151c-0.678-1.341,0.252-5.29,1.396-6.078c0.545-0.376,1.369-0.575,2.032-0.509
	c2.626,0.263,5.236,0.692,7.859,0.996c1.179,0.137,2.378,0.192,3.563,0.141c0.369-0.016,0.9-0.438,1.026-0.791
	C1139.106,421.625,1138.995,420.95,1138.721,420.689z M1111.549,434.116c-5.574,6.009-12.716,7.713-20.465,5.595
	c-8.887-2.429-15.254-12.621-14.193-21.803c0.539-4.664,2.126-8.927,5.187-12.478c3.404-3.949,7.279-7.128,12.983-5.64
	c1.31,0,2.523-0.1,3.714,0.016c8.24,0.808,13.914,5.344,16.801,12.838C1118.57,420.414,1117.32,427.898,1111.549,434.116z
	 M1138.925,353.697c-5.528,0.124-11.061,0.041-16.591,0.088c-1.92,0.016-3.843,0.095-5.756,0.261
	c-0.966,0.084-1.798,0.53-2.19,1.576c-0.328,0.875,0.697,1.653,2.444,1.741c6.239,0.313,12.48,0.604,18.719,0.914
	c1.681,0.083,3.361,0.192,5.04,0.309c1.585,0.11,2.759,0.725,2.958,2.493c0.197,1.762-0.798,2.883-3.161,2.988
	c-5.52,0.245-11.102,0.875-16.556,0.326c-6.97-0.702-13.939-0.089-20.876-0.766c-2.627-0.257-5.265-0.515-7.857-0.989
	c-2.066-0.379-2.677-1.398-2.588-3.645c0.037-0.957,0.123-1.923,0.316-2.858c0.733-3.547,0.982-7.128,1.081-10.745
	c0.102-3.77,0.918-4.508,4.737-4.831c1.433-0.121,2.882-0.085,4.323-0.087c5.529-0.009,11.058-0.003,16.588-0.003
	c0,0.074,0,0.148,0,0.222c6.728,0,13.457-0.083,20.183,0.035c3.405,0.06,4.124,0.939,4.327,4.362
	c0.072,1.198,0.099,2.405,0.054,3.605C1143.967,352.88,1143.318,353.598,1138.925,353.697z M721.081,410.836
	c-0.827-0.417-1.772-0.793-2.677-0.827c-3.606-0.133-7.217-0.128-10.825-0.168c-9.62-0.11-19.238-0.239-28.857-0.312
	c-3.594-0.027-6.485-1.259-8.78-4.137c-2.691-3.374-5.452-6.718-8.449-9.816c-6.516-6.734-12.324-14.16-19.578-20.17
	c-1.423-1.179-2.607-2.999-4.825-2.619c-1.261,0.216-0.388,2.936,1.885,5.544c0.79,0.905,1.707,1.698,2.514,2.589
	c7.42,8.191,15.208,16.054,22.047,24.762c0.442,0.562,0.963,1.109,1.224,1.753c0.306,0.756-0.148,1.478-0.893,1.59
	c-2.226,0.336-4.304-0.055-6.025-1.67c-1.228-1.151-2.465-2.294-3.74-3.392c-0.865-0.745-1.687-2.35-2.876-1.64
	c-1.73,1.031-0.381,2.525,0.179,3.751c0.67,1.466,0.117,2.955-2.023,2.784c-6.454-0.515-12.971,0.973-19.39-0.674
	c-0.872-0.224-1.945-0.176-2.795,0.119c-4.107,1.428-6.998-0.246-9.322-3.461c-1.972-2.727-3.855-5.52-5.852-8.228
	c-0.707-0.959-1.716-1.98-2.959-0.958c-1.112,0.914-0.662,2.203-0.021,3.269c0.618,1.03,1.404,1.956,2.035,2.979
	c1.008,1.629,2.08,3.239,2.865,4.975c0.453,1.001-0.239,1.787-1.369,2.01c-1.782,0.352-3.39-0.007-4.596-1.396
	c-1.732-1.994-3.621-3.915-5-6.14c-3.084-4.977-7.261-8.957-11.32-13.052c-0.807-0.813-1.954-1.387-3.048-1.774
	c-0.505-0.179-1.485,0.176-1.848,0.618c-0.381,0.466-0.625,1.579-0.336,1.968c1.134,1.528,2.381,3.018,3.805,4.274
	c4.356,3.84,7.812,8.465,11.465,12.915c0.319,0.387,0.156,1.329-0.051,1.919c-0.102,0.292-0.802,0.452-1.257,0.529
	c-2.773,0.472-4.437-1.061-5.992-3.116c-4.94-6.532-10.569-12.472-16.139-18.461c-1.993-2.144-4.252-3.905-7.041-4.829
	c-0.523-0.173-1.492,0.168-1.863,0.605c-0.395,0.464-0.589,1.415-0.393,1.991c0.296,0.866,0.837,1.836,1.568,2.336
	c6.655,4.554,11.415,10.976,16.749,16.828c1.047,1.149,3.106,2.35,1.695,4.132c-1.107,1.396-3.195,0.747-4.791,0.357
	c-1.111-0.271-2.197-0.959-3.104-1.696c-3.17-2.575-6.356-5.147-9.339-7.93c-1.784-1.665-3.727-2.996-5.87-4.073
	c-0.238-0.119-0.798,0.3-1.143,0.556c-0.107,0.079-0.083,0.509,0.03,0.676c0.4,0.585,0.812,1.18,1.315,1.673
	c2.406,2.355,4.859,4.661,7.26,7.02c0.834,0.819,1.927,1.653,1.325,3.036c-0.454,1.044-1.574,0.917-2.501,0.945
	c-1.925,0.062-3.85,0.077-5.776,0.079c-17.558,0.017-35.118-0.115-52.674,0.075c-21.404,0.232-42.804,0.05-64.212,0.62
	c-31.262,0.833-62.555-0.205-93.821,1.203c-11.282,0.508-22.587,0.513-33.882,0.738c-5.053,0.101-10.108,0.114-15.156,0.312
	c-1.309,0.052-2.866-0.375-3.922,0.981c0.663,1.936,2.371,1.307,3.643,1.335c6.245,0.138,12.494,0.041,18.737,0.209
	c16.11,0.431,32.214,1.168,48.325,1.397c25.025,0.357,50.054,0.446,75.08,0.555c23.828,0.103,47.656,0.096,71.484,0.118
	c19.735,0.019,39.473,0.146,59.206-0.084c5.049-0.059,8.844,1.574,11.972,5.29c0.464,0.552,0.845,1.189,1.369,1.674
	c5.399,5.002,10.261,10.644,16.829,14.263c-0.319-0.846-0.488-1.862-1.088-2.392c-3.416-3.024-5.87-6.947-9.593-9.728
	c-2.466-1.842-4.381-4.431-6.49-6.734c-0.667-0.727,0.005-1.937,1.06-2.118c2.771-0.473,5.218-0.076,7.198,2.194
	c1.737,1.992,3.593,3.887,5.469,5.751c1.184,1.176,2.47,2.257,3.784,3.285c0.248,0.194,1.003,0.092,1.242-0.151
	c0.25-0.255,0.38-1.016,0.188-1.259c-1.777-2.253-3.651-4.429-5.464-6.654c-0.606-0.746-1.345-1.757-0.603-2.546
	c0.545-0.581,1.706-0.703,2.617-0.796c1.777-0.18,3.228,0.547,4.525,1.792c3.644,3.499,7.404,6.875,10.407,10.986
	c0.983,1.346,1.977,2.79,3.696,3.309c0.363,0.11,0.977-0.11,1.263-0.393c0.282-0.279,0.502-0.9,0.385-1.251
	c-0.463-1.394-1.449-2.429-2.492-3.465c-2.714-2.7-5.358-5.475-7.929-8.309c-0.383-0.421-0.521-1.512-0.239-1.957
	c0.278-0.442,1.222-0.597,1.888-0.636c2.177-0.13,3.436,1.401,4.827,2.754c3.951,3.846,7.945,7.647,11.967,11.42
	c0.221,0.208,0.984,0.155,1.231-0.069c0.262-0.238,0.428-0.95,0.261-1.238c-1.951-3.369-4.828-5.954-7.487-8.727
	c-0.976-1.017-2.271-2.332-1.2-3.696c0.936-1.193,2.7-0.634,4.105-0.42c1.26,0.191,2.021,1.182,2.864,2.052
	c1.841,1.9,3.726,3.756,5.639,5.583c0.867,0.83,1.782,1.64,2.785,2.288c1.045,0.676,1.468,2.599,3.566,1.742
	c-0.679-0.85-1.273-1.585-1.859-2.327c-1.933-2.448-3.896-4.871-5.773-7.36c-0.652-0.864-0.014-1.89,1.093-2.054
	c3.305-0.49,6.058,0.182,8.381,2.905c3.431,4.024,7.134,7.817,10.763,11.67c0.981,1.041,2.03,2.056,3.195,2.872
	c1.041,0.729,2.287,0.873,3.143-0.397c0.714-1.059,0.953-2.332,0.132-3.358c-0.889-1.111-2.079-1.977-3.113-2.975
	c-2.939-2.839-5.89-5.667-8.782-8.554c-0.756-0.754-0.263-2.006,0.712-2.194c2.789-0.539,5.254-0.001,7.281,2.091
	c4.015,4.144,8.034,8.285,12.042,12.436c1.158,1.2,2.08,2.711,3.855,3.1c0.384,0.085,0.964-0.112,1.258-0.387
	c0.307-0.289,0.578-0.858,0.519-1.253c-0.225-1.504-1.302-2.523-2.283-3.585c-2.936-3.183-5.876-6.362-8.78-9.574
	c-0.634-0.701-1.312-1.73-0.354-2.43c0.657-0.481,1.819-0.454,2.728-0.368c1.54,0.147,2.493,1.344,3.492,2.379
	c2.005,2.074,3.97,4.186,5.999,6.234c0.961,0.97,2.146,1.149,3.187,0.18c0.951-0.885,1.295-2.146,0.62-3.28
	c-0.728-1.224-1.812-2.229-2.653-3.394c-0.854-1.186-0.245-2.331,1.318-2.358c6.976-0.12,13.953-0.176,20.931-0.258
	c4.09-0.048,8.181-0.085,12.271-0.162c1.463-0.027,2.847-0.393,4.094-1.217C722.274,413.817,722.29,411.446,721.081,410.836z
	 M609.516,437.658c-0.056-0.03-0.107-0.067-0.162-0.097c0.024,0.063,0.043,0.132,0.07,0.194L609.516,437.658z M947.599,395.877
	c0.052-0.002,0.094,0.011,0.145,0.012c-0.013-0.033-0.025-0.066-0.037-0.099L947.599,395.877z M970.026,388.584
	c-0.554-0.993-1.105-2.421-2.603-1.448c-0.94,0.611-0.463,1.711-0.119,2.61c1.018,2.668,1.484,5.538,3.324,7.907
	c0.684,0.882,0.925,2.213,1.05,3.374c0.055,0.51-0.572,1.43-1.083,1.609c-3.659,1.281-6.734,0.346-8.747-2.708
	c-1.847-2.804-3.507-5.732-5.289-8.58c-0.631-1.009-1.328-1.989-2.1-2.892c-0.257-0.3-0.924-0.531-1.254-0.404
	c-0.308,0.118-0.63,0.778-0.583,1.155c0.297,2.436,1.542,4.521,2.678,6.626c0.798,1.477,1.836,2.825,2.61,4.314
	c0.284,0.547,0.381,1.492,0.093,1.97c-0.562,0.932-1.668,0.809-2.607,0.58c-1.82-0.443-2.548-2.103-3.544-3.42
	c-1.114-1.474-1.852-3.364-4.108-3.388c0.81,2.153,1.621,4.306,2.417,6.423c-0.581,0.329-0.959,0.677-1.39,0.769
	c-7.105,1.503-12.538-0.519-16.53-6.945c-3.541-5.701-7.74-10.994-11.693-16.436c-0.211-0.29-0.969-0.508-1.229-0.352
	c-0.291,0.175-0.55,0.934-0.402,1.231c3.002,6.059,6.634,11.71,11.061,16.839c1.096,1.27,2.175,2.559,3.179,3.901
	c0.652,0.872,0.104,2.132-0.919,2.156c-5.528,0.129-11.056,0.221-16.585,0.31c-2.581,0.042-4.607-1.017-6.26-3.009
	c-2.763-3.33-5.608-6.591-8.437-9.865c-0.574-0.664-1.042-1.641-2.679-0.907c1.394,2.459,2.843,4.791,4.69,6.93
	c1.406,1.628,2.663,3.401,3.831,5.21c0.402,0.623,0.023,1.441-0.839,1.621c-0.697,0.145-1.431,0.143-2.148,0.15
	c-20.936,0.207-41.874,0.312-62.807,0.659c-7.44,0.124-14.87,0.82-22.301,1.308c-0.341,0.022-0.837,0.526-0.931,0.891
	c-0.216,0.838,0.308,1.352,1.128,1.377c9.614,0.294,19.226,0.605,28.842,0.83c7.701,0.18,15.406,0.424,23.104,0.32
	c7.899-0.106,15.778,1.519,23.684,0.208c0.452-0.075,0.948,0.166,1.426,0.181c2.882,0.09,5.766,0.198,8.649,0.22
	c3.576,0.027,7.214-0.797,10.629,1.067c0.54,0.294,1.425,0.232,2.059,0.038c6.625-2.017,13.376-0.529,20.061-0.765
	c2.035-0.072,3.736,0.86,5.017,2.444c1.21,1.496,2.319,3.076,3.547,4.558c2.45,2.954,4.665,6.166,8.307,7.866
	c-1.928-3.595-4.233-6.915-7.077-9.857c-0.659-0.68-1.226-1.459-1.762-2.242c-0.809-1.18-0.256-2.611,1.11-2.631
	c5.24-0.077,10.482-0.06,15.724-0.045c1.547,0.004,2.705,0.828,3.608,2.021c4.166,5.507,8.335,11.012,12.474,16.54
	c0.807,1.078,0.218,2.639-1.021,2.724c-3.805,0.262-7.622,0.379-11.421,0.692c-2.543,0.209-4.669-0.708-6.735-1.975
	c-0.379,1.053-0.759,2.107-1.138,3.16c3.09,1.811,6.014,3.413,9.967,1.707c2.042-0.881,4.744-0.256,7.148-0.274
	c7.436-0.055,14.874-0.082,22.31-0.141c1.561-0.013,2.704-1.661,2.034-3.005c-0.528-1.059-1.179-2.086-1.932-2.997
	c-3.216-3.89-6.483-7.737-9.744-11.589c-3.417-4.037-6.697-8.134-9.111-12.914C975.967,398.96,972.936,393.802,970.026,388.584z
	 M989.387,426.051c1.144,1.532,2.21,3.128,3.225,4.748c0.562,0.896-0.195,1.916-1.236,2.012c-4.561,0.42-8.031-1.99-10.661-5.052
	c-4.339-5.052-8.391-10.408-11.578-16.349c6.894-3.598,6.805-3.534,10.715,1.996C982.9,417.714,986.227,421.822,989.387,426.051z
	 M341.001,389.257c17.506,0.114,35.024-0.363,52.516,0.132c18.751,0.53,37.489,0.369,56.234,0.331
	c8.17-0.016,16.339-0.146,24.509-0.158c11.541-0.016,23.08,0.049,34.62,0.035c2.159-0.003,4.319-0.203,6.478-0.323
	c1.198-0.066,2.438-0.094,2.792-1.613c0.275-1.174-0.774-1.937-3.105-2.089c-2.399-0.158-4.805-0.262-7.208-0.271
	c-13.223-0.046-26.446-0.093-39.668-0.068c-23.323,0.045-46.645,0.126-69.967,0.223c-15.377,0.064-30.754,0.147-46.131,0.286
	c-16.803,0.153-33.608,0.362-50.41,0.616c-1.368,0.021-2.727,0.58-4.089,0.888c0.077,0.446,0.154,0.893,0.231,1.339
	c2.872,0,5.744-0.045,8.614,0.008C317.946,388.809,329.472,389.182,341.001,389.257z M918.442,432.037
	c-10.079-0.228-20.165-0.087-30.249-0.085c-15.376,0.002-30.753,0.001-46.13,0.001c0-0.076,0-0.152,0-0.228
	c-0.721,0-1.442,0.002-2.162-0.001c-24.742-0.066-49.483-0.136-74.225-0.194c-1.44-0.003-2.885,0.039-4.321,0.134
	c-1.586,0.104-2.603,1.041-2.343,1.977c0.311,1.119,1.223,1.448,2.144,1.614c0.932,0.169,1.912,0.071,2.868,0.115
	c5.511,0.25,11.04-0.372,16.499-0.203c6.692,0.206,13.386,0.384,20.084,0.462c6.484,0.076,12.97,0.309,19.454,0.246
	c14.152-0.137,28.3-0.443,42.45-0.631c10.313-0.137,20.627-0.191,30.941-0.292c8.404-0.082,16.81-0.137,25.212-0.297
	c2.284-0.043,4.756,0.83,6.784-1.023C923.689,430.687,920.75,432.09,918.442,432.037z M996.347,419.684
	c2.966,4.578,7.438,8.264,8.386,14.051c0.031,0.192,0.255,0.421,0.445,0.508c1.094,0.5,2.257,1.115,3.406,0.355
	c0.96-0.633,0.842-1.636,0.26-2.501c-2.147-3.193-4.098-6.556-6.551-9.5c-5.257-6.312-9.529-13.279-14.03-20.1
	c-0.652-0.988-1.23-2.07-2.449-2.493c-0.182-0.063-0.474,0.017-0.641,0.136c-0.172,0.121-0.252,0.372-0.496,0.769
	c0.299,0.747,0.519,1.712,1.024,2.493C989.22,408.851,992.823,414.241,996.347,419.684z M367.096,440.922
	c-1.094,0.045-2.384-0.381-3.164,0.866c0.104,0.234,0.188,0.603,0.283,0.607c10.736,0.326,21.47,0.723,32.208,0.88
	c4.741,0.069,9.52,0.096,14.276-1.045C404.723,440.779,381.423,440.338,367.096,440.922z M489.771,440.649
	c-5.016-0.071-10.032-0.039-15.049-0.039c-0.001,0.103-0.001,0.205-0.002,0.308c-4.769,0-9.538-0.017-14.307,0.041
	c-0.292,0.003-0.707,0.554-0.837,0.929c-0.187,0.541,0.148,0.947,0.719,1.057c0.698,0.135,1.401,0.328,2.103,0.34
	c6.694,0.126,13.389,0.237,20.084,0.312c2.381,0.027,4.766-0.009,7.147-0.111c0.732-0.031,1.249-0.563,1.337-1.378
	C491.063,441.207,490.432,440.658,489.771,440.649z M451.933,440.874c-7.87-0.071-15.741-0.125-23.61-0.025
	c-1.803,0.023-3.82-0.254-6.018,1.846c5.174,1.101,9.715,0.531,14.219,0.594c4.998,0.07,10.001-0.116,15.001-0.212
	c0.93-0.018,2.22,0.036,2.415-0.981C454.224,440.607,452.721,440.881,451.933,440.874z M456.536,364.256
	c1.082,0.245,2.451-0.582,2.573-1.84c0.252-2.598,0.348-5.21,0.481-7.382c-0.227-3.532-0.398-6.618-0.661-9.695
	c-0.03-0.346-0.524-0.799-0.901-0.939c-0.797-0.295-1.399,0.192-1.638,0.901c-1.859,5.52-1.58,11.258-1.581,16.954
	C454.808,363.163,455.435,364.007,456.536,364.256z M931.561,432.438c-0.291,0.012-0.784,0.627-0.777,0.952
	c0.008,0.352,0.428,0.803,0.784,1.012c0.392,0.23,0.915,0.316,1.383,0.322c6.246,0.083,12.491,0.147,18.737,0.2
	c2.158,0.019,4.273-0.181,6.137-1.432c-0.849-0.345-1.675-0.817-2.552-0.947C947.379,431.377,939.465,432.135,931.561,432.438z
	 M957.824,433.492c0.046,0.019,0.092,0.041,0.139,0.059l0.002,0.003c0.006-0.017,0.013-0.035,0.019-0.052
	c-0.029-0.017-0.058-0.032-0.087-0.05C957.874,433.469,957.848,433.476,957.824,433.492z M996.881,400.168
	c0.005-0.047-0.009-0.088-0.003-0.136c0,0-0.032,0.031-0.064,0.061l0.064-0.062c-0.023-0.037-0.05-0.067-0.073-0.103
	c-0.019,0.077-0.039,0.15-0.056,0.227C996.795,400.156,996.835,400.168,996.881,400.168z M1009.352,418.837
	c0.403,0.572,1.268,0.723,1.932,0.275c0.887-0.6,1.149-1.57,0.765-2.509c-0.355-0.868-0.865-1.756-1.533-2.401
	c-3.974-3.832-7.348-8.166-10.688-12.533c-0.74-0.966-1.718-1.5-2.946-1.501c-0.16,1.728,0.737,3.089,1.521,4.528
	C1001.293,410.002,1005.913,413.961,1009.352,418.837z M253.14,380.773c-0.344-0.288-0.817-0.563-1.241-0.579
	c-0.403-0.014-0.844,0.281-1.217,0.521c-0.137,0.088-0.228,0.449-0.162,0.613c0.259,0.639,0.45,1.389,0.914,1.85
	c4.553,4.527,9.126,9.037,13.768,13.473c0.98,0.936,2.054,2.003,4.581,1.641C264.493,391.562,259.183,385.822,253.14,380.773z
	 M219.159,370.436c-0.474-0.274-1.043,0.041-1.072,0.598c-0.021,0.397,0.245,0.963,0.568,1.199c3.074,2.243,6.206,4.405,9.28,6.649
	c1.324,0.966,2.451,2.249,5.549,2.363C228.995,376.038,224.053,373.263,219.159,370.436z M947.6,395.876
	c-0.001,0.001,0.107-0.086,0.107-0.086c-0.046-0.043-0.086-0.09-0.131-0.133C947.585,395.729,947.589,395.803,947.6,395.876z
	 M944.662,388.822c-0.684-0.981-1.344-1.987-2.117-2.896c-0.93-1.092-1.892-2.183-2.987-3.099c-0.755-0.632-1.353-2.009-2.902-1.151
	c3.121,5.145,6.563,9.918,10.919,13.98c-0.138-1.103-0.122-2.271-0.55-3.246C946.459,391.117,945.484,390,944.662,388.822z
	 M237.441,384.08c-0.381,0.367-0.763,0.734-1.143,1.101c3.232,3.81,6.597,7.496,10.796,10.338c0.292,0.198,1.001,0.163,1.245-0.06
	c0.223-0.203,0.269-1.014,0.064-1.208C244.779,390.829,241.105,387.46,237.441,384.08z M280.805,398.398
	c3.609,5.393,6.558,7.709,11.305,9.224C288.972,403.28,284.838,400.915,280.805,398.398z M609.517,437.658
	c-0.001,0.001-0.094,0.097-0.094,0.097c0.075,0.019,0.141,0.05,0.216,0.07C609.599,437.769,609.56,437.712,609.517,437.658z
	 M618.002,446.407c0.263,0.251,0.98,0.329,1.28,0.147c0.256-0.154,0.443-1.007,0.27-1.197c-2.839-3.119-5.596-6.375-9.913-7.533
	c0.39,0.525,0.747,1.079,1.202,1.537C613.202,441.738,615.578,444.097,618.002,446.407z M256.053,404.078
	c1.673,1.936,2.534,3.012,3.487,4c0.486,0.504,1.214,0.808,1.806,0.217c0.176-0.175,0.043-0.965-0.206-1.211
	C260.02,405.978,259.286,404.329,256.053,404.078z M349.724,442.353c2.348-0.141,4.415-0.266,7.42-0.446
	C352.002,440.725,352.001,440.693,349.724,442.353z M332.742,441.373c-0.424-0.154-0.88-0.219-1.496-0.359
	c-0.286,0-0.745,0.002-1.205-0.001c-0.608-0.003-0.908,0.228-0.787,0.665c0.205,0.743,2.996,1.323,3.724,0.763
	c0.131-0.1,0.192-0.402,0.152-0.58C333.086,441.674,332.913,441.436,332.742,441.373z M297.119,411.803
	c-0.388-0.213-0.861-0.27-1.296-0.398c-0.386,0.201-1.004,0.316-1.114,0.618c-0.408,1.118,0.319,1.696,1.278,1.993
	c0.686,0.212,1.474,0.191,1.826-0.504C298.159,412.826,297.78,412.165,297.119,411.803z M921.745,466.269
	c-0.151,0.945,0.596,1.14,1.301,0.975c0.346-0.082,0.595-0.579,0.888-0.891c-0.347-0.224-0.691-0.619-1.04-0.623
	C922.495,465.726,921.785,466.019,921.745,466.269z M282.223,411.7c-0.532-0.243-1.171-0.051-1.065,0.359
	c0.145,0.565,0.667,1.102,1.155,1.49c0.438,0.348,0.889,0.115,1.098-0.369C283.431,412.342,282.863,411.992,282.223,411.7z
	 M86.61,608.86c9.533-9.795,19.04-19.614,28.448-29.527c7.432-7.83,14.687-15.828,22.062-23.713
	c2.969-3.174,5.432-6.71,7.778-10.343c0.698-1.081,1.016-2.159,0.118-3.277c-0.823-1.025-2.341-0.896-3.787,0.441
	c-1.052,0.973-2,2.061-2.951,3.138c-9.359,10.609-18.756,21.185-28.048,31.852c-7.717,8.857-15.323,17.811-22.948,26.746
	c-2.636,3.09-5.184,6.254-7.773,9.385c0.232,0.328,0.464,0.656,0.697,0.984C82.35,612.658,84.626,610.901,86.61,608.86z
	 M171.227,711.168c1.825-2.219,3.403-4.647,4.998-7.043c0.355-0.533,0.299-1.34,0.346-1.577c-0.165-1.227-1.69-1.824-2.454-1.438
	c-2.218,1.123-3.695,3.08-5.254,4.875c-10.257,11.814-21.248,22.94-31.974,34.316c-4.78,5.07-8.823,10.78-12.602,16.647
	c-0.195,0.303-0.123,1,0.108,1.283c0.174,0.214,0.919,0.23,1.201,0.033c0.574-0.4,1.031-0.984,1.497-1.526
	c5.483-6.386,11.267-12.466,17.355-18.297C153.649,729.63,163.107,721.043,171.227,711.168z M149.12,614.344
	c1.396-1.627,2.601-3.43,3.77-5.231c0.355-0.545,0.297-1.358,0.335-1.561c-0.048-1.33-1.591-2.067-2.271-1.508
	c-1.288,1.06-2.597,2.122-3.729,3.341c-4.893,5.271-9.62,10.698-14.599,15.883c-9.622,10.016-19.384,19.895-29.062,29.859
	c-1.834,1.889-3.564,3.884-5.278,5.885c-0.212,0.247-0.191,0.975,0.021,1.217c0.187,0.213,0.882,0.213,1.197,0.033
	c0.613-0.351,1.139-0.872,1.666-1.358c6.342-5.847,12.701-11.675,19.01-17.557C130.174,634.027,140.2,624.734,149.12,614.344z
	 M82.134,586.719c1.785-1.924,3.496-3.918,5.224-5.895c10.25-11.722,20.587-23.369,30.702-35.207
	c3.411-3.994,6.27-8.461,9.346-12.737c0.401-0.556,0.59-1.264,0.852-1.847c-0.298-0.48-0.465-1.097-0.795-1.203
	c-0.63-0.202-1.457-0.35-2.02-0.103c-2.534,1.108-3.907,3.503-5.541,5.523c-11.599,14.345-23.135,28.74-34.628,43.17
	c-1.783,2.239-3.265,4.724-4.807,7.145c-0.157,0.244,0.11,1.005,0.403,1.216C81.15,586.981,81.915,586.955,82.134,586.719z
	 M138.421,568.792c-0.478-1.668-1.125-2.117-1.828-1.891c-1.949,0.626-2.987,2.368-4.122,3.876
	c-9.654,12.829-20.228,24.862-31.104,36.664c-4.842,5.254-9.031,11.11-13.468,16.731c-0.175,0.223,0.026,0.984,0.294,1.243
	c0.243,0.235,1.04,0.329,1.214,0.139c1.599-1.747,3.01-3.672,4.671-5.352c12.127-12.251,23.888-24.84,34.933-38.078
	c2.907-3.484,5.512-7.222,8.182-10.898C137.879,570.281,138.51,569.199,138.421,568.792z M135.433,651.325
	c-1.978,2.108-3.512,4.39-4.037,7.26c1.397-0.357,2.435-1.279,3.448-2.237c4.864-4.599,9.795-9.131,14.571-13.819
	c6.319-6.201,12.607-12.439,18.052-19.458c1.317-1.697,2.805-3.298,3.264-5.48c0.079-0.378-0.198-0.974-0.507-1.249
	c-0.288-0.256-0.895-0.398-1.261-0.28c-1.653,0.532-2.82,1.766-3.94,3.017c-2.714,3.03-5.356,6.123-8.112,9.113
	C149.782,635.931,142.63,643.651,135.433,651.325z M140.958,661.57c-0.824,0.848-1.834,1.643-1.753,2.983
	c0.023,0.385,0.466,0.745,0.717,1.115c1.07,0.286,1.799-0.296,2.534-0.946c3.231-2.856,6.007-6.158,9.28-9.007
	c6.508-5.668,12.691-11.713,18.932-17.681c1.552-1.485,2.885-3.22,4.183-4.943c0.553-0.734,0.938-1.704,1.062-2.613
	c0.079-0.583-0.293-1.502-0.764-1.81c-0.479-0.314-1.616-0.358-1.969-0.013c-3.594,3.526-7.09,7.152-10.607,10.756
	C155.365,646.794,148.157,654.177,140.958,661.57z M109.677,618.522c0.848-1.121,1.464-2.468,1.922-3.803
	c0.165-0.478-0.288-1.478-0.755-1.776c-0.489-0.311-1.501-0.33-1.995-0.018c-2.294,1.451-3.283,4.042-4.97,6.041
	c-5.396,6.391-10.833,12.752-16.04,19.295c-3.232,4.063-6.405,8.222-8.489,13.057c0.834-0.323,1.841-0.486,2.386-1.077
	c6.974-7.547,13.916-15.123,20.763-22.785C105.041,624.611,107.373,621.569,109.677,618.522z M79.284,651.449
	c0.02-0.045,0.045-0.086,0.065-0.131c-0.05,0.019-0.104,0.034-0.152,0.055C79.197,651.373,79.284,651.449,79.284,651.449z
	 M137.388,583.801c-0.522,0.714-0.671,1.745-0.814,2.657c-0.038,0.24,0.594,0.584,0.957,0.916c0.349-0.085,0.947-0.046,1.207-0.324
	c1.797-1.922,3.6-3.847,5.256-5.889c4.83-5.96,8.729-12.61,13.814-18.401c5.053-5.754,9.818-11.762,14.69-17.674
	c0.286-0.348,0.442-0.825,0.577-1.267c0.053-0.174-0.06-0.47-0.198-0.613c-0.136-0.14-0.414-0.242-0.605-0.211
	c-1.278,0.202-2.092,1.13-2.866,2.024c-5.798,6.688-11.588,13.382-17.335,20.114c-2.335,2.735-4.597,5.536-6.822,8.363
	C142.576,576.892,139.938,580.315,137.388,583.801z M169.163,737.509c-0.686,0.123-1.315,0.569-1.97,0.868
	c-2.181-2.567-2.563-2.724-4.228-1.471c-2.006,1.51-3.965,3.081-5.945,4.625c0.522-2.757,2.598-4.497,4.303-6.453
	c2.189-2.512,4.577-4.853,6.726-7.398c0.996-1.181,2.093-2.588,0.946-4.327c-0.376,0.052-0.69-0.002-0.832,0.13
	c-5.964,5.545-10.423,12.34-15.444,18.668c-0.134,0.169-0.212,0.451-0.189,0.667c0.107,1.009,0.815,0.926,1.491,0.71
	c0.444-0.142,0.842-0.43,1.256-0.648c-1.11,2.983-3.29,5.259-5.142,7.758c-1.569,2.117-3.104,4.26-4.584,6.439
	c-0.174,0.256,0.092,0.812,0.224,1.696c4.167-3.165,7.414-6.944,10.853-10.498c1.842-1.904,3.564-3.899,6.056-4.968
	c-2.769,5.114-6.915,9.172-10.571,13.611c-1.37,1.664-2.726,3.343-4.001,5.078c-0.162,0.221,0.08,0.985,0.364,1.219
	c0.277,0.23,0.852,0.145,1.29,0.115c0.216-0.015,0.448-0.186,0.625-0.34c7.067-6.176,13.679-12.804,19.697-20.007
	c0.743-0.889,1.172-2.079,1.596-3.188C172.229,738.362,170.954,737.187,169.163,737.509z M80.696,829.239
	c0,0.001,0.096,0.093,0.096,0.093c0.013-0.067,0.038-0.126,0.052-0.192C80.793,829.17,80.749,829.209,80.696,829.239z
	 M106.704,791.651c0.006,0.059-0.009,0.111-0.007,0.17c0.042-0.023,0.075-0.053,0.117-0.075L106.704,791.651z M87.334,822.885
	c5.842-8.66,11.651-17.344,17.528-25.98c1.071-1.573,1.944-3.138,1.835-5.084c-2.526,1.36-4.344,3.436-5.931,5.784
	c-5.436,8.043-10.877,16.083-16.386,24.076c-1.594,2.315-2.98,4.681-3.535,7.459C83.487,827.554,85.617,825.431,87.334,822.885z
	 M168.868,648.723c0.09-0.413,0.074-0.992-0.159-1.292c-0.232-0.297-0.928-0.588-1.188-0.449c-1.454,0.779-3.114,1.434-4.198,2.601
	c-4.991,5.369-9.805,10.901-13.928,18.501c1.867-0.655,2.441-0.682,2.725-0.983c5.384-5.691,10.738-11.411,16.08-17.142
	C168.512,649.624,168.77,649.165,168.868,648.723z M131.919,598.253c-2.844,2.663-4.679,5.962-6.522,10.795
	c5.184-1.882,7.058-5.73,9.87-8.49c0.585-0.575,0.041-1.846-0.783-2.492C133.603,597.375,132.66,597.559,131.919,598.253z
	 M106.704,791.65c0,0.001,0.11,0.096,0.11,0.096c0.027-0.097,0.056-0.18,0.082-0.276
	C106.827,791.533,106.775,791.586,106.704,791.65z M114.07,780.391c-4.104,3.56-5.84,6.238-7.173,11.079
	C111.753,787.017,113.103,784.928,114.07,780.391z M156.315,684.738c-1.667,1.658-3.323,3.329-4.939,5.037
	c-0.41,0.433-0.27,0.934,0.256,1.19c0.179,0.087,0.496,0.051,0.676-0.056c2.277-1.343,3.963-3.228,5.25-5.369
	c-0.307-0.443-0.398-0.703-0.573-0.791C156.799,684.656,156.431,684.623,156.315,684.738z M126.529,713.992
	c-0.909-0.208-1.746,0.596-2.219,1.485c-0.696,1.307-0.365,2.635-0.07,3.956c0.858-1.072,1.814-2.085,2.512-3.252
	C127.126,715.557,128.103,714.352,126.529,713.992z M124.167,719.523c0.003,0.003,0.114,0.095,0.114,0.095
	c-0.014-0.061-0.027-0.123-0.041-0.184C124.217,719.464,124.19,719.493,124.167,719.523z M159.1,578.094
	c3.699-2.565,3.83-2.673,5.23-5.902C162.702,573.786,160.731,575.15,159.1,578.094z M164.548,571.981
	c0-0.002-0.088-0.087-0.088-0.087c-0.049,0.112-0.085,0.192-0.13,0.298C164.402,572.121,164.477,572.053,164.548,571.981z
	 M83.392,630.082c-0.177,0.291-0.116,0.966,0.111,1.198c0.21,0.213,0.912,0.236,1.178,0.042c0.757-0.552,1.301-1.311,1.249-2.341
	c-0.38-0.136-0.911-0.496-1.114-0.362C84.256,628.988,83.743,629.51,83.392,630.082z M147.001,683.415
	c-0.531,0.391-0.997,0.935-1.326,1.51c-0.153,0.267,0.045,0.76,0.154,1.13c0.017,0.059,0.406,0.008,0.643,0.008
	c0.851-0.354,1.585-0.863,1.79-1.859c0.042-0.2-0.015-0.584-0.119-0.621C147.775,683.453,147.229,683.249,147.001,683.415z
	 M76.996,655.923c0.372-0.202,0.973-0.325,1.077-0.622c0.42-1.185,0.717-2.413,1.045-3.63c-0.776,1.024-1.578,2.03-2.283,3.101
	C76.674,655.016,76.931,655.533,76.996,655.923z M79.117,651.671c0.056-0.074,0.112-0.147,0.168-0.221
	c-0.001-0.001-0.088-0.077-0.088-0.077C79.169,651.472,79.144,651.572,79.117,651.671z M128.308,661.975
	c1.092,0.067,1.739-0.568,2.205-1.392c0.312-0.552,0.48-1.185,0.693-1.794c-0.595,0.253-1.21,0.469-1.762,0.794
	C127.89,660.501,127.237,661.909,128.308,661.975z M131.207,658.789c0.05-0.021,0.101-0.04,0.151-0.062c0,0-0.024-0.024-0.049-0.049
	l0.049,0.048c0.008-0.05,0.029-0.092,0.038-0.142c-0.048,0.012-0.087,0.036-0.136,0.046
	C131.242,658.683,131.225,658.737,131.207,658.789z M174.275,459.961c-2.119-0.413-3.389-1.05-4.334-3.051
	c-3.551-7.513-10.156-10.734-17.922-11.57c-4.41-0.474-8.773,0.492-10.846,5.291c-0.809,1.873-2.459,2.922-3.667,4.395
	c-4.187,5.105-4.85,14.387-1.397,19.701c7.85,12.08,24.7,11.994,32.513-0.17c0.792-1.234,1.552-2.487,2.328-3.732
	c-0.158,2.55-0.998,4.763-1.827,6.981c-0.42,1.123-0.867,2.241-1.215,3.387c-0.246,0.814,0.881,1.81,1.792,1.771
	c2.133-0.093,3.622-1.282,4.744-2.905c1.475-2.136,2.548-4.553,4.517-6.337c0.045-2.624,0.146-5.25,0.123-7.875
	C179.048,461.839,178.392,460.763,174.275,459.961z M158.574,477.656c-4.932,2.354-9.773,2.318-14.342-0.864
	c-6.457-4.496-8.257-14.826-3.716-21.256c0.669-0.945,1.616-2.184,2.588-2.341c4.217-0.685,8.404-2.195,12.764-1.211
	c5.25,1.185,8.97,5.791,9.826,12.051c0.129,0.947,0.097,1.915,0.132,2.686C165.518,471.927,163.089,475.502,158.574,477.656z
	 M178.961,473.721c-0.001,0.016-0.001,0.032-0.001,0.048l0.001-0.002c0.083-0.013,0.167-0.026,0.25-0.039
	c-0.053-0.037-0.111-0.059-0.165-0.098C179.015,473.658,178.993,473.693,178.961,473.721z M85.97,421.125
	c2.37-0.292,4.682-1.063,7.019-1.613c-1.013,2.391-3.714,2.984-5.187,4.863c-0.7,0.894-0.394,1.787,0.523,2.417
	c1.518,1.042,3.155,1.012,4.813,0.421c3.734-1.331,6.733-3.779,9.135-6.795c2.582-3.24,3.776-7.192,4.391-11.265
	c0.081-0.532-0.409-1.38-0.889-1.711c-0.617-0.425-1.414-0.068-1.898,0.521c-0.91,1.111-1.753,2.276-2.625,3.419
	c0.194-1.427,0.348-2.862,0.589-4.282c1.257-7.403-1.352-13.471-7.272-17.642c-6.198-4.368-13.128-4.092-19.914-0.993
	c-1.788,0.816-3.351,2.184-3.416,4.311c-0.07,2.3-0.846,4.186-2.261,5.919c-1.112,1.363-1.373,3.023-1.523,4.725
	C66.509,414.127,75.151,422.459,85.97,421.125z M73.786,411.653c-3.129-3.967-2.663-8.536-1.347-13.043
	c0.247-0.848,0.903-1.893,1.648-2.223c2.822-1.25,5.674-2.714,8.665-3.236c6.143-1.073,12.038,3.587,13.512,10.256
	c0.191,0.865,0.165,2.177-0.351,2.708c-0.854,0.878-1.547-0.39-2.275-0.831c-1.358-0.822-2.332-0.268-2.879,0.984
	c-1.25,2.857-3.479,4.459-6.342,5.423c-1.179,0.397-3.27-0.121-2.973,2.093c0.173,1.283,1.592,1.653,2.721,2.073
	c0.857,0.319,1.955-0.049,2.687,1.042C81.166,418.279,77.051,415.795,73.786,411.653z M80.384,482.69
	c12.742,5.381,26.521-3.378,26.579-17.178c0.14-2.651-0.466-5.448-1.683-8.094c-3.091-6.715-11.74-11.37-19.666-10.61
	c-2.679,0.257-5.085,0.928-6.862,3.314c-1.12,1.503-2.73,2.669-4.225,3.855c-1.542,1.225-2.655,2.714-3.516,4.465
	C66.293,468.026,70.305,478.434,80.384,482.69z M75.23,463.708c0.038-0.176,0.188-1.89,0.781-3.434
	c2.163-5.618,7.741-8.157,14.232-6.63c9.191,2.163,13.245,12.891,7.739,20.478c-5.433,7.487-16.588,6.815-21.069-1.294
	C75.611,470.473,74.887,467.942,75.23,463.708z M99.945,486.471c4.75,0.725,7.745-1.719,10.096-4.642
	c2.691-3.345,4.946-7.116,5.126-11.657c0.079-1.956-0.54-3.781-1.35-5.536c-0.449-0.974-1.317-1.446-2.31-1.27
	c-1.103,0.196-1.394,1.181-1.442,2.178c-0.059,1.197-0.074,2.395-0.08,3.593c-0.026,5.317-2.333,9.709-5.711,13.58
	C103.03,484.143,101.4,485.23,99.945,486.471z M969.318,425.756c0.153-0.078,0.205-0.359,0.304-0.547
	c-0.05-0.856-1.285-2.014-1.867-1.723c-0.158,0.079-0.315,0.35-0.311,0.528C967.465,424.797,968.792,426.022,969.318,425.756z
	 M160.242,467.173c-1.37-0.637-2.211,0.33-3.005,1.152c-1.529,1.585-3.465,2.39-5.477,3.104c-1.104,0.392-2.184,0.855-3.257,1.329
	c-0.181,0.08-0.416,0.424-0.371,0.563c0.14,0.428,0.304,0.996,0.639,1.182c0.8,0.442,1.703,0.694,2.279,0.915
	c3.74-0.192,6.914-0.841,9.098-3.785C161.297,470.085,161.343,467.685,160.242,467.173z M88.136,477.228
	c4.948,0.057,7.525-2.416,7.384-6.93c-0.012-0.376-0.412-0.907-0.763-1.055c-0.322-0.135-1.056,0.013-1.207,0.271
	c-1.411,2.409-3.715,3.663-6.052,4.915c-0.624,0.334-1.214,0.997-0.814,1.7C86.991,476.667,87.744,476.949,88.136,477.228z"/>
</svg>
